SplineFontDB: 3.2
FontName: Entity-ExtraBold
FullName: Entity ExtraBold
FamilyName: Entity
Weight: Bold
Copyright: Based on Geist Copyright 2024 The Geist Project Authors https:github.comvercelgeist-font.git
Version: 0.1
ItalicAngle: 0
UnderlinePosition: -125
UnderlineWidth: 50
Ascent: 800
Descent: 200
InvalidEm: 0
sfntRevision: 0x0000199a
LayerCount: 2
Layer: 0 0 "Back" 1
Layer: 1 0 "Fore" 0
XUID: [1021 1008 -1557834819 1227667]
StyleMap: 0x0040
FSType: 0
OS2Version: 4
OS2_WeightWidthSlopeOnly: 0
OS2_UseTypoMetrics: 1
CreationTime: 1728311655
ModificationTime: 1746831960
PfmFamily: 81
TTFWeight: 800
TTFWidth: 5
LineGap: 0
VLineGap: 0
Panose: 0 0 0 0 0 0 0 0 0 0
OS2TypoAscent: 1005
OS2TypoAOffset: 0
OS2TypoDescent: -295
OS2TypoDOffset: 0
OS2TypoLinegap: 0
OS2WinAscent: 1012
OS2WinAOffset: 0
OS2WinDescent: 262
OS2WinDOffset: 0
HheadAscent: 1005
HheadAOffset: 0
HheadDescent: -295
HheadDOffset: 0
OS2SubXSize: 650
OS2SubYSize: 600
OS2SubXOff: 0
OS2SubYOff: 75
OS2SupXSize: 650
OS2SupYSize: 600
OS2SupXOff: 0
OS2SupYOff: 350
OS2StrikeYSize: 50
OS2StrikeYPos: 323
OS2CapHeight: 710
OS2XHeight: 538
OS2Vendor: 'VRCL'
OS2CodePages: 20000097.00000000
OS2UnicodeRanges: a10002ff.5001e5fb.00000000.00000000
Lookup: 1 0 0 "'aalt' Access All Alternates in Latin lookup 0" { "'aalt' Access All Alternates in Latin lookup 0 subtable"  } ['aalt' ('DFLT' <'dflt' > 'latn' <'AZE ' 'CAT ' 'CRT ' 'KAZ ' 'MAH ' 'MOL ' 'NLD ' 'ROM ' 'TAT ' 'TRK ' 'dflt' > ) ]
Lookup: 3 0 0 "'aalt' Access All Alternates in Latin lookup 1" { "'aalt' Access All Alternates in Latin lookup 1 subtable"  } ['aalt' ('DFLT' <'dflt' > 'latn' <'AZE ' 'CAT ' 'CRT ' 'KAZ ' 'MAH ' 'MOL ' 'NLD ' 'ROM ' 'TAT ' 'TRK ' 'dflt' > ) ]

StartChar: .notdef
Encoding: 65536 -1 0
Width: 600
GlyphClass: 1
Flags: MW
HStem: 0 36<95 510 95 565> 674 36<95 95 95 510>
VStem: 40 33<64 646 64 710> 532 33<64 646 646 646>
LayerCount: 2
Fore
SplineSet
40 0 m 1
 40 710 l 1
 565 710 l 1
 565 0 l 1
 40 0 l 1
95 674 m 1
 303 384 l 1
 510 674 l 1
 95 674 l 1
73 646 m 1
 73 64 l 1
 282 355 l 1
 73 646 l 1
323 355 m 1
 532 64 l 1
 532 646 l 1
 323 355 l 1
95 36 m 1
 510 36 l 1
 303 326 l 1
 95 36 l 1
EndSplineSet
EndChar

StartChar: A
Encoding: 65 65 1
Width: 750
GlyphClass: 2
Flags: MW
HStem: 0 21G<18 18 18 196 553 553 553 732> 134 138<290 460 290 507 243 460> 690 20G<274 476 476 476>
VStem: 18 714<0 0>
AnchorPoint: "Anchor-3" 376 710 basechar 0
AnchorPoint: "Anchor-2" 732 0 basechar 0
AnchorPoint: "Anchor-0" 376 0 basechar 0
LayerCount: 2
Fore
SplineSet
18 0 m 1
 274 710 l 1
 476 710 l 1
 732 0 l 1
 553 0 l 1
 507 134 l 1
 243 134 l 1
 196 0 l 1
 18 0 l 1
290 272 m 1
 460 272 l 1
 376 522 l 1
 290 272 l 1
EndSplineSet
Substitution2: "Single Substitution lookup 27 subtable" ordfeminine
Substitution2: "'aalt' Access All Alternates in Latin lookup 0 subtable" ordfeminine
EndChar

StartChar: Aacute
Encoding: 193 193 2
Width: 750
GlyphClass: 2
Flags: MW
HStem: 0 21G<18 18 18 196 553 553 553 732> 134 138<290 460 290 507 243 460> 690 20G<274 476 476 476> 761 154<297 516 353 426>
VStem: 18 714<0 0>
AnchorPoint: "Anchor-3" 376 710 basechar 0
AnchorPoint: "Anchor-2" 732 0 basechar 0
AnchorPoint: "Anchor-0" 376 0 basechar 0
LayerCount: 2
Fore
SplineSet
297 761 m 1
 353 915 l 1
 516 915 l 1
 426 761 l 1
 297 761 l 1
18 0 m 1
 274 710 l 1
 476 710 l 1
 732 0 l 1
 553 0 l 1
 507 134 l 1
 243 134 l 1
 196 0 l 1
 18 0 l 1
290 272 m 1
 460 272 l 1
 376 522 l 1
 290 272 l 1
EndSplineSet
EndChar

StartChar: Abreve
Encoding: 258 258 3
Width: 750
GlyphClass: 2
Flags: MW
HStem: 0 21G<18 18 18 196 553 553 553 732> 134 138<290 460 290 507 243 460> 690 20G<274 476 476 476> 760 89<357 395 357 424> 760 153<213 424>
VStem: 18 714<0 0>
AnchorPoint: "Anchor-3" 376 710 basechar 0
AnchorPoint: "Anchor-2" 732 0 basechar 0
AnchorPoint: "Anchor-0" 376 0 basechar 0
LayerCount: 2
Fore
SplineSet
376 760 m 0xec
 279 760 217 815 213 913 c 1xec
 310 913 l 1
 314 867 338 849 376 849 c 0xf4
 414 849 437 867 441 913 c 1
 538 913 l 1
 534 815 472 760 376 760 c 0xec
18 0 m 1
 274 710 l 1
 476 710 l 1
 732 0 l 1
 553 0 l 1
 507 134 l 1
 243 134 l 1
 196 0 l 1
 18 0 l 1
290 272 m 1
 460 272 l 1
 376 522 l 1
 290 272 l 1
EndSplineSet
EndChar

StartChar: uni01CD
Encoding: 461 461 4
Width: 750
GlyphClass: 2
Flags: MW
HStem: 0 21G<18 18 18 196 553 553 553 732> 134 138<290 460 290 507 243 460> 690 20G<274 476 476 476> 761 160<295 313 438 456 295 295>
VStem: 18 714<0 0>
AnchorPoint: "Anchor-3" 376 710 basechar 0
AnchorPoint: "Anchor-2" 732 0 basechar 0
AnchorPoint: "Anchor-0" 376 0 basechar 0
LayerCount: 2
Fore
SplineSet
197 921 m 1
 313 921 l 1
 376 832 l 1
 438 921 l 1
 554 921 l 1
 456 761 l 1
 295 761 l 1
 197 921 l 1
18 0 m 1
 274 710 l 1
 476 710 l 1
 732 0 l 1
 553 0 l 1
 507 134 l 1
 243 134 l 1
 196 0 l 1
 18 0 l 1
290 272 m 1
 460 272 l 1
 376 522 l 1
 290 272 l 1
EndSplineSet
EndChar

StartChar: Acircumflex
Encoding: 194 194 5
Width: 750
GlyphClass: 2
Flags: MW
HStem: 0 21G<18 18 18 196 553 553 553 732> 134 138<290 460 290 507 243 460> 690 20G<274 476 476 476> 761 160<197 456 295 313 438 438 438 456 295 554>
VStem: 18 714<0 0>
AnchorPoint: "Anchor-3" 376 710 basechar 0
AnchorPoint: "Anchor-2" 732 0 basechar 0
AnchorPoint: "Anchor-0" 376 0 basechar 0
LayerCount: 2
Fore
SplineSet
197 761 m 1
 295 921 l 1
 456 921 l 1
 554 761 l 1
 438 761 l 1
 376 850 l 1
 313 761 l 1
 197 761 l 1
18 0 m 1
 274 710 l 1
 476 710 l 1
 732 0 l 1
 553 0 l 1
 507 134 l 1
 243 134 l 1
 196 0 l 1
 18 0 l 1
290 272 m 1
 460 272 l 1
 376 522 l 1
 290 272 l 1
EndSplineSet
EndChar

StartChar: Adieresis
Encoding: 196 196 6
Width: 750
GlyphClass: 2
Flags: MW
HStem: 0 21G<18 18 18 196 553 553 553 732> 134 138<290 460 290 507 243 460> 690 20G<274 476 476 476> 767 128<181 342 181 342 409 571 181 409>
VStem: 181 161<767 895 767 895> 409 162<767 895 767 895>
AnchorPoint: "Anchor-3" 376 710 basechar 0
AnchorPoint: "Anchor-2" 732 0 basechar 0
AnchorPoint: "Anchor-0" 376 0 basechar 0
LayerCount: 2
Fore
SplineSet
181 767 m 1
 181 895 l 1
 342 895 l 1
 342 767 l 1
 181 767 l 1
409 767 m 1
 409 895 l 1
 571 895 l 1
 571 767 l 1
 409 767 l 1
18 0 m 1
 274 710 l 1
 476 710 l 1
 732 0 l 1
 553 0 l 1
 507 134 l 1
 243 134 l 1
 196 0 l 1
 18 0 l 1
290 272 m 1
 460 272 l 1
 376 522 l 1
 290 272 l 1
EndSplineSet
Substitution2: "'ss08' Style Set 8 in Latin lookup 41 subtable" Adieresis.ss08
Substitution2: "'aalt' Access All Alternates in Latin lookup 0 subtable" Adieresis.ss08
EndChar

StartChar: Agrave
Encoding: 192 192 7
Width: 750
GlyphClass: 2
Flags: MW
HStem: 0 21G<18 18 18 196 553 553 553 732> 134 138<290 460 290 507 243 460> 690 20G<274 476 476 476> 768 153<322 322 322 395 232 451>
VStem: 18 714<0 0>
AnchorPoint: "Anchor-3" 376 710 basechar 0
AnchorPoint: "Anchor-2" 732 0 basechar 0
AnchorPoint: "Anchor-0" 376 0 basechar 0
LayerCount: 2
Fore
SplineSet
322 768 m 1
 232 921 l 1
 395 921 l 1
 451 768 l 1
 322 768 l 1
18 0 m 1
 274 710 l 1
 476 710 l 1
 732 0 l 1
 553 0 l 1
 507 134 l 1
 243 134 l 1
 196 0 l 1
 18 0 l 1
290 272 m 1
 460 272 l 1
 376 522 l 1
 290 272 l 1
EndSplineSet
EndChar

StartChar: Amacron
Encoding: 256 256 8
Width: 750
GlyphClass: 2
Flags: MW
HStem: 0 21G<18 18 18 196 553 553 553 732> 134 138<290 460 290 507 243 460> 690 20G<274 476 476 476> 773 122<221 530 221 530>
VStem: 221 309<773 895 773 895>
AnchorPoint: "Anchor-3" 376 710 basechar 0
AnchorPoint: "Anchor-2" 732 0 basechar 0
AnchorPoint: "Anchor-0" 376 0 basechar 0
LayerCount: 2
Fore
SplineSet
221 773 m 1
 221 895 l 1
 530 895 l 1
 530 773 l 1
 221 773 l 1
18 0 m 1
 274 710 l 1
 476 710 l 1
 732 0 l 1
 553 0 l 1
 507 134 l 1
 243 134 l 1
 196 0 l 1
 18 0 l 1
290 272 m 1
 460 272 l 1
 376 522 l 1
 290 272 l 1
EndSplineSet
EndChar

StartChar: Aogonek
Encoding: 260 260 9
Width: 750
GlyphClass: 2
Flags: MW
HStem: -220 97<618 705> 0 21G<18 18 18 196 553 553 553 598 732 732> 134 138<290 460 290 507 243 460> 690 20G<274 476 476 476>
VStem: 18 751<-194 0> 536 136<-158.5 -90>
AnchorPoint: "Anchor-3" 376 710 basechar 0
AnchorPoint: "Anchor-2" 732 0 basechar 0
AnchorPoint: "Anchor-0" 376 0 basechar 0
LayerCount: 2
Fore
SplineSet
18 0 m 1x78
 274 710 l 1
 476 710 l 1
 732 0 l 1
 703 -37 l 2
 686 -61 672 -82 672 -98 c 0xf4
 672 -115 684 -123 697 -123 c 0
 713 -123 732 -117 741 -110 c 1
 769 -194 l 1xf8
 750 -208 702 -220 656 -220 c 0
 580 -220 536 -188 536 -129 c 0xf4
 536 -88 560 -50 583 -19 c 2
 598 0 l 1
 553 0 l 1
 507 134 l 1
 243 134 l 1
 196 0 l 1
 18 0 l 1x78
290 272 m 1
 460 272 l 1
 376 522 l 1
 290 272 l 1
EndSplineSet
EndChar

StartChar: Aring
Encoding: 197 197 10
Width: 758
GlyphClass: 2
Flags: MW
HStem: 0 21G<11 11 11 189 546 546 546 725> 134 138<283 453 283 500 235 453> 690 20G<267 469 469 469> 754 70<363.5 384.5 363.5 404> 895 69<363.5 384.5>
VStem: 268 70<848.5 869.5 848.5 889> 410 70<848.5 869.5>
AnchorPoint: "Anchor-3" 368 710 basechar 0
AnchorPoint: "Anchor-2" 725 0 basechar 0
AnchorPoint: "Anchor-0" 368 0 basechar 0
LayerCount: 2
Fore
SplineSet
374 754 m 0
 314 754 268 799 268 859 c 0
 268 919 314 964 374 964 c 0
 434 964 480 919 480 859 c 0
 480 799 434 754 374 754 c 0
374 824 m 0
 395 824 410 838 410 859 c 0
 410 880 395 895 374 895 c 0
 353 895 338 880 338 859 c 0
 338 838 353 824 374 824 c 0
11 0 m 1
 267 710 l 1
 469 710 l 1
 725 0 l 1
 546 0 l 1
 500 134 l 1
 235 134 l 1
 189 0 l 1
 11 0 l 1
283 272 m 1
 453 272 l 1
 368 522 l 1
 283 272 l 1
EndSplineSet
EndChar

StartChar: Atilde
Encoding: 195 195 11
Width: 758
GlyphClass: 2
Flags: MW
HStem: 0 21G<11 11 11 189 546 546 546 725> 134 138<283 453 283 500 235 453> 690 20G<267 469 469 469> 772 150<274 277 195 327> 777 100<423.5 438 423.5 465> 777 152<464 465> 822 100<305 320>
VStem: 195 82<772 817> 464 83<929 929>
AnchorPoint: "Anchor-3" 368 710 basechar 0
AnchorPoint: "Anchor-2" 725 0 basechar 0
AnchorPoint: "Anchor-0" 368 0 basechar 0
LayerCount: 2
Fore
SplineSet
426 777 m 0xe580
 394 777 375 784 348 807 c 0
 336 817 326 822 314 822 c 0xe380
 296 822 281 811 277 772 c 1
 195 772 l 1
 195 862 237 922 311 922 c 0xf180
 343 922 367 915 394 893 c 0
 409 882 418 877 429 877 c 0xe980
 447 877 462 888 464 929 c 1
 547 929 l 1
 546 836 504 777 426 777 c 0xe580
11 0 m 1
 267 710 l 1
 469 710 l 1
 725 0 l 1
 546 0 l 1
 500 134 l 1
 235 134 l 1
 189 0 l 1
 11 0 l 1
283 272 m 1
 453 272 l 1
 368 522 l 1
 283 272 l 1
EndSplineSet
EndChar

StartChar: AE
Encoding: 198 198 12
Width: 1066
GlyphClass: 2
Flags: MW
HStem: 0 142<709 1024 709 1024> 135 137<340 535 340 535 269 535> 285 142<709 1004 709 1004> 568 142<709 1016 709 709> 569 141<494 535 494 494>
VStem: 535 174<0 285 135 285 272 285 427 568>
AnchorPoint: "Anchor-3" 575 710 basechar 0
AnchorPoint: "Anchor-0" 575 0 basechar 0
LayerCount: 2
Fore
SplineSet
18 0 m 1xb4
 398 710 l 1
 1016 710 l 1
 1016 568 l 1
 709 568 l 1
 709 427 l 1
 1004 427 l 1
 1004 285 l 1
 709 285 l 1
 709 142 l 1
 1024 142 l 1
 1024 0 l 1
 535 0 l 1xb4
 535 135 l 1
 269 135 l 1x54
 199 0 l 1
 18 0 l 1xb4
535 569 m 1x4c
 494 569 l 1
 340 272 l 1
 535 272 l 1
 535 569 l 1x4c
EndSplineSet
EndChar

StartChar: B
Encoding: 66 66 13
Width: 710
GlyphClass: 2
Flags: MW
HStem: 0 137<242 377 377 387> 301 66 301 120<242 349 349 377 242 349> 573 137<242 349 242 242>
VStem: 68 174<137 137 137 301 421 573> 459 175<473 523.5> 489 175<190.5 246>
AnchorPoint: "Anchor-3" 355 710 basechar 0
AnchorPoint: "Anchor-0" 355 0 basechar 0
LayerCount: 2
Fore
SplineSet
68 0 m 1xda
 68 710 l 1
 355 710 l 2
 534 710 634 650 634 517 c 0xbc
 634 429 580 377 483 367 c 1
 602 357 664 296 664 196 c 0
 664 64 565 0 387 0 c 2
 68 0 l 1xda
242 421 m 1
 349 421 l 2
 414 421 459 446 459 497 c 0
 459 550 416 573 349 573 c 2
 242 573 l 1
 242 421 l 1
242 137 m 1
 377 137 l 2
 442 137 489 163 489 218 c 0xba
 489 274 443 301 377 301 c 2
 242 301 l 1
 242 137 l 1
EndSplineSet
EndChar

StartChar: C
Encoding: 67 67 14
Width: 745
GlyphClass: 2
Flags: MW
HStem: -16 142<331 424 331 473.5> 584 142<329.5 421>
VStem: 41 179<284 422.5 284 466.5>
AnchorPoint: "Anchor-3" 382 710 basechar 0
AnchorPoint: "Anchor-0" 383 0 basechar 0
LayerCount: 2
Fore
SplineSet
379 -16 m 0
 183 -16 41 121 41 354 c 0
 41 579 173 726 382 726 c 0
 573 726 676 630 707 455 c 1
 526 448 l 1
 511 533 460 584 382 584 c 0
 277 584 220 491 220 354 c 0
 220 214 281 126 381 126 c 0
 467 126 514 179 527 271 c 1
 709 264 l 1
 679 85 568 -16 379 -16 c 0
EndSplineSet
EndChar

StartChar: Cacute
Encoding: 262 262 15
Width: 745
GlyphClass: 2
Flags: MW
HStem: -16 142<331 424 331 473.5> 584 142<329.5 421> 761 154<303 523 360 433>
VStem: 41 179<284 422.5 284 466.5>
AnchorPoint: "Anchor-3" 382 710 basechar 0
AnchorPoint: "Anchor-0" 383 0 basechar 0
LayerCount: 2
Fore
SplineSet
303 761 m 1
 360 915 l 1
 523 915 l 1
 433 761 l 1
 303 761 l 1
379 -16 m 0
 183 -16 41 121 41 354 c 0
 41 579 173 726 382 726 c 0
 573 726 676 630 707 455 c 1
 526 448 l 1
 511 533 460 584 382 584 c 0
 277 584 220 491 220 354 c 0
 220 214 281 126 381 126 c 0
 467 126 514 179 527 271 c 1
 709 264 l 1
 679 85 568 -16 379 -16 c 0
EndSplineSet
EndChar

StartChar: Ccaron
Encoding: 268 268 16
Width: 745
GlyphClass: 2
Flags: MW
HStem: -16 142<331 424 331 473.5> 584 142<329.5 421> 761 160<301 320 444 463 301 301>
VStem: 41 179<284 422.5 284 466.5>
AnchorPoint: "Anchor-3" 382 710 basechar 0
AnchorPoint: "Anchor-0" 383 0 basechar 0
LayerCount: 2
Fore
SplineSet
203 921 m 1
 320 921 l 1
 382 832 l 1
 444 921 l 1
 561 921 l 1
 463 761 l 1
 301 761 l 1
 203 921 l 1
379 -16 m 0
 183 -16 41 121 41 354 c 0
 41 579 173 726 382 726 c 0
 573 726 676 630 707 455 c 1
 526 448 l 1
 511 533 460 584 382 584 c 0
 277 584 220 491 220 354 c 0
 220 214 281 126 381 126 c 0
 467 126 514 179 527 271 c 1
 709 264 l 1
 679 85 568 -16 379 -16 c 0
EndSplineSet
EndChar

StartChar: Ccedilla
Encoding: 199 199 17
Width: 745
GlyphClass: 2
Flags: MW
HStem: -236 78<359.5 388.5 359.5 414> -152 21G<246 246> -85 55<359 414> -85 211<359 384> -13 21G<332 332> 584 142<329.5 421>
VStem: 41 179<284 422.5 284 466.5> 421 89<-133.5 -111>
AnchorPoint: "Anchor-3" 382 710 basechar 0
AnchorPoint: "Anchor-0" 383 0 basechar 0
LayerCount: 2
Fore
SplineSet
378 -236 m 0xa7
 310 -236 265 -202 246 -152 c 1x4f
 317 -120 l 1
 328 -145 344 -158 375 -158 c 0
 402 -158 421 -145 421 -122 c 0
 421 -100 409 -85 359 -85 c 1x97
 314 -44 l 1
 332 -13 l 1x4f
 160 7 41 140 41 354 c 0
 41 579 173 726 382 726 c 0
 573 726 676 630 707 455 c 1
 526 448 l 1
 511 533 460 584 382 584 c 0
 277 584 220 491 220 354 c 0
 220 214 281 126 381 126 c 0x57
 467 126 514 179 527 271 c 1
 709 264 l 1
 681 99 586 1 424 -14 c 1
 414 -30 l 1
 481 -37 510 -77 510 -126 c 0
 510 -203 450 -236 378 -236 c 0xa7
EndSplineSet
EndChar

StartChar: Ccircumflex
Encoding: 264 264 18
Width: 745
GlyphClass: 2
Flags: MW
HStem: -16 142<331 424 331 473.5> 584 142<329.5 421> 761 160<203 463 301 320 444 444 444 463 301 561>
VStem: 41 179<284 422.5 284 466.5>
AnchorPoint: "Anchor-3" 382 710 basechar 0
AnchorPoint: "Anchor-0" 383 0 basechar 0
LayerCount: 2
Fore
SplineSet
203 761 m 1
 301 921 l 1
 463 921 l 1
 561 761 l 1
 444 761 l 1
 382 850 l 1
 320 761 l 1
 203 761 l 1
379 -16 m 0
 183 -16 41 121 41 354 c 0
 41 579 173 726 382 726 c 0
 573 726 676 630 707 455 c 1
 526 448 l 1
 511 533 460 584 382 584 c 0
 277 584 220 491 220 354 c 0
 220 214 281 126 381 126 c 0
 467 126 514 179 527 271 c 1
 709 264 l 1
 679 85 568 -16 379 -16 c 0
EndSplineSet
EndChar

StartChar: Cdotaccent
Encoding: 266 266 19
Width: 745
GlyphClass: 2
Flags: MW
HStem: -16 142<331 424 331 473.5> 584 142<329.5 421> 770 128<293 471 293 471>
VStem: 41 179<284 422.5 284 466.5> 293 178<770 898 770 898>
AnchorPoint: "Anchor-3" 382 710 basechar 0
AnchorPoint: "Anchor-0" 383 0 basechar 0
LayerCount: 2
Fore
SplineSet
293 770 m 1
 293 898 l 1
 471 898 l 1
 471 770 l 1
 293 770 l 1
379 -16 m 0
 183 -16 41 121 41 354 c 0
 41 579 173 726 382 726 c 0
 573 726 676 630 707 455 c 1
 526 448 l 1
 511 533 460 584 382 584 c 0
 277 584 220 491 220 354 c 0
 220 214 281 126 381 126 c 0
 467 126 514 179 527 271 c 1
 709 264 l 1
 679 85 568 -16 379 -16 c 0
EndSplineSet
Substitution2: "'ss08' Style Set 8 in Latin lookup 41 subtable" Cdotaccent.ss08
Substitution2: "'aalt' Access All Alternates in Latin lookup 0 subtable" Cdotaccent.ss08
EndChar

StartChar: D
Encoding: 68 68 20
Width: 727
GlyphClass: 2
Flags: MW
HStem: 0 142<242 321 321 327> 568 142<242 321 242 242>
VStem: 68 174<142 142 142 568> 507 179<282.5 427.5>
AnchorPoint: "Anchor-3" 326 710 basechar 0
AnchorPoint: "Anchor-1" 213 355 basechar 0
AnchorPoint: "Anchor-0" 327 0 basechar 0
LayerCount: 2
Fore
SplineSet
68 0 m 1
 68 710 l 1
 321 710 l 2
 555 710 686 582 686 354 c 0
 686 127 557 0 327 0 c 2
 68 0 l 1
242 142 m 1
 321 142 l 2
 449 142 507 210 507 355 c 0
 507 500 449 568 321 568 c 2
 242 568 l 1
 242 142 l 1
EndSplineSet
EndChar

StartChar: Dcaron
Encoding: 270 270 21
Width: 727
GlyphClass: 2
Flags: MW
HStem: 0 142<242 321 321 327> 568 142<242 321 242 242> 761 160<246 264 388 407 246 246>
VStem: 68 174<142 142 142 568> 507 179<282.5 427.5>
AnchorPoint: "Anchor-3" 326 710 basechar 0
AnchorPoint: "Anchor-1" 213 355 basechar 0
AnchorPoint: "Anchor-0" 327 0 basechar 0
LayerCount: 2
Fore
SplineSet
148 921 m 1
 264 921 l 1
 326 832 l 1
 388 921 l 1
 505 921 l 1
 407 761 l 1
 246 761 l 1
 148 921 l 1
68 0 m 1
 68 710 l 1
 321 710 l 2
 555 710 686 582 686 354 c 0
 686 127 557 0 327 0 c 2
 68 0 l 1
242 142 m 1
 321 142 l 2
 449 142 507 210 507 355 c 0
 507 500 449 568 321 568 c 2
 242 568 l 1
 242 142 l 1
EndSplineSet
EndChar

StartChar: Dcroat
Encoding: 272 272 22
Width: 727
GlyphClass: 2
Flags: MW
HStem: 0 142<242 321 321 327> 291 128<5 68 5 68 242 421> 568 142<242 321 242 242>
VStem: 68 174<142 142 142 291 142 291 419 568> 507 179<282.5 427.5>
AnchorPoint: "Anchor-3" 326 710 basechar 0
AnchorPoint: "Anchor-1" 213 355 basechar 0
AnchorPoint: "Anchor-0" 327 0 basechar 0
LayerCount: 2
Fore
SplineSet
68 0 m 1
 68 291 l 1
 5 291 l 1
 5 419 l 1
 68 419 l 1
 68 710 l 1
 321 710 l 2
 555 710 686 582 686 354 c 0
 686 127 557 0 327 0 c 2
 68 0 l 1
242 142 m 1
 321 142 l 2
 449 142 507 210 507 355 c 0
 507 500 449 568 321 568 c 2
 242 568 l 1
 242 419 l 1
 421 419 l 1
 421 291 l 1
 242 291 l 1
 242 142 l 1
EndSplineSet
EndChar

StartChar: Eth
Encoding: 208 208 23
Width: 727
GlyphClass: 2
Flags: MW
HStem: 0 142<242 321 321 327> 291 128<5 68 5 68 242 421> 568 142<242 321 242 242>
VStem: 68 174<142 142 142 291 142 291 419 568> 507 179<282.5 427.5>
AnchorPoint: "Anchor-3" 326 710 basechar 0
AnchorPoint: "Anchor-1" 213 355 basechar 0
AnchorPoint: "Anchor-0" 327 0 basechar 0
LayerCount: 2
Fore
SplineSet
68 0 m 1
 68 291 l 1
 5 291 l 1
 5 419 l 1
 68 419 l 1
 68 710 l 1
 321 710 l 2
 555 710 686 582 686 354 c 0
 686 127 557 0 327 0 c 2
 68 0 l 1
242 142 m 1
 321 142 l 2
 449 142 507 210 507 355 c 0
 507 500 449 568 321 568 c 2
 242 568 l 1
 242 419 l 1
 421 419 l 1
 421 291 l 1
 242 291 l 1
 242 142 l 1
EndSplineSet
EndChar

StartChar: E
Encoding: 69 69 24
Width: 628
GlyphClass: 2
Flags: MW
HStem: 0 142<242 586 242 586> 285 142<242 566 242 566> 568 142<242 578 242 242>
VStem: 68 174<142 285 427 568>
AnchorPoint: "Anchor-3" 323 710 basechar 0
AnchorPoint: "Anchor-2" 586 0 basechar 0
AnchorPoint: "Anchor-0" 324 0 basechar 0
LayerCount: 2
Fore
SplineSet
68 0 m 1
 68 710 l 1
 578 710 l 1
 578 568 l 1
 242 568 l 1
 242 427 l 1
 566 427 l 1
 566 285 l 1
 242 285 l 1
 242 142 l 1
 586 142 l 1
 586 0 l 1
 68 0 l 1
EndSplineSet
EndChar

StartChar: Eacute
Encoding: 201 201 25
Width: 628
GlyphClass: 2
Flags: MW
HStem: 0 142<242 586 242 586> 285 142<242 566 242 566> 568 142<242 578 242 242> 761 154<245 464 301 374>
VStem: 68 174<142 285 427 568>
AnchorPoint: "Anchor-3" 323 710 basechar 0
AnchorPoint: "Anchor-2" 586 0 basechar 0
AnchorPoint: "Anchor-0" 324 0 basechar 0
LayerCount: 2
Fore
SplineSet
245 761 m 1
 301 915 l 1
 464 915 l 1
 374 761 l 1
 245 761 l 1
68 0 m 1
 68 710 l 1
 578 710 l 1
 578 568 l 1
 242 568 l 1
 242 427 l 1
 566 427 l 1
 566 285 l 1
 242 285 l 1
 242 142 l 1
 586 142 l 1
 586 0 l 1
 68 0 l 1
EndSplineSet
EndChar

StartChar: Ecaron
Encoding: 282 282 26
Width: 628
GlyphClass: 2
Flags: MW
HStem: 0 142<242 586 242 586> 285 142<242 566 242 566> 568 142<242 578 242 242> 761 160<243 261 386 404 243 243>
VStem: 68 174<142 285 427 568>
AnchorPoint: "Anchor-3" 323 710 basechar 0
AnchorPoint: "Anchor-2" 586 0 basechar 0
AnchorPoint: "Anchor-0" 324 0 basechar 0
LayerCount: 2
Fore
SplineSet
145 921 m 1
 261 921 l 1
 323 832 l 1
 386 921 l 1
 502 921 l 1
 404 761 l 1
 243 761 l 1
 145 921 l 1
68 0 m 1
 68 710 l 1
 578 710 l 1
 578 568 l 1
 242 568 l 1
 242 427 l 1
 566 427 l 1
 566 285 l 1
 242 285 l 1
 242 142 l 1
 586 142 l 1
 586 0 l 1
 68 0 l 1
EndSplineSet
EndChar

StartChar: Ecircumflex
Encoding: 202 202 27
Width: 628
GlyphClass: 2
Flags: MW
HStem: 0 142<242 586 242 586> 285 142<242 566 242 566> 568 142<242 578 242 242> 761 160<145 404 243 261 386 386 386 404 243 502>
VStem: 68 174<142 285 427 568>
AnchorPoint: "Anchor-3" 323 710 basechar 0
AnchorPoint: "Anchor-2" 586 0 basechar 0
AnchorPoint: "Anchor-0" 324 0 basechar 0
LayerCount: 2
Fore
SplineSet
145 761 m 1
 243 921 l 1
 404 921 l 1
 502 761 l 1
 386 761 l 1
 323 850 l 1
 261 761 l 1
 145 761 l 1
68 0 m 1
 68 710 l 1
 578 710 l 1
 578 568 l 1
 242 568 l 1
 242 427 l 1
 566 427 l 1
 566 285 l 1
 242 285 l 1
 242 142 l 1
 586 142 l 1
 586 0 l 1
 68 0 l 1
EndSplineSet
EndChar

StartChar: Edieresis
Encoding: 203 203 28
Width: 628
GlyphClass: 2
Flags: MW
HStem: 0 142<242 586 242 586> 285 142<242 566 242 566> 568 142<242 578 242 242> 767 128<128 290 128 290 357 518 128 357>
VStem: 68 174<142 285 427 568> 128 162<767 895 767 895> 357 161<767 895 767 895> 357 221<568 895 568 895>
AnchorPoint: "Anchor-3" 323 710 basechar 0
AnchorPoint: "Anchor-2" 586 0 basechar 0
AnchorPoint: "Anchor-0" 324 0 basechar 0
LayerCount: 2
Fore
SplineSet
128 767 m 1xf6
 128 895 l 1
 290 895 l 1
 290 767 l 1
 128 767 l 1xf6
357 767 m 1
 357 895 l 1
 518 895 l 1
 518 767 l 1
 357 767 l 1
68 0 m 1xf9
 68 710 l 1
 578 710 l 1
 578 568 l 1
 242 568 l 1
 242 427 l 1
 566 427 l 1
 566 285 l 1
 242 285 l 1
 242 142 l 1
 586 142 l 1
 586 0 l 1
 68 0 l 1xf9
EndSplineSet
Substitution2: "'ss08' Style Set 8 in Latin lookup 41 subtable" Edieresis.ss08
Substitution2: "'aalt' Access All Alternates in Latin lookup 0 subtable" Edieresis.ss08
EndChar

StartChar: Edotaccent
Encoding: 278 278 29
Width: 628
GlyphClass: 2
Flags: MW
HStem: 0 142<242 586 242 586> 285 142<242 566 242 566> 568 142<242 578 242 242> 770 128<235 412 235 412>
VStem: 68 174<142 285 427 568> 235 177<770 898 770 898>
AnchorPoint: "Anchor-3" 323 710 basechar 0
AnchorPoint: "Anchor-2" 586 0 basechar 0
AnchorPoint: "Anchor-0" 324 0 basechar 0
LayerCount: 2
Fore
SplineSet
235 770 m 1xf4
 235 898 l 1
 412 898 l 1
 412 770 l 1
 235 770 l 1xf4
68 0 m 1xf8
 68 710 l 1
 578 710 l 1
 578 568 l 1
 242 568 l 1
 242 427 l 1
 566 427 l 1
 566 285 l 1
 242 285 l 1
 242 142 l 1
 586 142 l 1
 586 0 l 1
 68 0 l 1xf8
EndSplineSet
Substitution2: "'ss08' Style Set 8 in Latin lookup 41 subtable" Edotaccent.ss08
Substitution2: "'aalt' Access All Alternates in Latin lookup 0 subtable" Edotaccent.ss08
EndChar

StartChar: Egrave
Encoding: 200 200 30
Width: 628
GlyphClass: 2
Flags: MW
HStem: 0 142<242 586 242 586> 285 142<242 566 242 566> 568 142<242 578 242 242> 768 153<270 270 270 343 180 399>
VStem: 68 174<142 285 427 568>
AnchorPoint: "Anchor-3" 323 710 basechar 0
AnchorPoint: "Anchor-2" 586 0 basechar 0
AnchorPoint: "Anchor-0" 324 0 basechar 0
LayerCount: 2
Fore
SplineSet
270 768 m 1
 180 921 l 1
 343 921 l 1
 399 768 l 1
 270 768 l 1
68 0 m 1
 68 710 l 1
 578 710 l 1
 578 568 l 1
 242 568 l 1
 242 427 l 1
 566 427 l 1
 566 285 l 1
 242 285 l 1
 242 142 l 1
 586 142 l 1
 586 0 l 1
 68 0 l 1
EndSplineSet
EndChar

StartChar: Emacron
Encoding: 274 274 31
Width: 628
GlyphClass: 2
Flags: MW
HStem: 0 142<242 586 242 586> 285 142<242 566 242 566> 568 142<242 578 242 242> 773 122<169 478 169 478>
VStem: 68 174<142 285 427 568> 169 309<773 895 773 895>
AnchorPoint: "Anchor-3" 323 710 basechar 0
AnchorPoint: "Anchor-2" 586 0 basechar 0
AnchorPoint: "Anchor-0" 324 0 basechar 0
LayerCount: 2
Fore
SplineSet
169 773 m 1xf4
 169 895 l 1
 478 895 l 1
 478 773 l 1
 169 773 l 1xf4
68 0 m 1xf8
 68 710 l 1
 578 710 l 1
 578 568 l 1
 242 568 l 1
 242 427 l 1
 566 427 l 1
 566 285 l 1
 242 285 l 1
 242 142 l 1
 586 142 l 1
 586 0 l 1
 68 0 l 1xf8
EndSplineSet
EndChar

StartChar: Eogonek
Encoding: 280 280 32
Width: 628
GlyphClass: 2
Flags: MW
HStem: -220 97<472 559> 0 142<242 452 242 586> 285 142<242 566 242 566> 568 142<242 578 242 242>
VStem: 68 174<142 285 427 568> 390 136<-158.5 -90> 390 196<-158.5 142>
AnchorPoint: "Anchor-3" 323 710 basechar 0
AnchorPoint: "Anchor-2" 586 0 basechar 0
AnchorPoint: "Anchor-0" 324 0 basechar 0
LayerCount: 2
Fore
SplineSet
68 0 m 1xfa
 68 710 l 1
 578 710 l 1
 578 568 l 1
 242 568 l 1
 242 427 l 1
 566 427 l 1
 566 285 l 1
 242 285 l 1
 242 142 l 1
 586 142 l 1
 586 0 l 1x7a
 557 -37 l 2
 540 -61 526 -82 526 -98 c 0xfc
 526 -115 538 -123 551 -123 c 0
 567 -123 586 -117 595 -110 c 1
 623 -194 l 1
 604 -208 556 -220 510 -220 c 0
 434 -220 390 -188 390 -129 c 0
 390 -88 414 -50 437 -19 c 2
 452 0 l 1
 68 0 l 1xfa
EndSplineSet
EndChar

StartChar: uni1EBC
Encoding: 7868 7868 33
Width: 628
GlyphClass: 2
Flags: MW
HStem: 0 142<242 586 242 586> 285 142<242 566 242 566> 568 142<242 578 242 242> 764 150<226 229 147 279> 769 100<375.5 390 375.5 417> 769 152<416 417> 814 100<257 272>
VStem: 68 161<0 764 710 764> 68 174<142 285 427 568> 147 82<764 809> 416 83<921 921>
AnchorPoint: "Anchor-3" 323 710 basechar 0
AnchorPoint: "Anchor-2" 586 0 basechar 0
AnchorPoint: "Anchor-0" 324 0 basechar 0
LayerCount: 2
Fore
SplineSet
378 769 m 0xe4a0
 346 769 327 776 300 799 c 0
 288 809 278 814 266 814 c 0xe3
 248 814 233 803 229 764 c 1xf1
 147 764 l 1
 147 854 189 914 263 914 c 0xf040
 295 914 319 907 346 885 c 0
 361 874 370 869 381 869 c 0xe8a0
 399 869 414 880 416 921 c 1
 499 921 l 1
 498 828 456 769 378 769 c 0xe4a0
68 0 m 1xe080
 68 710 l 1
 578 710 l 1
 578 568 l 1
 242 568 l 1
 242 427 l 1
 566 427 l 1
 566 285 l 1
 242 285 l 1
 242 142 l 1
 586 142 l 1
 586 0 l 1
 68 0 l 1xe080
EndSplineSet
EndChar

StartChar: uni018F
Encoding: 399 399 34
Width: 772
GlyphClass: 1
Flags: MW
HStem: -16 142<341 428 341 474> 278 130<227 548 227 227> 584 142<350.5 425.5>
VStem: 41 690<351 408 408 408>
LayerCount: 2
Fore
SplineSet
731 355 m 0
 731 108 568 -16 380 -16 c 0
 198 -16 41 108 41 351 c 2
 41 408 l 1
 549 408 l 1
 535 520 472 584 379 584 c 0
 322 584 270 550 244 489 c 1
 61 498 l 1
 106 638 220 726 380 726 c 0
 583 726 731 595 731 355 c 0
382 126 m 0
 474 126 533 178 548 278 c 1
 227 278 l 1
 246 170 300 126 382 126 c 0
EndSplineSet
EndChar

StartChar: F
Encoding: 70 70 35
Width: 609
GlyphClass: 1
Flags: MW
HStem: 0 21G<68 68 68 242> 276 142<242 554 242 554> 568 142<242 572 242 242>
VStem: 68 174<0 276 418 568>
LayerCount: 2
Fore
SplineSet
68 0 m 1
 68 710 l 1
 572 710 l 1
 572 568 l 1
 242 568 l 1
 242 418 l 1
 554 418 l 1
 554 276 l 1
 242 276 l 1
 242 0 l 1
 68 0 l 1
EndSplineSet
EndChar

StartChar: G
Encoding: 71 71 36
Width: 751
GlyphClass: 2
Flags: MW
HStem: -16 142<330.5 423> 0 21G<601 705 601 601> 252 121<385 532 385 705> 584 142<331 427.5>
VStem: 41 179<286.5 421 286.5 461> 598 107
AnchorPoint: "Anchor-3" 386 710 basechar 0
AnchorPoint: "Anchor-0" 389 0 basechar 0
LayerCount: 2
Fore
SplineSet
372 -16 m 0xbc
 166 -16 41 134 41 354 c 0
 41 568 168 726 384 726 c 0
 573 726 670 630 703 472 c 1
 523 464 l 1
 510 539 469 584 386 584 c 0
 276 584 220 488 220 354 c 0
 220 219 272 126 389 126 c 0xbc
 472 126 524 176 532 252 c 1
 385 252 l 1
 385 373 l 1
 705 373 l 1
 705 0 l 1
 601 0 l 1x7c
 595 96 l 1
 558 27 474 -16 372 -16 c 0xbc
EndSplineSet
Substitution2: "'ss06' Style Set 6 in Latin lookup 39 subtable" G.ss06
Substitution2: "'aalt' Access All Alternates in Latin lookup 0 subtable" G.ss06
EndChar

StartChar: Gbreve
Encoding: 286 286 37
Width: 751
GlyphClass: 2
Flags: MW
HStem: -16 142<330.5 423> 0 21G<601 705 601 601> 252 121<385 532 385 705> 584 142<331 427.5> 760 89<367 405 367 434> 760 153<223 434>
VStem: 41 179<286.5 421 286.5 461> 598 107
AnchorPoint: "Anchor-3" 386 710 basechar 0
AnchorPoint: "Anchor-0" 389 0 basechar 0
LayerCount: 2
Fore
SplineSet
386 760 m 0xb7
 289 760 227 815 223 913 c 1xb7
 320 913 l 1
 324 867 348 849 386 849 c 0xbb
 424 849 447 867 451 913 c 1
 548 913 l 1
 544 815 482 760 386 760 c 0xb7
372 -16 m 0
 166 -16 41 134 41 354 c 0
 41 568 168 726 384 726 c 0
 573 726 670 630 703 472 c 1
 523 464 l 1
 510 539 469 584 386 584 c 0
 276 584 220 488 220 354 c 0
 220 219 272 126 389 126 c 0xbb
 472 126 524 176 532 252 c 1
 385 252 l 1
 385 373 l 1
 705 373 l 1
 705 0 l 1
 601 0 l 1x7b
 595 96 l 1
 558 27 474 -16 372 -16 c 0
EndSplineSet
Substitution2: "'ss06' Style Set 6 in Latin lookup 39 subtable" Gbreve.ss06
Substitution2: "'aalt' Access All Alternates in Latin lookup 0 subtable" Gbreve.ss06
EndChar

StartChar: Gcaron
Encoding: 486 486 38
Width: 751
GlyphClass: 2
Flags: MW
HStem: -16 142<330.5 423> 0 21G<601 705 601 601> 252 121<385 532 385 705> 584 142<331 427.5> 761 160<305 323 448 466 305 305>
VStem: 41 179<286.5 421 286.5 461> 598 107
AnchorPoint: "Anchor-3" 386 710 basechar 0
AnchorPoint: "Anchor-0" 389 0 basechar 0
LayerCount: 2
Fore
SplineSet
207 921 m 1xbe
 323 921 l 1
 386 832 l 1
 448 921 l 1
 564 921 l 1
 466 761 l 1
 305 761 l 1
 207 921 l 1xbe
372 -16 m 0
 166 -16 41 134 41 354 c 0
 41 568 168 726 384 726 c 0
 573 726 670 630 703 472 c 1
 523 464 l 1
 510 539 469 584 386 584 c 0
 276 584 220 488 220 354 c 0
 220 219 272 126 389 126 c 0xbe
 472 126 524 176 532 252 c 1
 385 252 l 1
 385 373 l 1
 705 373 l 1
 705 0 l 1
 601 0 l 1x7e
 595 96 l 1
 558 27 474 -16 372 -16 c 0
EndSplineSet
EndChar

StartChar: Gcircumflex
Encoding: 284 284 39
Width: 751
GlyphClass: 2
Flags: MW
HStem: -16 142<330.5 423> 0 21G<601 705 601 601> 252 121<385 532 385 705> 584 142<331 427.5> 761 160<207 466 305 323 448 448 448 466 305 564>
VStem: 41 179<286.5 421 286.5 461> 598 107
AnchorPoint: "Anchor-3" 386 710 basechar 0
AnchorPoint: "Anchor-0" 389 0 basechar 0
LayerCount: 2
Fore
SplineSet
207 761 m 1xbe
 305 921 l 1
 466 921 l 1
 564 761 l 1
 448 761 l 1
 386 850 l 1
 323 761 l 1
 207 761 l 1xbe
372 -16 m 0
 166 -16 41 134 41 354 c 0
 41 568 168 726 384 726 c 0
 573 726 670 630 703 472 c 1
 523 464 l 1
 510 539 469 584 386 584 c 0
 276 584 220 488 220 354 c 0
 220 219 272 126 389 126 c 0xbe
 472 126 524 176 532 252 c 1
 385 252 l 1
 385 373 l 1
 705 373 l 1
 705 0 l 1
 601 0 l 1x7e
 595 96 l 1
 558 27 474 -16 372 -16 c 0
EndSplineSet
Substitution2: "'ss06' Style Set 6 in Latin lookup 39 subtable" Gcircumflex.ss06
Substitution2: "'aalt' Access All Alternates in Latin lookup 0 subtable" Gcircumflex.ss06
EndChar

StartChar: uni0122
Encoding: 290 290 40
Width: 751
GlyphClass: 2
Flags: MW
HStem: -173 126<319 354 319 459> -16 142<330.5 423> 0 21G<601 705 601 601> 252 121<385 532 385 705> 584 142<331 427.5>
VStem: 41 179<286.5 421 286.5 461> 319 140<-160 -47 -160 -47 -160 -47> 598 107
AnchorPoint: "Anchor-3" 386 710 basechar 0
AnchorPoint: "Anchor-0" 389 -258 basechar 0
LayerCount: 2
Fore
SplineSet
372 -16 m 0xdf
 166 -16 41 134 41 354 c 0
 41 568 168 726 384 726 c 0
 573 726 670 630 703 472 c 1
 523 464 l 1
 510 539 469 584 386 584 c 0
 276 584 220 488 220 354 c 0
 220 219 272 126 389 126 c 0xdf
 472 126 524 176 532 252 c 1
 385 252 l 1
 385 373 l 1
 705 373 l 1
 705 0 l 1
 601 0 l 1xbf
 595 96 l 1
 558 27 474 -16 372 -16 c 0xdf
303 -258 m 1
 354 -173 l 1
 319 -173 l 1
 319 -47 l 1
 459 -47 l 1
 459 -160 l 1
 401 -258 l 1
 303 -258 l 1
EndSplineSet
Substitution2: "'ss06' Style Set 6 in Latin lookup 39 subtable" uni0122.ss06
Substitution2: "'aalt' Access All Alternates in Latin lookup 0 subtable" uni0122.ss06
EndChar

StartChar: Gdotaccent
Encoding: 288 288 41
Width: 751
GlyphClass: 2
Flags: MW
HStem: -16 142<330.5 423> 0 21G<601 705 601 601> 252 121<385 532 385 705> 584 142<331 427.5> 770 128<297 474 297 474>
VStem: 41 179<286.5 421 286.5 461> 297 177<770 898 770 898> 598 107
AnchorPoint: "Anchor-3" 386 710 basechar 0
AnchorPoint: "Anchor-0" 389 0 basechar 0
LayerCount: 2
Fore
SplineSet
297 770 m 1xbf
 297 898 l 1
 474 898 l 1
 474 770 l 1
 297 770 l 1xbf
372 -16 m 0
 166 -16 41 134 41 354 c 0
 41 568 168 726 384 726 c 0
 573 726 670 630 703 472 c 1
 523 464 l 1
 510 539 469 584 386 584 c 0
 276 584 220 488 220 354 c 0
 220 219 272 126 389 126 c 0xbf
 472 126 524 176 532 252 c 1
 385 252 l 1
 385 373 l 1
 705 373 l 1
 705 0 l 1
 601 0 l 1x7f
 595 96 l 1
 558 27 474 -16 372 -16 c 0
EndSplineSet
Substitution2: "'ss08' Style Set 8 in Latin lookup 41 subtable" Gdotaccent.ss08
Substitution2: "'ss06' Style Set 6 in Latin lookup 39 subtable" Gdotaccent.ss06
AlternateSubs2: "'aalt' Access All Alternates in Latin lookup 1 subtable" Gdotaccent.ss06 Gdotaccent.ss08
EndChar

StartChar: uni1E20
Encoding: 7712 7712 42
Width: 751
GlyphClass: 2
Flags: MW
HStem: -16 142<330.5 423> 0 21G<601 705 601 601> 252 121<385 532 385 705> 584 142<331 427.5> 773 122<231 540 231 540>
VStem: 41 179<286.5 421 286.5 461> 231 309<773 895 773 895> 598 107
AnchorPoint: "Anchor-3" 386 710 basechar 0
AnchorPoint: "Anchor-0" 389 0 basechar 0
LayerCount: 2
Fore
SplineSet
231 773 m 1xbb
 231 895 l 1
 540 895 l 1
 540 773 l 1
 231 773 l 1xbb
372 -16 m 0
 166 -16 41 134 41 354 c 0
 41 568 168 726 384 726 c 0
 573 726 670 630 703 472 c 1
 523 464 l 1
 510 539 469 584 386 584 c 0
 276 584 220 488 220 354 c 0
 220 219 272 126 389 126 c 0xbd
 472 126 524 176 532 252 c 1
 385 252 l 1
 385 373 l 1
 705 373 l 1
 705 0 l 1
 601 0 l 1x7d
 595 96 l 1
 558 27 474 -16 372 -16 c 0
EndSplineSet
Substitution2: "'ss06' Style Set 6 in Latin lookup 39 subtable" uni1E20.ss06
Substitution2: "'aalt' Access All Alternates in Latin lookup 0 subtable" uni1E20.ss06
EndChar

StartChar: uni01E4
Encoding: 484 484 43
Width: 791
GlyphClass: 2
Flags: MW
HStem: -16 142<329 411 329 458.5> 175 74<385 504 385 530 699 755> 287 86<385 532 385 705> 584 142<330 429.5>
VStem: 41 179<286.5 421 286.5 460.5> 385 320<175 331 249 331 316.5 331 331 373 316.5 373> 532 173<280 331>
AnchorPoint: "Anchor-3" 391 710 basechar 0
AnchorPoint: "Anchor-0" 389 0 basechar 0
LayerCount: 2
Fore
SplineSet
387 -16 m 0xfa
 156 -16 41 142 41 354 c 0
 41 567 166 726 391 726 c 0
 567 726 674 631 703 472 c 1
 523 464 l 1
 510 539 472 584 387 584 c 0
 273 584 220 488 220 354 c 0
 220 219 275 126 383 126 c 0
 439 126 479 142 504 175 c 1
 385 175 l 1
 385 249 l 1
 530 249 l 1xfa
 531 261 532 273 532 287 c 1
 385 287 l 1
 385 373 l 1xfc
 705 373 l 1
 705 331 l 2
 705 302 703 274 699 249 c 1
 755 249 l 1
 755 175 l 1
 682 175 l 1
 636 47 530 -16 387 -16 c 0xfa
EndSplineSet
EndChar

StartChar: H
Encoding: 72 72 44
Width: 724
GlyphClass: 2
Flags: MW
HStem: 0 21G<68 68 68 242 482 482 482 656> 286 143<242 482 242 482> 690 20G<68 242 242 242 482 656 656 656>
VStem: 68 174<0 286 429 710> 482 174<0 286 286 286 429 710 0 710>
AnchorPoint: "Anchor-3" 362 710 basechar 0
AnchorPoint: "Anchor-1" 362 578 basechar 0
AnchorPoint: "Anchor-0" 362 0 basechar 0
LayerCount: 2
Fore
SplineSet
68 0 m 1
 68 710 l 1
 242 710 l 1
 242 429 l 1
 482 429 l 1
 482 710 l 1
 656 710 l 1
 656 0 l 1
 482 0 l 1
 482 286 l 1
 242 286 l 1
 242 0 l 1
 68 0 l 1
EndSplineSet
EndChar

StartChar: Hbar
Encoding: 294 294 45
Width: 724
GlyphClass: 2
Flags: MW
HStem: 0 21G<68 68 68 242 482 482 482 656> 286 143<242 482 242 482> 517 121<-2 68 -2 68 242 482 656 726> 517 193<-2 242 -2 242 68 242 68 482>
VStem: 68 174<0 286 429 517 638 710> 482 174<0 286 286 286 429 517 0 517 638 710>
AnchorPoint: "Anchor-3" 362 710 basechar 0
AnchorPoint: "Anchor-1" 362 578 basechar 0
AnchorPoint: "Anchor-0" 362 0 basechar 0
LayerCount: 2
Fore
SplineSet
68 0 m 1xdc
 68 517 l 1
 -2 517 l 1xdc
 -2 638 l 1
 68 638 l 1xec
 68 710 l 1
 242 710 l 1xdc
 242 638 l 1
 482 638 l 1xec
 482 710 l 1
 656 710 l 1xdc
 656 638 l 1
 726 638 l 1xec
 726 517 l 1
 656 517 l 1
 656 0 l 1
 482 0 l 1
 482 286 l 1
 242 286 l 1
 242 0 l 1
 68 0 l 1xdc
242 429 m 1
 482 429 l 1
 482 517 l 1
 242 517 l 1
 242 429 l 1
EndSplineSet
EndChar

StartChar: Hcircumflex
Encoding: 292 292 46
Width: 724
GlyphClass: 2
Flags: MW
HStem: 0 21G<68 68 68 242 482 482 482 656> 286 143<242 482 242 482> 690 20G<68 242 242 242 482 656 656 656> 761 160<183 442 281 300 424 424 424 442 281 540>
VStem: 68 174<0 286 429 710> 482 174<0 286 286 286 429 710 0 710>
AnchorPoint: "Anchor-3" 362 710 basechar 0
AnchorPoint: "Anchor-1" 362 578 basechar 0
AnchorPoint: "Anchor-0" 362 0 basechar 0
LayerCount: 2
Fore
SplineSet
183 761 m 1
 281 921 l 1
 442 921 l 1
 540 761 l 1
 424 761 l 1
 362 850 l 1
 300 761 l 1
 183 761 l 1
68 0 m 1
 68 710 l 1
 242 710 l 1
 242 429 l 1
 482 429 l 1
 482 710 l 1
 656 710 l 1
 656 0 l 1
 482 0 l 1
 482 286 l 1
 242 286 l 1
 242 0 l 1
 68 0 l 1
EndSplineSet
EndChar

StartChar: I
Encoding: 73 73 47
Width: 310
GlyphClass: 2
Flags: MW
HStem: 0 21G<68 68 68 242> 690 20G<68 242 242 242>
VStem: 68 174<0 710 0 710>
AnchorPoint: "Anchor-3" 155 710 basechar 0
AnchorPoint: "Anchor-2" 242 0 basechar 0
AnchorPoint: "Anchor-0" 155 0 basechar 0
LayerCount: 2
Fore
SplineSet
68 0 m 1
 68 710 l 1
 242 710 l 1
 242 0 l 1
 68 0 l 1
EndSplineSet
Substitution2: "'ss05' Style Set 5 in Latin lookup 38 subtable" I.ss05
Substitution2: "'aalt' Access All Alternates in Latin lookup 0 subtable" I.ss05
EndChar

StartChar: IJ
Encoding: 306 306 48
Width: 935
GlyphClass: 2
Flags: MW
HStem: -16 142<583 642.5 583 693> 0 21G<68 68 68 242> 690 20G<68 242 242 242 708 882 882 882>
VStem: 68 174<0 710 0 710> 341 174<260 268> 708 174<258 710>
AnchorPoint: "Anchor-3" 795 710 basechar 0
AnchorPoint: "Anchor-2" 242 0 basechar 0
AnchorPoint: "Anchor-0" 155 0 basechar 0
LayerCount: 2
Fore
SplineSet
68 0 m 1x74
 68 710 l 1
 242 710 l 1
 242 0 l 1
 68 0 l 1x74
613 -16 m 0
 436 -16 343 101 341 260 c 1
 515 268 l 1
 517 169 553 126 613 126 c 0
 672 126 708 167 708 258 c 2
 708 710 l 1
 882 710 l 1
 882 258 l 2xbc
 882 91 773 -16 613 -16 c 0
EndSplineSet
EndChar

StartChar: Iacute
Encoding: 205 205 49
Width: 310
GlyphClass: 2
Flags: MW
HStem: 0 21G<68 68 68 242> 690 20G<68 242 242 242> 761 154<76 296 133 206>
VStem: 68 174<0 710 0 710>
AnchorPoint: "Anchor-3" 155 710 basechar 0
AnchorPoint: "Anchor-2" 242 0 basechar 0
AnchorPoint: "Anchor-0" 155 0 basechar 0
LayerCount: 2
Fore
SplineSet
76 761 m 1
 133 915 l 1
 296 915 l 1
 206 761 l 1
 76 761 l 1
68 0 m 1
 68 710 l 1
 242 710 l 1
 242 0 l 1
 68 0 l 1
EndSplineSet
Substitution2: "'ss05' Style Set 5 in Latin lookup 38 subtable" Iacute.ss05
Substitution2: "'aalt' Access All Alternates in Latin lookup 0 subtable" Iacute.ss05
EndChar

StartChar: Icircumflex
Encoding: 206 206 50
Width: 310
GlyphClass: 2
Flags: MW
HStem: 0 21G<68 68 68 242> 690 20G<68 242 242 242> 761 160<-24 236 74 93 217 217 217 236 74 334>
VStem: 68 174<0 710 0 710>
AnchorPoint: "Anchor-3" 155 710 basechar 0
AnchorPoint: "Anchor-2" 242 0 basechar 0
AnchorPoint: "Anchor-0" 155 0 basechar 0
LayerCount: 2
Fore
SplineSet
-24 761 m 1
 74 921 l 1
 236 921 l 1
 334 761 l 1
 217 761 l 1
 155 850 l 1
 93 761 l 1
 -24 761 l 1
68 0 m 1
 68 710 l 1
 242 710 l 1
 242 0 l 1
 68 0 l 1
EndSplineSet
Substitution2: "'ss05' Style Set 5 in Latin lookup 38 subtable" Icircumflex.ss05
Substitution2: "'aalt' Access All Alternates in Latin lookup 0 subtable" Icircumflex.ss05
EndChar

StartChar: Idieresis
Encoding: 207 207 51
Width: 310
GlyphClass: 2
Flags: MW
HStem: 0 21G<68 68 68 242> 690 20G<68 242 242 242> 767 128<-40 122 -40 122 188 350 -40 188>
VStem: -40 162<767 895 767 895> 68 54 68 174<0 710 0 710> 188 54 188 162<767 895 767 895>
AnchorPoint: "Anchor-3" 155 710 basechar 0
AnchorPoint: "Anchor-2" 242 0 basechar 0
AnchorPoint: "Anchor-0" 155 0 basechar 0
LayerCount: 2
Fore
SplineSet
-40 767 m 1xf0
 -40 895 l 1xf2
 122 895 l 1
 122 767 l 1xe8
 -40 767 l 1xf0
188 767 m 1
 188 895 l 1xe2
 350 895 l 1
 350 767 l 1xe1
 188 767 l 1
68 0 m 1xe4
 68 710 l 1
 242 710 l 1
 242 0 l 1
 68 0 l 1xe4
EndSplineSet
Substitution2: "'ss08' Style Set 8 in Latin lookup 41 subtable" Idieresis.ss08
Substitution2: "'ss05' Style Set 5 in Latin lookup 38 subtable" Idieresis.ss05
AlternateSubs2: "'aalt' Access All Alternates in Latin lookup 1 subtable" Idieresis.ss05 Idieresis.ss08
EndChar

StartChar: Idotaccent
Encoding: 304 304 52
Width: 310
GlyphClass: 2
Flags: MW
HStem: 0 21G<68 68 68 242> 690 20G<68 242 242 242> 770 128<66 244 66 244>
VStem: 66 176<0 898> 68 174<0 710 0 710> 68 176<0 898 710 898>
AnchorPoint: "Anchor-3" 155 710 basechar 0
AnchorPoint: "Anchor-2" 242 0 basechar 0
AnchorPoint: "Anchor-0" 155 0 basechar 0
LayerCount: 2
Fore
SplineSet
66 770 m 1xf0
 66 898 l 1xf0
 244 898 l 1
 244 770 l 1xe4
 66 770 l 1xf0
68 0 m 1xe8
 68 710 l 1
 242 710 l 1
 242 0 l 1
 68 0 l 1xe8
EndSplineSet
Substitution2: "'ss08' Style Set 8 in Latin lookup 41 subtable" Idotaccent.ss08
Substitution2: "'ss05' Style Set 5 in Latin lookup 38 subtable" Idotaccent.ss05
AlternateSubs2: "'aalt' Access All Alternates in Latin lookup 1 subtable" Idotaccent.ss05 Idotaccent.ss08
EndChar

StartChar: Igrave
Encoding: 204 204 53
Width: 310
GlyphClass: 2
Flags: MW
HStem: 0 21G<68 68 68 242> 690 20G<68 242 242 242> 768 153<102 102 102 174 12 231>
VStem: 68 174<0 710 0 710>
AnchorPoint: "Anchor-3" 155 710 basechar 0
AnchorPoint: "Anchor-2" 242 0 basechar 0
AnchorPoint: "Anchor-0" 155 0 basechar 0
LayerCount: 2
Fore
SplineSet
102 768 m 1
 12 921 l 1
 174 921 l 1
 231 768 l 1
 102 768 l 1
68 0 m 1
 68 710 l 1
 242 710 l 1
 242 0 l 1
 68 0 l 1
EndSplineSet
Substitution2: "'ss05' Style Set 5 in Latin lookup 38 subtable" Igrave.ss05
Substitution2: "'aalt' Access All Alternates in Latin lookup 0 subtable" Igrave.ss05
EndChar

StartChar: Imacron
Encoding: 298 298 54
Width: 310
GlyphClass: 2
Flags: MW
HStem: 0 21G<68 68 68 242> 690 20G<68 242 242 242> 773 122<0 310 0 310>
VStem: 68 174<0 710 0 710>
AnchorPoint: "Anchor-3" 155 710 basechar 0
AnchorPoint: "Anchor-2" 242 0 basechar 0
AnchorPoint: "Anchor-0" 155 0 basechar 0
LayerCount: 2
Fore
SplineSet
0 773 m 1
 0 895 l 1
 310 895 l 1
 310 773 l 1
 0 773 l 1
68 0 m 1
 68 710 l 1
 242 710 l 1
 242 0 l 1
 68 0 l 1
EndSplineSet
Substitution2: "'ss05' Style Set 5 in Latin lookup 38 subtable" Imacron.ss05
Substitution2: "'aalt' Access All Alternates in Latin lookup 0 subtable" Imacron.ss05
EndChar

StartChar: Iogonek
Encoding: 302 302 55
Width: 310
GlyphClass: 2
Flags: MW
HStem: -220 97<128 215> 0 21G<68 68 68 108 242 242> 690 20G<68 242 242 242>
VStem: 46 136<-158.5 -90> 68 114<-106.5 710> 68 174<0 710 0 710>
AnchorPoint: "Anchor-3" 155 710 basechar 0
AnchorPoint: "Anchor-2" 242 0 basechar 0
AnchorPoint: "Anchor-0" 155 0 basechar 0
LayerCount: 2
Fore
SplineSet
68 0 m 1xe4
 68 710 l 1
 242 710 l 1
 242 0 l 1xe4
 213 -37 l 2
 196 -61 182 -82 182 -98 c 0xe8
 182 -115 194 -123 207 -123 c 0
 223 -123 242 -117 251 -110 c 1
 279 -194 l 1
 260 -208 212 -220 166 -220 c 0
 90 -220 46 -188 46 -129 c 0xf0
 46 -88 70 -50 93 -19 c 2
 108 0 l 1
 68 0 l 1xe4
EndSplineSet
Substitution2: "'ss05' Style Set 5 in Latin lookup 38 subtable" Iogonek.ss05
Substitution2: "'aalt' Access All Alternates in Latin lookup 0 subtable" Iogonek.ss05
EndChar

StartChar: Itilde
Encoding: 296 296 56
Width: 310
GlyphClass: 2
Flags: MW
HStem: 0 21G<68 68 68 242> 690 20G<68 242 242 242> 764 150<57 61 -21 110> 769 100<206.5 221.5 206.5 249> 769 152<248 249> 814 100<89 104>
VStem: -21 82<764 809> 68 174<0 710 0 710> 248 82<874.5 921>
AnchorPoint: "Anchor-3" 155 710 basechar 0
AnchorPoint: "Anchor-2" 242 0 basechar 0
AnchorPoint: "Anchor-0" 155 0 basechar 0
LayerCount: 2
Fore
SplineSet
210 769 m 0xc880
 178 769 159 776 132 799 c 0
 119 809 110 814 98 814 c 0xc6
 80 814 65 803 61 764 c 1
 -21 764 l 1
 -21 854 20 914 94 914 c 0xe2
 126 914 151 907 178 885 c 0
 192 874 201 869 212 869 c 0xd080
 231 869 246 880 248 921 c 1
 330 921 l 1
 330 828 288 769 210 769 c 0xc880
68 0 m 1xe1
 68 710 l 1
 242 710 l 1
 242 0 l 1
 68 0 l 1xe1
EndSplineSet
Substitution2: "'ss05' Style Set 5 in Latin lookup 38 subtable" Itilde.ss05
Substitution2: "'aalt' Access All Alternates in Latin lookup 0 subtable" Itilde.ss05
EndChar

StartChar: J
Encoding: 74 74 57
Width: 637
GlyphClass: 2
Flags: MW
HStem: -16 142<285 344.5 285 395> 690 20G<410 584 584 584>
VStem: 43 174<260 268> 410 174<258 710>
AnchorPoint: "Anchor-3" 497 710 basechar 0
LayerCount: 2
Fore
SplineSet
315 -16 m 0
 138 -16 45 101 43 260 c 1
 217 268 l 1
 219 169 255 126 315 126 c 0
 374 126 410 167 410 258 c 2
 410 710 l 1
 584 710 l 1
 584 258 l 2
 584 91 475 -16 315 -16 c 0
EndSplineSet
Substitution2: "Single Substitution lookup 16 subtable" uni004A0301
Substitution2: "'aalt' Access All Alternates in Latin lookup 0 subtable" uni004A0301
EndChar

StartChar: uni004A0301
Encoding: 65537 -1 58
Width: 637
GlyphClass: 2
Flags: MW
HStem: -16 142<285 344.5 285 395> 690 20G<410 584 584 584> 761 154<419 638 475 548>
VStem: 43 174<260 268> 410 174<258 710>
AnchorPoint: "Anchor-3" 497 710 basechar 0
LayerCount: 2
Fore
SplineSet
419 761 m 1
 475 915 l 1
 638 915 l 1
 548 761 l 1
 419 761 l 1
315 -16 m 0
 138 -16 45 101 43 260 c 1
 217 268 l 1
 219 169 255 126 315 126 c 0
 374 126 410 167 410 258 c 2
 410 710 l 1
 584 710 l 1
 584 258 l 2
 584 91 475 -16 315 -16 c 0
EndSplineSet
EndChar

StartChar: Jcircumflex
Encoding: 308 308 59
Width: 637
GlyphClass: 2
Flags: MW
HStem: -16 142<285 344.5 285 395> 690 20G<410 584 584 584> 761 160<319 578 417 435 559 559 559 578 417 676>
VStem: 43 174<260 268> 410 174<258 710>
AnchorPoint: "Anchor-3" 497 710 basechar 0
LayerCount: 2
Fore
SplineSet
319 761 m 1
 417 921 l 1
 578 921 l 1
 676 761 l 1
 559 761 l 1
 497 850 l 1
 435 761 l 1
 319 761 l 1
315 -16 m 0
 138 -16 45 101 43 260 c 1
 217 268 l 1
 219 169 255 126 315 126 c 0
 374 126 410 167 410 258 c 2
 410 710 l 1
 584 710 l 1
 584 258 l 2
 584 91 475 -16 315 -16 c 0
EndSplineSet
EndChar

StartChar: K
Encoding: 75 75 60
Width: 705
GlyphClass: 2
Flags: MW
HStem: 0 21G<68 68 68 242 499 499 499 694> 690 20G<68 242 242 242 479 679 679 679>
VStem: 68 174<0 199 415 710>
AnchorPoint: "Anchor-3" 352 710 basechar 0
AnchorPoint: "Anchor-0" 361 0 basechar 0
LayerCount: 2
Fore
SplineSet
68 0 m 1
 68 710 l 1
 242 710 l 1
 242 415 l 1
 479 710 l 1
 679 710 l 1
 424 395 l 1
 694 0 l 1
 499 0 l 1
 310 280 l 1
 242 199 l 1
 242 0 l 1
 68 0 l 1
EndSplineSet
EndChar

StartChar: uni01E8
Encoding: 488 488 61
Width: 705
GlyphClass: 2
Flags: MW
HStem: 0 21G<68 68 68 242 499 499 499 694> 690 20G<68 242 242 242 479 679 679 679> 761 160<271 290 414 433 271 271>
VStem: 68 174<0 199 415 710>
AnchorPoint: "Anchor-3" 352 710 basechar 0
AnchorPoint: "Anchor-0" 361 0 basechar 0
LayerCount: 2
Fore
SplineSet
173 921 m 1
 290 921 l 1
 352 832 l 1
 414 921 l 1
 531 921 l 1
 433 761 l 1
 271 761 l 1
 173 921 l 1
68 0 m 1
 68 710 l 1
 242 710 l 1
 242 415 l 1
 479 710 l 1
 679 710 l 1
 424 395 l 1
 694 0 l 1
 499 0 l 1
 310 280 l 1
 242 199 l 1
 242 0 l 1
 68 0 l 1
EndSplineSet
EndChar

StartChar: uni0136
Encoding: 310 310 62
Width: 705
GlyphClass: 2
Flags: MW
HStem: -173 126<291 325 291 431> 0 21G<68 68 68 242 499 499 499 694> 690 20G<68 242 242 242 479 679 679 679>
VStem: 68 174<0 199 415 710> 291 140<-160 -47 -160 -47 -160 -47>
AnchorPoint: "Anchor-3" 352 710 basechar 0
AnchorPoint: "Anchor-0" 361 -258 basechar 0
LayerCount: 2
Fore
SplineSet
68 0 m 1
 68 710 l 1
 242 710 l 1
 242 415 l 1
 479 710 l 1
 679 710 l 1
 424 395 l 1
 694 0 l 1
 499 0 l 1
 310 280 l 1
 242 199 l 1
 242 0 l 1
 68 0 l 1
274 -258 m 1
 325 -173 l 1
 291 -173 l 1
 291 -47 l 1
 431 -47 l 1
 431 -160 l 1
 372 -258 l 1
 274 -258 l 1
EndSplineSet
EndChar

StartChar: L
Encoding: 76 76 63
Width: 592
GlyphClass: 2
Flags: MW
HStem: 0 142<242 560 242 560> 690 20G<68 242 242 242>
VStem: 68 174<142 710 142 710 142 710>
AnchorPoint: "Anchor-4" 356 538 basechar 0
AnchorPoint: "Anchor-3" 155 710 basechar 0
AnchorPoint: "Anchor-1" 187 380 basechar 0
AnchorPoint: "Anchor-0" 314 0 basechar 0
LayerCount: 2
Fore
SplineSet
68 0 m 1
 68 710 l 1
 242 710 l 1
 242 142 l 1
 560 142 l 1
 560 0 l 1
 68 0 l 1
EndSplineSet
EndChar

StartChar: Lacute
Encoding: 313 313 64
Width: 592
GlyphClass: 2
Flags: MW
HStem: 0 142<242 560 242 560> 690 20G<68 242 242 242> 761 154<76 296 133 206>
VStem: 68 174<142 710 142 710 142 710>
AnchorPoint: "Anchor-4" 356 538 basechar 0
AnchorPoint: "Anchor-3" 155 710 basechar 0
AnchorPoint: "Anchor-1" 187 380 basechar 0
AnchorPoint: "Anchor-0" 314 0 basechar 0
LayerCount: 2
Fore
SplineSet
76 761 m 1
 133 915 l 1
 296 915 l 1
 206 761 l 1
 76 761 l 1
68 0 m 1
 68 710 l 1
 242 710 l 1
 242 142 l 1
 560 142 l 1
 560 0 l 1
 68 0 l 1
EndSplineSet
EndChar

StartChar: Lcaron
Encoding: 317 317 65
Width: 592
GlyphClass: 2
Flags: MW
HStem: 0 142<242 560 242 560> 413 297<68 376 404 494> 690 20G<68 242 242 242 404 549 549 549>
VStem: 68 174<142 710 142 710 142 710>
AnchorPoint: "Anchor-4" 356 538 basechar 0
AnchorPoint: "Anchor-3" 155 710 basechar 0
AnchorPoint: "Anchor-1" 187 380 basechar 0
AnchorPoint: "Anchor-0" 314 0 basechar 0
LayerCount: 2
Fore
SplineSet
68 0 m 1xb0
 68 710 l 1
 242 710 l 1
 242 142 l 1
 560 142 l 1
 560 0 l 1
 68 0 l 1xb0
376 413 m 1xd0
 404 710 l 1
 549 710 l 1
 494 413 l 1
 376 413 l 1xd0
EndSplineSet
EndChar

StartChar: uni013B
Encoding: 315 315 66
Width: 592
GlyphClass: 2
Flags: MW
HStem: -173 126<244 278 244 384> 0 142<242 560 242 560> 690 20G<68 242 242 242>
VStem: 68 174<142 710 142 710 142 710> 244 140<-160 -47 -160 -47 -160 -47>
AnchorPoint: "Anchor-4" 356 538 basechar 0
AnchorPoint: "Anchor-3" 155 710 basechar 0
AnchorPoint: "Anchor-1" 187 380 basechar 0
AnchorPoint: "Anchor-0" 314 -258 basechar 0
LayerCount: 2
Fore
SplineSet
68 0 m 1
 68 710 l 1
 242 710 l 1
 242 142 l 1
 560 142 l 1
 560 0 l 1
 68 0 l 1
227 -258 m 1
 278 -173 l 1
 244 -173 l 1
 244 -47 l 1
 384 -47 l 1
 384 -160 l 1xe8
 325 -258 l 1
 227 -258 l 1
EndSplineSet
Substitution2: "'locl' Localized Forms in Latin lookup 11 subtable" uni013B.loclMAH
Substitution2: "'aalt' Access All Alternates in Latin lookup 0 subtable" uni013B.loclMAH
EndChar

StartChar: Lslash
Encoding: 321 321 67
Width: 592
GlyphClass: 2
Flags: MW
HStem: 0 142<242 560 242 560> 690 20G<68 242 242 242>
VStem: 68 174<142 268 268 268 461 710>
AnchorPoint: "Anchor-4" 356 538 basechar 0
AnchorPoint: "Anchor-3" 155 710 basechar 0
AnchorPoint: "Anchor-1" 187 380 basechar 0
AnchorPoint: "Anchor-0" 314 0 basechar 0
LayerCount: 2
Fore
SplineSet
68 0 m 1
 68 268 l 1
 0 236 l 1
 0 347 l 1
 68 379 l 1
 68 710 l 1
 242 710 l 1
 242 461 l 1
 374 524 l 1
 374 412 l 1
 242 350 l 1
 242 142 l 1
 560 142 l 1
 560 0 l 1
 68 0 l 1
EndSplineSet
EndChar

StartChar: M
Encoding: 77 77 68
Width: 927
GlyphClass: 2
Flags: MW
HStem: 0 21G<68 68 68 242 685 685 685 859> 690 20G<68 298 298 298 629 859 859 859>
VStem: 68 174<0 430 0 710> 685 174<0 430 430 430>
AnchorPoint: "Anchor-3" 464 710 basechar 0
AnchorPoint: "Anchor-0" 464 0 basechar 0
LayerCount: 2
Fore
SplineSet
68 0 m 1
 68 710 l 1
 298 710 l 1
 464 226 l 1
 629 710 l 1
 859 710 l 1
 859 0 l 1
 685 0 l 1
 685 430 l 1
 530 2 l 1
 396 2 l 1
 242 430 l 1
 242 0 l 1
 68 0 l 1
EndSplineSet
EndChar

StartChar: N
Encoding: 78 78 69
Width: 753
GlyphClass: 2
Flags: MW
HStem: 0 21G<68 68 68 242 501 501 501 685> 690 20G<68 251 251 251 511 685 685 685>
VStem: 68 174<0 426 0 710> 511 174<265 710 0 710>
AnchorPoint: "Anchor-3" 380 710 basechar 0
AnchorPoint: "Anchor-0" 373 0 basechar 0
LayerCount: 2
Fore
SplineSet
68 0 m 1
 68 710 l 1
 251 710 l 1
 511 265 l 1
 511 710 l 1
 685 710 l 1
 685 0 l 1
 501 0 l 1
 242 426 l 1
 242 0 l 1
 68 0 l 1
EndSplineSet
EndChar

StartChar: Nacute
Encoding: 323 323 70
Width: 753
GlyphClass: 2
Flags: MW
HStem: 0 21G<68 68 68 242 501 501 501 685> 690 20G<68 251 251 251 511 685 685 685> 761 154<301 520 357 430>
VStem: 68 174<0 426 0 710> 511 174<265 710 0 710>
AnchorPoint: "Anchor-3" 380 710 basechar 0
AnchorPoint: "Anchor-0" 373 0 basechar 0
LayerCount: 2
Fore
SplineSet
301 761 m 1
 357 915 l 1
 520 915 l 1
 430 761 l 1
 301 761 l 1
68 0 m 1
 68 710 l 1
 251 710 l 1
 511 265 l 1
 511 710 l 1
 685 710 l 1
 685 0 l 1
 501 0 l 1
 242 426 l 1
 242 0 l 1
 68 0 l 1
EndSplineSet
EndChar

StartChar: Ncaron
Encoding: 327 327 71
Width: 753
GlyphClass: 2
Flags: MW
HStem: 0 21G<68 68 68 242 501 501 501 685> 690 20G<68 251 251 251 511 685 685 685> 761 160<299 317 442 460 299 299>
VStem: 68 174<0 426 0 710> 511 174<265 710 0 710>
AnchorPoint: "Anchor-3" 380 710 basechar 0
AnchorPoint: "Anchor-0" 373 0 basechar 0
LayerCount: 2
Fore
SplineSet
201 921 m 1
 317 921 l 1
 380 832 l 1
 442 921 l 1
 558 921 l 1
 460 761 l 1
 299 761 l 1
 201 921 l 1
68 0 m 1
 68 710 l 1
 251 710 l 1
 511 265 l 1
 511 710 l 1
 685 710 l 1
 685 0 l 1
 501 0 l 1
 242 426 l 1
 242 0 l 1
 68 0 l 1
EndSplineSet
EndChar

StartChar: uni0145
Encoding: 325 325 72
Width: 753
GlyphClass: 2
Flags: MW
HStem: -173 126<303 337 303 443> 0 21G<68 68 68 242 501 501 501 685> 690 20G<68 251 251 251 511 685 685 685>
VStem: 68 174<0 426 0 710> 303 140<-160 -47 -160 -47 -160 -47> 511 174<265 710 0 710>
AnchorPoint: "Anchor-3" 380 710 basechar 0
AnchorPoint: "Anchor-0" 373 -258 basechar 0
LayerCount: 2
Fore
SplineSet
68 0 m 1
 68 710 l 1
 251 710 l 1
 511 265 l 1
 511 710 l 1
 685 710 l 1
 685 0 l 1
 501 0 l 1
 242 426 l 1
 242 0 l 1
 68 0 l 1
286 -258 m 1
 337 -173 l 1
 303 -173 l 1
 303 -47 l 1
 443 -47 l 1
 443 -160 l 1
 384 -258 l 1
 286 -258 l 1
EndSplineSet
Substitution2: "'locl' Localized Forms in Latin lookup 11 subtable" uni0145.loclMAH
Substitution2: "'aalt' Access All Alternates in Latin lookup 0 subtable" uni0145.loclMAH
EndChar

StartChar: Ntilde
Encoding: 209 209 73
Width: 753
GlyphClass: 2
Flags: MW
HStem: 0 21G<68 68 68 242 501 501 501 685> 690 20G<68 251 251 251 511 685 685 685> 764 150<282 286 203 335> 769 100<431.5 446.5 431.5 473.5> 769 152<473 473.5> 814 100<313.5 328>
VStem: 68 174<0 426 0 710> 203 83<764 764> 473 82<921 921> 511 174<265 710 0 710>
AnchorPoint: "Anchor-3" 380 710 basechar 0
AnchorPoint: "Anchor-0" 373 0 basechar 0
LayerCount: 2
Fore
SplineSet
435 769 m 0xca80
 402 769 383 776 357 799 c 0
 344 809 334 814 322 814 c 0xc540
 305 814 289 803 286 764 c 1
 203 764 l 1
 204 854 245 914 319 914 c 0xe140
 351 914 375 907 402 885 c 0
 417 874 426 869 437 869 c 0xd280
 456 869 470 880 473 921 c 1
 555 921 l 1
 554 828 512 769 435 769 c 0xca80
68 0 m 1xe240
 68 710 l 1
 251 710 l 1
 511 265 l 1
 511 710 l 1
 685 710 l 1
 685 0 l 1
 501 0 l 1
 242 426 l 1
 242 0 l 1
 68 0 l 1xe240
EndSplineSet
EndChar

StartChar: Eng
Encoding: 330 330 74
Width: 753
GlyphClass: 2
Flags: MW
HStem: -166 112<380 472 472 488.5 380 519 380 472> 0 21G<68 68 68 242 501 501 501 521> 690 20G<68 251 251 251 511 685 685 685>
VStem: 68 174<0 427 0 710> 511 174<265 710> 521 164<-8 -5 -5 0 0 0>
AnchorPoint: "Anchor-3" 377 710 basechar 0
AnchorPoint: "Anchor-0" 377 -150 basechar 0
LayerCount: 2
Fore
SplineSet
68 0 m 1xf4
 68 710 l 1
 251 710 l 1
 511 265 l 1
 511 710 l 1
 685 710 l 1
 685 -5 l 2xf8
 685 -106 631 -166 519 -166 c 2
 380 -166 l 1
 380 -54 l 1
 472 -54 l 2
 505 -54 521 -44 521 -8 c 2
 521 0 l 1
 501 0 l 1
 242 427 l 1
 242 0 l 1
 68 0 l 1xf4
EndSplineSet
EndChar

StartChar: O
Encoding: 79 79 75
Width: 788
GlyphClass: 2
Flags: MW
HStem: -16 142<339.5 448.5 339.5 504> 584 142<339.5 448.5>
VStem: 41 179<281.5 426.5 281.5 468> 568 179<281.5 426.5>
AnchorPoint: "Anchor-3" 394 710 basechar 0
AnchorPoint: "Anchor-1" 394 355 basechar 0
AnchorPoint: "Anchor-0" 394 0 basechar 0
LayerCount: 2
Fore
SplineSet
394 -16 m 0
 173 -16 41 126 41 354 c 0
 41 582 173 726 394 726 c 0
 614 726 747 582 747 354 c 0
 747 126 614 -16 394 -16 c 0
394 126 m 0
 503 126 568 209 568 354 c 0
 568 499 503 584 394 584 c 0
 285 584 220 499 220 354 c 0
 220 209 285 126 394 126 c 0
EndSplineSet
Substitution2: "Single Substitution lookup 27 subtable" ordmasculine
Substitution2: "'aalt' Access All Alternates in Latin lookup 0 subtable" ordmasculine
EndChar

StartChar: Oacute
Encoding: 211 211 76
Width: 788
GlyphClass: 2
Flags: MW
HStem: -16 142<339.5 448.5 339.5 504> 584 142<339.5 448.5> 761 154<315 534 372 444>
VStem: 41 179<281.5 426.5 281.5 468> 568 179<281.5 426.5>
AnchorPoint: "Anchor-3" 394 710 basechar 0
AnchorPoint: "Anchor-1" 394 355 basechar 0
AnchorPoint: "Anchor-0" 394 0 basechar 0
LayerCount: 2
Fore
SplineSet
315 761 m 1
 372 915 l 1
 534 915 l 1
 444 761 l 1
 315 761 l 1
394 -16 m 0
 173 -16 41 126 41 354 c 0
 41 582 173 726 394 726 c 0
 614 726 747 582 747 354 c 0
 747 126 614 -16 394 -16 c 0
394 126 m 0
 503 126 568 209 568 354 c 0
 568 499 503 584 394 584 c 0
 285 584 220 499 220 354 c 0
 220 209 285 126 394 126 c 0
EndSplineSet
EndChar

StartChar: Ocircumflex
Encoding: 212 212 77
Width: 788
GlyphClass: 2
Flags: MW
HStem: -16 142<339.5 448.5 339.5 504> 584 142<339.5 448.5> 761 160<215 474 313 332 456 456 456 474 313 572>
VStem: 41 179<281.5 426.5 281.5 468> 568 179<281.5 426.5>
AnchorPoint: "Anchor-3" 394 710 basechar 0
AnchorPoint: "Anchor-1" 394 355 basechar 0
AnchorPoint: "Anchor-0" 394 0 basechar 0
LayerCount: 2
Fore
SplineSet
215 761 m 1
 313 921 l 1
 474 921 l 1
 572 761 l 1
 456 761 l 1
 394 850 l 1
 332 761 l 1
 215 761 l 1
394 -16 m 0
 173 -16 41 126 41 354 c 0
 41 582 173 726 394 726 c 0
 614 726 747 582 747 354 c 0
 747 126 614 -16 394 -16 c 0
394 126 m 0
 503 126 568 209 568 354 c 0
 568 499 503 584 394 584 c 0
 285 584 220 499 220 354 c 0
 220 209 285 126 394 126 c 0
EndSplineSet
EndChar

StartChar: Odieresis
Encoding: 214 214 78
Width: 788
GlyphClass: 2
Flags: MW
HStem: -16 142<339.5 448.5 339.5 504> 584 142<339.5 448.5> 767 128<199 360 199 360 427 589 199 427>
VStem: 41 179<281.5 426.5 281.5 468> 199 161<767 895 767 895> 427 162<767 895 767 895> 568 179<281.5 426.5>
AnchorPoint: "Anchor-3" 394 710 basechar 0
AnchorPoint: "Anchor-1" 394 355 basechar 0
AnchorPoint: "Anchor-0" 394 0 basechar 0
LayerCount: 2
Fore
SplineSet
199 767 m 1xec
 199 895 l 1
 360 895 l 1
 360 767 l 1
 199 767 l 1xec
427 767 m 1
 427 895 l 1
 589 895 l 1
 589 767 l 1
 427 767 l 1
394 -16 m 0
 173 -16 41 126 41 354 c 0
 41 582 173 726 394 726 c 0
 614 726 747 582 747 354 c 0xf2
 747 126 614 -16 394 -16 c 0
394 126 m 0
 503 126 568 209 568 354 c 0
 568 499 503 584 394 584 c 0
 285 584 220 499 220 354 c 0
 220 209 285 126 394 126 c 0
EndSplineSet
Substitution2: "'ss08' Style Set 8 in Latin lookup 41 subtable" Odieresis.ss08
Substitution2: "'aalt' Access All Alternates in Latin lookup 0 subtable" Odieresis.ss08
EndChar

StartChar: Ograve
Encoding: 210 210 79
Width: 788
GlyphClass: 2
Flags: MW
HStem: -16 142<339.5 448.5 339.5 504> 584 142<339.5 448.5> 768 153<340 340 340 413 250 470>
VStem: 41 179<281.5 426.5 281.5 468> 568 179<281.5 426.5>
AnchorPoint: "Anchor-3" 394 710 basechar 0
AnchorPoint: "Anchor-1" 394 355 basechar 0
AnchorPoint: "Anchor-0" 394 0 basechar 0
LayerCount: 2
Fore
SplineSet
340 768 m 1
 250 921 l 1
 413 921 l 1
 470 768 l 1
 340 768 l 1
394 -16 m 0
 173 -16 41 126 41 354 c 0
 41 582 173 726 394 726 c 0
 614 726 747 582 747 354 c 0
 747 126 614 -16 394 -16 c 0
394 126 m 0
 503 126 568 209 568 354 c 0
 568 499 503 584 394 584 c 0
 285 584 220 499 220 354 c 0
 220 209 285 126 394 126 c 0
EndSplineSet
EndChar

StartChar: Ohungarumlaut
Encoding: 336 336 80
Width: 788
GlyphClass: 2
Flags: MW
HStem: -16 142<339.5 448.5 339.5 504> 584 142<339.5 448.5> 761 154<234 453 290 363 426 453 483 556 426 426>
VStem: 41 179<281.5 426.5 281.5 468> 568 179<281.5 426.5>
AnchorPoint: "Anchor-3" 394 710 basechar 0
AnchorPoint: "Anchor-1" 394 355 basechar 0
AnchorPoint: "Anchor-0" 394 0 basechar 0
LayerCount: 2
Fore
SplineSet
234 761 m 1
 290 915 l 1
 453 915 l 1
 363 761 l 1
 234 761 l 1
426 761 m 1
 483 915 l 1
 646 915 l 1
 556 761 l 1
 426 761 l 1
394 -16 m 0
 173 -16 41 126 41 354 c 0
 41 582 173 726 394 726 c 0
 614 726 747 582 747 354 c 0
 747 126 614 -16 394 -16 c 0
394 126 m 0
 503 126 568 209 568 354 c 0
 568 499 503 584 394 584 c 0
 285 584 220 499 220 354 c 0
 220 209 285 126 394 126 c 0
EndSplineSet
EndChar

StartChar: Omacron
Encoding: 332 332 81
Width: 788
GlyphClass: 2
Flags: MW
HStem: -16 142<339.5 448.5 339.5 504> 584 142<339.5 448.5> 773 122<239 549 239 549>
VStem: 41 179<281.5 426.5 281.5 468> 239 310<773 895 773 895> 568 179<281.5 426.5>
AnchorPoint: "Anchor-3" 394 710 basechar 0
AnchorPoint: "Anchor-1" 394 355 basechar 0
AnchorPoint: "Anchor-0" 394 0 basechar 0
LayerCount: 2
Fore
SplineSet
239 773 m 1
 239 895 l 1
 549 895 l 1
 549 773 l 1
 239 773 l 1
394 -16 m 0
 173 -16 41 126 41 354 c 0
 41 582 173 726 394 726 c 0
 614 726 747 582 747 354 c 0xf4
 747 126 614 -16 394 -16 c 0
394 126 m 0
 503 126 568 209 568 354 c 0
 568 499 503 584 394 584 c 0
 285 584 220 499 220 354 c 0
 220 209 285 126 394 126 c 0
EndSplineSet
EndChar

StartChar: Oslash
Encoding: 216 216 82
Width: 788
GlyphClass: 2
Flags: MW
HStem: -16 142<377.5 448.5 377.5 504> 584 142<339.5 410.5>
VStem: 41 179<329 426.5 329 468> 568 179<281.5 379.5>
AnchorPoint: "Anchor-3" 394 710 basechar 0
AnchorPoint: "Anchor-1" 394 355 basechar 0
AnchorPoint: "Anchor-0" 394 0 basechar 0
LayerCount: 2
Fore
SplineSet
71 -16 m 1
 139 79 l 1
 75 143 41 237 41 354 c 0
 41 582 173 726 394 726 c 0
 461 726 520 713 569 688 c 1
 596 726 l 1
 717 726 l 1
 649 630 l 1
 712 565 747 471 747 354 c 0
 747 126 614 -16 394 -16 c 0
 327 -16 268 -3 218 22 c 1
 192 -16 l 1
 71 -16 l 1
220 354 m 0
 220 304 228 261 242 226 c 1
 480 561 l 1
 455 576 427 584 394 584 c 0
 285 584 220 499 220 354 c 0
394 126 m 0
 503 126 568 209 568 354 c 0
 568 405 560 448 545 483 c 1
 308 148 l 1
 332 134 361 126 394 126 c 0
EndSplineSet
EndChar

StartChar: Otilde
Encoding: 213 213 83
Width: 788
GlyphClass: 2
Flags: MW
HStem: -16 142<339.5 448.5 339.5 504> 584 142<339.5 448.5> 764 150<296 300 217 349> 769 100<445.5 460.5 445.5 488> 769 152<487 488> 814 100<327.5 342>
VStem: 41 179<281.5 426.5 281.5 468> 217 83<764 764> 487 82<921 921> 568 179<281.5 426.5>
AnchorPoint: "Anchor-3" 394 710 basechar 0
AnchorPoint: "Anchor-1" 394 355 basechar 0
AnchorPoint: "Anchor-0" 394 0 basechar 0
LayerCount: 2
Fore
SplineSet
449 769 m 0xca80
 416 769 398 776 371 799 c 0
 358 809 348 814 336 814 c 0xc540
 319 814 303 803 300 764 c 1
 217 764 l 1
 218 854 259 914 333 914 c 0xe140
 365 914 389 907 416 885 c 0
 431 874 440 869 451 869 c 0xd280
 470 869 484 880 487 921 c 1
 569 921 l 1
 568 828 527 769 449 769 c 0xca80
394 -16 m 0
 173 -16 41 126 41 354 c 0xe240
 41 582 173 726 394 726 c 0
 614 726 747 582 747 354 c 0
 747 126 614 -16 394 -16 c 0
394 126 m 0
 503 126 568 209 568 354 c 0
 568 499 503 584 394 584 c 0
 285 584 220 499 220 354 c 0
 220 209 285 126 394 126 c 0
EndSplineSet
EndChar

StartChar: OE
Encoding: 338 338 84
Width: 1130
GlyphClass: 2
Flags: MW
HStem: -16 142<333.5 434.5> 0 142<771 1089 771 1089> 285 142<771 1069 771 1069> 568 142<771 1081 771 771> 584 142<333 434.5 287.5 454>
VStem: 41 179<290 419 290 472.5> 566 205<142 419> 597 174<0 285 58 285>
AnchorPoint: "Anchor-3" 567 710 basechar 0
AnchorPoint: "Anchor-0" 567 0 basechar 0
LayerCount: 2
Fore
SplineSet
392 -16 m 0xb5
 183 -16 41 121 41 354 c 0
 41 591 183 726 392 726 c 0xae
 477 726 546 700 597 651 c 1
 597 710 l 1x75
 1081 710 l 1
 1081 568 l 1
 771 568 l 1
 771 427 l 1
 1069 427 l 1
 1069 285 l 1
 771 285 l 1
 771 142 l 1x76
 1089 142 l 1
 1089 0 l 1
 597 0 l 1x75
 597 58 l 1
 546 10 477 -16 392 -16 c 0xb5
392 126 m 0
 515 126 566 226 566 354 c 0
 566 484 516 584 392 584 c 0
 274 584 220 484 220 354 c 0
 220 226 275 126 392 126 c 0
EndSplineSet
EndChar

StartChar: P
Encoding: 80 80 85
Width: 679
GlyphClass: 2
Flags: MW
HStem: 0 21G<68 68 68 242> 235 143<242 350 350 362 242 350> 568 142<242 350 242 242>
VStem: 68 174<0 235 378 568> 464 178<441.5 504>
AnchorPoint: "Anchor-3" 339 710 basechar 0
AnchorPoint: "Anchor-0" 339 0 basechar 0
LayerCount: 2
Fore
SplineSet
68 0 m 1
 68 710 l 1
 362 710 l 2
 536 710 642 620 642 473 c 0
 642 326 536 235 362 235 c 2
 242 235 l 1
 242 0 l 1
 68 0 l 1
242 378 m 1
 350 378 l 2
 420 378 464 410 464 473 c 0
 464 535 421 568 350 568 c 2
 242 568 l 1
 242 378 l 1
EndSplineSet
EndChar

StartChar: Thorn
Encoding: 222 222 86
Width: 649
GlyphClass: 2
Flags: MW
HStem: 0 21G<68 68 68 242> 148 144<242 339 339 343 242 339> 440 143<242 339 242 343> 690 20G<68 242 242 242>
VStem: 68 174<0 148 0 292 292 440 583 710> 434 178<341 390.5>
AnchorPoint: "Anchor-3" 324 710 basechar 0
AnchorPoint: "Anchor-0" 324 0 basechar 0
LayerCount: 2
Fore
SplineSet
68 0 m 1
 68 710 l 1
 242 710 l 1
 242 583 l 1
 343 583 l 2
 514 583 612 504 612 367 c 0
 612 228 514 148 343 148 c 2
 242 148 l 1
 242 0 l 1
 68 0 l 1
339 440 m 2
 242 440 l 1
 242 292 l 1
 339 292 l 2
 402 292 434 316 434 366 c 0
 434 415 402 440 339 440 c 2
EndSplineSet
EndChar

StartChar: Q
Encoding: 81 81 87
Width: 781
GlyphClass: 2
Flags: MW
HStem: -16 142<331 398 331 418> 584 142<330.5 451>
VStem: 41 179<294 414.5 294 460.5> 561 179<313.5 414.5>
AnchorPoint: "Anchor-3" 391 710 basechar 0
AnchorPoint: "Anchor-0" 391 0 basechar 0
LayerCount: 2
Fore
SplineSet
573 -59 m 1
 519 7 l 1
 489 -8 445 -16 391 -16 c 0
 179 -16 41 134 41 354 c 0
 41 567 163 726 391 726 c 0
 618 726 740 567 740 354 c 0
 740 222 694 126 614 60 c 1
 710 -59 l 1
 573 -59 l 1
391 126 m 0
 405 126 417 128 428 132 c 1
 331 250 l 1
 468 250 l 1
 512 192 l 1
 543 225 561 273 561 354 c 0
 561 475 511 584 391 584 c 0
 270 584 220 475 220 354 c 0
 220 234 271 126 391 126 c 0
EndSplineSet
EndChar

StartChar: R
Encoding: 82 82 88
Width: 706
GlyphClass: 2
Flags: MW
HStem: 0 21G<68 68 68 242 481 481 481 659> 251 142<242 366 366 375 242 366> 568 142<242 364 242 242>
VStem: 68 174<0 251 393 568> 475 178<455.5 509.5> 475.5 175
AnchorPoint: "Anchor-3" 347 710 basechar 0
AnchorPoint: "Anchor-0" 364 0 basechar 0
LayerCount: 2
Fore
SplineSet
68 0 m 1xf4
 68 710 l 1
 393 710 l 2
 551 710 653 627 653 499 c 0xf8
 653 412 604 348 526 324 c 1
 599 314 636 273 642 202 c 2
 659 0 l 1
 481 0 l 1
 470 173 l 2
 466 226 443 251 375 251 c 2
 242 251 l 1
 242 0 l 1
 68 0 l 1xf4
242 393 m 1
 366 393 l 2
 436 393 475 425 475 481 c 0
 475 538 436 568 364 568 c 2
 242 568 l 1
 242 393 l 1
EndSplineSet
Substitution2: "'ss04' Style Set 4 in Latin lookup 37 subtable" R.ss04
Substitution2: "'aalt' Access All Alternates in Latin lookup 0 subtable" R.ss04
EndChar

StartChar: Racute
Encoding: 340 340 89
Width: 706
GlyphClass: 2
Flags: MW
HStem: 0 21G<68 68 68 242 481 481 481 659> 251 142<242 366 366 375 242 366> 568 142<242 364 242 242> 761 154<269 488 325 398>
VStem: 68 174<0 251 393 568> 475 178<455.5 509.5> 475.5 175
AnchorPoint: "Anchor-3" 347 710 basechar 0
AnchorPoint: "Anchor-0" 364 0 basechar 0
LayerCount: 2
Fore
SplineSet
269 761 m 1xfa
 325 915 l 1
 488 915 l 1
 398 761 l 1
 269 761 l 1xfa
68 0 m 1
 68 710 l 1
 393 710 l 2
 551 710 653 627 653 499 c 0xfc
 653 412 604 348 526 324 c 1
 599 314 636 273 642 202 c 2
 659 0 l 1
 481 0 l 1
 470 173 l 2
 466 226 443 251 375 251 c 2
 242 251 l 1
 242 0 l 1
 68 0 l 1
242 393 m 1
 366 393 l 2
 436 393 475 425 475 481 c 0
 475 538 436 568 364 568 c 2
 242 568 l 1
 242 393 l 1
EndSplineSet
Substitution2: "'ss04' Style Set 4 in Latin lookup 37 subtable" Racute.ss04
Substitution2: "'aalt' Access All Alternates in Latin lookup 0 subtable" Racute.ss04
EndChar

StartChar: Rcaron
Encoding: 344 344 90
Width: 706
GlyphClass: 2
Flags: MW
HStem: 0 21G<68 68 68 242 481 481 481 659> 251 142<242 366 366 375 242 366> 568 142<242 364 242 242> 761 160<267 285 410 428 267 267>
VStem: 68 174<0 251 393 568> 475 178<455.5 509.5> 475.5 175
AnchorPoint: "Anchor-3" 347 710 basechar 0
AnchorPoint: "Anchor-0" 364 0 basechar 0
LayerCount: 2
Fore
SplineSet
169 921 m 1xfa
 285 921 l 1
 347 832 l 1
 410 921 l 1
 526 921 l 1
 428 761 l 1
 267 761 l 1
 169 921 l 1xfa
68 0 m 1
 68 710 l 1
 393 710 l 2
 551 710 653 627 653 499 c 0xfc
 653 412 604 348 526 324 c 1
 599 314 636 273 642 202 c 2
 659 0 l 1
 481 0 l 1
 470 173 l 2
 466 226 443 251 375 251 c 2
 242 251 l 1
 242 0 l 1
 68 0 l 1
242 393 m 1
 366 393 l 2
 436 393 475 425 475 481 c 0
 475 538 436 568 364 568 c 2
 242 568 l 1
 242 393 l 1
EndSplineSet
Substitution2: "'ss04' Style Set 4 in Latin lookup 37 subtable" Rcaron.ss04
Substitution2: "'aalt' Access All Alternates in Latin lookup 0 subtable" Rcaron.ss04
EndChar

StartChar: uni0156
Encoding: 342 342 91
Width: 706
GlyphClass: 2
Flags: MW
HStem: -173 126<294 328 294 434> 0 21G<68 68 68 242 481 481 481 659> 251 142<242 366 366 375 242 366> 568 142<242 364 242 242>
VStem: 68 174<0 251 393 568> 294 140<-160 -47 -160 -47 -160 -47> 475 178<455.5 509.5> 475.5 175
AnchorPoint: "Anchor-3" 347 710 basechar 0
AnchorPoint: "Anchor-0" 364 -258 basechar 0
LayerCount: 2
Fore
SplineSet
68 0 m 1xfd
 68 710 l 1
 393 710 l 2
 551 710 653 627 653 499 c 0xfe
 653 412 604 348 526 324 c 1
 599 314 636 273 642 202 c 2
 659 0 l 1
 481 0 l 1
 470 173 l 2
 466 226 443 251 375 251 c 2
 242 251 l 1
 242 0 l 1
 68 0 l 1xfd
242 393 m 1
 366 393 l 2
 436 393 475 425 475 481 c 0
 475 538 436 568 364 568 c 2
 242 568 l 1
 242 393 l 1
277 -258 m 1
 328 -173 l 1
 294 -173 l 1
 294 -47 l 1
 434 -47 l 1
 434 -160 l 1
 375 -258 l 1
 277 -258 l 1
EndSplineSet
Substitution2: "'ss04' Style Set 4 in Latin lookup 37 subtable" uni0156.ss04
Substitution2: "'aalt' Access All Alternates in Latin lookup 0 subtable" uni0156.ss04
EndChar

StartChar: S
Encoding: 83 83 92
Width: 695
GlyphClass: 2
Flags: MW
HStem: -16 140<321 397 321 449> 586 140<307 375>
VStem: 64 175<489.5 535.5 489.5 572.5> 469 175<172 218>
AnchorPoint: "Anchor-3" 342 710 basechar 0
AnchorPoint: "Anchor-0" 357 0 basechar 0
LayerCount: 2
Fore
SplineSet
361 -16 m 0
 171 -16 61 82 51 236 c 1
 225 244 l 1
 236 167 279 124 363 124 c 0
 431 124 469 148 469 196 c 0
 469 240 447 265 326 291 c 0
 138 331 64 382 64 508 c 0
 64 637 167 726 340 726 c 0
 524 726 619 624 634 481 c 1
 462 473 l 1
 455 542 412 586 338 586 c 0
 276 586 239 557 239 514 c 0
 239 465 270 444 374 424 c 0
 578 386 644 314 644 204 c 0
 644 68 537 -16 361 -16 c 0
EndSplineSet
EndChar

StartChar: Sacute
Encoding: 346 346 93
Width: 695
GlyphClass: 2
Flags: MW
HStem: -16 140<321 397 321 449> 586 140<307 375> 761 154<263 483 320 393>
VStem: 64 175<489.5 535.5 489.5 572.5> 469 175<172 218>
AnchorPoint: "Anchor-3" 342 710 basechar 0
AnchorPoint: "Anchor-0" 357 0 basechar 0
LayerCount: 2
Fore
SplineSet
263 761 m 1
 320 915 l 1
 483 915 l 1
 393 761 l 1
 263 761 l 1
361 -16 m 0
 171 -16 61 82 51 236 c 1
 225 244 l 1
 236 167 279 124 363 124 c 0
 431 124 469 148 469 196 c 0
 469 240 447 265 326 291 c 0
 138 331 64 382 64 508 c 0
 64 637 167 726 340 726 c 0
 524 726 619 624 634 481 c 1
 462 473 l 1
 455 542 412 586 338 586 c 0
 276 586 239 557 239 514 c 0
 239 465 270 444 374 424 c 0
 578 386 644 314 644 204 c 0
 644 68 537 -16 361 -16 c 0
EndSplineSet
EndChar

StartChar: Scaron
Encoding: 352 352 94
Width: 695
GlyphClass: 2
Flags: MW
HStem: -16 140<321 397 321 449> 586 140<307 375> 761 160<261 280 404 423 261 261>
VStem: 64 175<489.5 535.5 489.5 572.5> 469 175<172 218>
AnchorPoint: "Anchor-3" 342 710 basechar 0
AnchorPoint: "Anchor-0" 357 0 basechar 0
LayerCount: 2
Fore
SplineSet
163 921 m 1
 280 921 l 1
 342 832 l 1
 404 921 l 1
 521 921 l 1
 423 761 l 1
 261 761 l 1
 163 921 l 1
361 -16 m 0
 171 -16 61 82 51 236 c 1
 225 244 l 1
 236 167 279 124 363 124 c 0
 431 124 469 148 469 196 c 0
 469 240 447 265 326 291 c 0
 138 331 64 382 64 508 c 0
 64 637 167 726 340 726 c 0
 524 726 619 624 634 481 c 1
 462 473 l 1
 455 542 412 586 338 586 c 0
 276 586 239 557 239 514 c 0
 239 465 270 444 374 424 c 0
 578 386 644 314 644 204 c 0
 644 68 537 -16 361 -16 c 0
EndSplineSet
EndChar

StartChar: Scedilla
Encoding: 350 350 95
Width: 695
GlyphClass: 2
Flags: MW
HStem: -236 78<333.5 362.5 333.5 388> -152 21G<220 220> -85 55<333 387> -13 21G<306 306> 586 140<307 375>
VStem: 64 175<489.5 535.5 489.5 572.5> 395 88<-133.5 -111> 469 175<172 218>
AnchorPoint: "Anchor-3" 342 710 basechar 0
AnchorPoint: "Anchor-0" 357 0 basechar 0
LayerCount: 2
Fore
SplineSet
352 -236 m 0xae
 284 -236 239 -202 220 -152 c 1x5e
 291 -120 l 1
 301 -145 318 -158 349 -158 c 0
 376 -158 395 -145 395 -122 c 0
 395 -100 383 -85 333 -85 c 1xae
 288 -44 l 1
 306 -13 l 1
 150 4 60 98 51 236 c 1
 225 244 l 1
 236 167 279 124 363 124 c 0
 431 124 469 148 469 196 c 0
 469 240 447 265 326 291 c 0
 138 331 64 382 64 508 c 0
 64 637 167 726 340 726 c 0
 524 726 619 624 634 481 c 1
 462 473 l 1
 455 542 412 586 338 586 c 0
 276 586 239 557 239 514 c 0
 239 465 270 444 374 424 c 0
 578 386 644 314 644 204 c 0x5d
 644 77 552 -4 397 -15 c 1
 387 -30 l 1
 455 -37 483 -77 483 -126 c 0
 483 -203 424 -236 352 -236 c 0xae
EndSplineSet
Substitution2: "'locl' Localized Forms in Latin lookup 10 subtable" uni0218
Substitution2: "'aalt' Access All Alternates in Latin lookup 0 subtable" uni0218
EndChar

StartChar: Scircumflex
Encoding: 348 348 96
Width: 695
GlyphClass: 2
Flags: MW
HStem: -16 140<321 397 321 449> 586 140<307 375> 761 160<163 423 261 280 404 404 404 423 261 521>
VStem: 64 175<489.5 535.5 489.5 572.5> 469 175<172 218>
AnchorPoint: "Anchor-3" 342 710 basechar 0
AnchorPoint: "Anchor-0" 357 0 basechar 0
LayerCount: 2
Fore
SplineSet
163 761 m 1
 261 921 l 1
 423 921 l 1
 521 761 l 1
 404 761 l 1
 342 850 l 1
 280 761 l 1
 163 761 l 1
361 -16 m 0
 171 -16 61 82 51 236 c 1
 225 244 l 1
 236 167 279 124 363 124 c 0
 431 124 469 148 469 196 c 0
 469 240 447 265 326 291 c 0
 138 331 64 382 64 508 c 0
 64 637 167 726 340 726 c 0
 524 726 619 624 634 481 c 1
 462 473 l 1
 455 542 412 586 338 586 c 0
 276 586 239 557 239 514 c 0
 239 465 270 444 374 424 c 0
 578 386 644 314 644 204 c 0
 644 68 537 -16 361 -16 c 0
EndSplineSet
EndChar

StartChar: uni0218
Encoding: 536 536 97
Width: 695
GlyphClass: 2
Flags: MW
HStem: -173 126<287 321 287 427> -16 140<321 397 321 449> 586 140<307 375>
VStem: 64 175<489.5 535.5 489.5 572.5> 287 140<-160 -47 -160 -47 -160 -47> 469 175<172 218>
AnchorPoint: "Anchor-3" 342 710 basechar 0
AnchorPoint: "Anchor-0" 357 -258 basechar 0
LayerCount: 2
Fore
SplineSet
361 -16 m 0
 171 -16 61 82 51 236 c 1
 225 244 l 1
 236 167 279 124 363 124 c 0
 431 124 469 148 469 196 c 0
 469 240 447 265 326 291 c 0
 138 331 64 382 64 508 c 0
 64 637 167 726 340 726 c 0
 524 726 619 624 634 481 c 1
 462 473 l 1
 455 542 412 586 338 586 c 0
 276 586 239 557 239 514 c 0
 239 465 270 444 374 424 c 0
 578 386 644 314 644 204 c 0
 644 68 537 -16 361 -16 c 0
270 -258 m 1
 321 -173 l 1
 287 -173 l 1
 287 -47 l 1
 427 -47 l 1
 427 -160 l 1
 368 -258 l 1
 270 -258 l 1
EndSplineSet
EndChar

StartChar: uni1E9E
Encoding: 7838 7838 98
Width: 758
GlyphClass: 2
Flags: MW
HStem: 0 142<68 425 309 425 309 425> 568 142<311 681 346 480>
VStem: 68 174<0 458 0 540.5> 534 177<198.5 251>
AnchorPoint: "Anchor-3" 379 710 basechar 0
AnchorPoint: "Anchor-0" 379 0 basechar 0
LayerCount: 2
Fore
SplineSet
68 0 m 1
 68 458 l 2
 68 623 163 710 346 710 c 2
 681 710 l 1
 681 566 l 1
 514 418 l 1
 643 395 711 327 711 221 c 0
 711 79 609 0 425 0 c 2
 309 0 l 1
 309 142 l 1
 425 142 l 2
 493 142 534 173 534 224 c 0
 534 278 491 307 418 307 c 2
 321 307 l 1
 321 420 l 1
 480 568 l 1
 346 568 l 2
 276 568 242 532 242 458 c 2
 242 0 l 1
 68 0 l 1
EndSplineSet
EndChar

StartChar: T
Encoding: 84 84 99
Width: 615
GlyphClass: 2
Flags: MW
HStem: 0 21G<220 220 220 395> 568 142<10 220 10 605 395 395 395 605>
VStem: 220 175<0 568 0 568>
AnchorPoint: "Anchor-3" 307 710 basechar 0
AnchorPoint: "Anchor-1" 308 319 basechar 0
AnchorPoint: "Anchor-0" 307 0 basechar 0
LayerCount: 2
Fore
SplineSet
220 0 m 1
 220 568 l 1
 10 568 l 1
 10 710 l 1
 605 710 l 1
 605 568 l 1
 395 568 l 1
 395 0 l 1
 220 0 l 1
EndSplineSet
EndChar

StartChar: Tbar
Encoding: 358 358 100
Width: 615
GlyphClass: 2
Flags: MW
HStem: 0 21G<220 220 220 395> 255 128<100 220 100 220 395 516> 568 142<10 220 10 605 395 395 395 605>
VStem: 220 175<0 255 0 255 383 568>
AnchorPoint: "Anchor-3" 307 710 basechar 0
AnchorPoint: "Anchor-1" 308 319 basechar 0
AnchorPoint: "Anchor-0" 307 0 basechar 0
LayerCount: 2
Fore
SplineSet
220 0 m 1
 220 255 l 1
 100 255 l 1
 100 383 l 1
 220 383 l 1
 220 568 l 1
 10 568 l 1
 10 710 l 1
 605 710 l 1
 605 568 l 1
 395 568 l 1
 395 383 l 1
 516 383 l 1
 516 255 l 1
 395 255 l 1
 395 0 l 1
 220 0 l 1
EndSplineSet
EndChar

StartChar: Tcaron
Encoding: 356 356 101
Width: 615
GlyphClass: 2
Flags: MW
HStem: 0 21G<220 220 220 395> 568 142<10 220 10 605 395 395 395 605> 761 160<227 245 369 388 227 227>
VStem: 220 175<0 568 0 568>
AnchorPoint: "Anchor-3" 307 710 basechar 0
AnchorPoint: "Anchor-1" 308 319 basechar 0
AnchorPoint: "Anchor-0" 307 0 basechar 0
LayerCount: 2
Fore
SplineSet
129 921 m 1
 245 921 l 1
 307 832 l 1
 369 921 l 1
 486 921 l 1
 388 761 l 1
 227 761 l 1
 129 921 l 1
220 0 m 1
 220 568 l 1
 10 568 l 1
 10 710 l 1
 605 710 l 1
 605 568 l 1
 395 568 l 1
 395 0 l 1
 220 0 l 1
EndSplineSet
EndChar

StartChar: uni0162
Encoding: 354 354 102
Width: 615
GlyphClass: 2
Flags: MW
HStem: -236 78<284 313 284 338.5> -152 21G<171 171> -85 55<284 338> 0 21G<220 220 220 264 357 357 357 395> 568 142<10 220 10 605 395 395 395 605>
VStem: 220 175<0 568 0 568> 345 89<-133.5 -111>
AnchorPoint: "Anchor-3" 307 710 basechar 0
AnchorPoint: "Anchor-1" 308 319 basechar 0
AnchorPoint: "Anchor-0" 307 0 basechar 0
LayerCount: 2
Fore
SplineSet
220 0 m 1x5c
 220 568 l 1
 10 568 l 1
 10 710 l 1
 605 710 l 1
 605 568 l 1
 395 568 l 1
 395 0 l 1x5c
 357 0 l 1x5a
 338 -30 l 1
 405 -37 434 -77 434 -126 c 0
 434 -203 374 -236 303 -236 c 0xaa
 235 -236 189 -202 171 -152 c 1x5c
 242 -120 l 1
 252 -145 269 -158 299 -158 c 0
 327 -158 345 -145 345 -122 c 0xaa
 345 -100 333 -85 284 -85 c 1x6c
 239 -44 l 1
 264 0 l 1
 220 0 l 1x5c
EndSplineSet
Substitution2: "'locl' Localized Forms in Latin lookup 10 subtable" uni021A
Substitution2: "'aalt' Access All Alternates in Latin lookup 0 subtable" uni021A
EndChar

StartChar: uni021A
Encoding: 538 538 103
Width: 615
GlyphClass: 2
Flags: MW
HStem: -173 126<237 272 237 377> 0 21G<220 220 220 395> 568 142<10 220 10 605 395 395 395 605>
VStem: 220 157<-160 568> 220 175<0 568 0 568> 237 158<-173 568 -47 568>
AnchorPoint: "Anchor-3" 307 710 basechar 0
AnchorPoint: "Anchor-1" 308 319 basechar 0
AnchorPoint: "Anchor-0" 307 -258 basechar 0
LayerCount: 2
Fore
SplineSet
220 0 m 1xe8
 220 568 l 1
 10 568 l 1
 10 710 l 1
 605 710 l 1
 605 568 l 1
 395 568 l 1
 395 0 l 1
 220 0 l 1xe8
221 -258 m 1
 272 -173 l 1
 237 -173 l 1
 237 -47 l 1xe4
 377 -47 l 1
 377 -160 l 1xf0
 319 -258 l 1
 221 -258 l 1
EndSplineSet
EndChar

StartChar: U
Encoding: 85 85 104
Width: 708
GlyphClass: 2
Flags: MW
HStem: -16 142<313 395 313 446.5> 691 20G<53 227 227 227 481 655 655 655>
VStem: 53 174<259 711> 481 174<259 711>
AnchorPoint: "Anchor-3" 354 710 basechar 0
AnchorPoint: "Anchor-2" 470 1 basechar 0
AnchorPoint: "Anchor-0" 354 0 basechar 0
LayerCount: 2
Fore
SplineSet
354 -16 m 0
 170 -16 53 91 53 259 c 2
 53 711 l 1
 227 711 l 1
 227 259 l 2
 227 174 272 126 354 126 c 0
 436 126 481 174 481 259 c 2
 481 711 l 1
 655 711 l 1
 655 259 l 2
 655 91 539 -16 354 -16 c 0
EndSplineSet
EndChar

StartChar: Uacute
Encoding: 218 218 105
Width: 708
GlyphClass: 2
Flags: MW
HStem: -16 142<313 395 313 446.5> 691 20G<53 227 227 227 481 655 655 655> 761 154<275 494 332 404>
VStem: 53 174<259 711> 481 174<259 711>
AnchorPoint: "Anchor-3" 354 710 basechar 0
AnchorPoint: "Anchor-2" 470 1 basechar 0
AnchorPoint: "Anchor-0" 354 0 basechar 0
LayerCount: 2
Fore
SplineSet
275 761 m 1
 332 915 l 1
 494 915 l 1
 404 761 l 1
 275 761 l 1
354 -16 m 0
 170 -16 53 91 53 259 c 2
 53 711 l 1
 227 711 l 1
 227 259 l 2
 227 174 272 126 354 126 c 0
 436 126 481 174 481 259 c 2
 481 711 l 1
 655 711 l 1
 655 259 l 2
 655 91 539 -16 354 -16 c 0
EndSplineSet
EndChar

StartChar: Ubreve
Encoding: 364 364 106
Width: 708
GlyphClass: 2
Flags: MW
HStem: -16 142<313 395 313 446.5> 691 20G<53 227 227 227 481 655 655 655> 760 89<335 373 335 402> 760 153<191 402>
VStem: 53 174<259 711> 481 174<259 711>
AnchorPoint: "Anchor-3" 354 710 basechar 0
AnchorPoint: "Anchor-2" 470 1 basechar 0
AnchorPoint: "Anchor-0" 354 0 basechar 0
LayerCount: 2
Fore
SplineSet
354 760 m 0xdc
 257 760 195 815 191 913 c 1xdc
 288 913 l 1
 292 867 316 849 354 849 c 0xec
 392 849 415 867 420 913 c 1
 516 913 l 1
 512 815 450 760 354 760 c 0xdc
354 -16 m 0
 170 -16 53 91 53 259 c 2
 53 711 l 1
 227 711 l 1
 227 259 l 2
 227 174 272 126 354 126 c 0
 436 126 481 174 481 259 c 2
 481 711 l 1
 655 711 l 1
 655 259 l 2
 655 91 539 -16 354 -16 c 0
EndSplineSet
EndChar

StartChar: Ucircumflex
Encoding: 219 219 107
Width: 708
GlyphClass: 2
Flags: MW
HStem: -16 142<313 395 313 446.5> 691 20G<53 227 227 227 481 655 655 655> 761 160<175 434 273 292 416 416 416 434 273 532>
VStem: 53 174<259 711> 481 174<259 711>
AnchorPoint: "Anchor-3" 354 710 basechar 0
AnchorPoint: "Anchor-2" 470 1 basechar 0
AnchorPoint: "Anchor-0" 354 0 basechar 0
LayerCount: 2
Fore
SplineSet
175 761 m 1
 273 921 l 1
 434 921 l 1
 532 761 l 1
 416 761 l 1
 354 850 l 1
 292 761 l 1
 175 761 l 1
354 -16 m 0
 170 -16 53 91 53 259 c 2
 53 711 l 1
 227 711 l 1
 227 259 l 2
 227 174 272 126 354 126 c 0
 436 126 481 174 481 259 c 2
 481 711 l 1
 655 711 l 1
 655 259 l 2
 655 91 539 -16 354 -16 c 0
EndSplineSet
EndChar

StartChar: Udieresis
Encoding: 220 220 108
Width: 708
GlyphClass: 2
Flags: MW
HStem: -16 142<313 395 313 446.5> 691 20G<53 227 227 227 481 655 655 655> 767 128<159 320 159 320 387 549 159 387>
VStem: 53 174<259 711> 159 68 159 161<767 895 767 895> 387 162<767 895 767 895> 481 68<259 895 711 895> 481 174<259 711>
AnchorPoint: "Anchor-3" 354 710 basechar 0
AnchorPoint: "Anchor-2" 470 1 basechar 0
AnchorPoint: "Anchor-0" 354 0 basechar 0
LayerCount: 2
Fore
SplineSet
159 767 m 1xe880
 159 895 l 1xea
 320 895 l 1
 320 767 l 1xe480
 159 767 l 1xe880
387 767 m 1
 387 895 l 1xf2
 549 895 l 1
 549 767 l 1xf1
 387 767 l 1
354 -16 m 0
 170 -16 53 91 53 259 c 2
 53 711 l 1
 227 711 l 1
 227 259 l 2
 227 174 272 126 354 126 c 0
 436 126 481 174 481 259 c 2
 481 711 l 1
 655 711 l 1
 655 259 l 2xf080
 655 91 539 -16 354 -16 c 0
EndSplineSet
Substitution2: "'ss08' Style Set 8 in Latin lookup 41 subtable" Udieresis.ss08
Substitution2: "'aalt' Access All Alternates in Latin lookup 0 subtable" Udieresis.ss08
EndChar

StartChar: Ugrave
Encoding: 217 217 109
Width: 708
GlyphClass: 2
Flags: MW
HStem: -16 142<313 395 313 446.5> 691 20G<53 227 227 227 481 655 655 655> 768 153<300 300 300 373 210 430>
VStem: 53 174<259 711> 481 174<259 711>
AnchorPoint: "Anchor-3" 354 710 basechar 0
AnchorPoint: "Anchor-2" 470 1 basechar 0
AnchorPoint: "Anchor-0" 354 0 basechar 0
LayerCount: 2
Fore
SplineSet
300 768 m 1
 210 921 l 1
 373 921 l 1
 430 768 l 1
 300 768 l 1
354 -16 m 0
 170 -16 53 91 53 259 c 2
 53 711 l 1
 227 711 l 1
 227 259 l 2
 227 174 272 126 354 126 c 0
 436 126 481 174 481 259 c 2
 481 711 l 1
 655 711 l 1
 655 259 l 2
 655 91 539 -16 354 -16 c 0
EndSplineSet
EndChar

StartChar: Uhungarumlaut
Encoding: 368 368 110
Width: 708
GlyphClass: 2
Flags: MW
HStem: -16 142<313 395 313 446.5> 691 20G<53 227 227 227 481 655 655 655> 761 154<194 413 250 323 386 413 443 516 386 386>
VStem: 53 174<259 711> 481 174<259 711>
AnchorPoint: "Anchor-3" 354 710 basechar 0
AnchorPoint: "Anchor-2" 470 1 basechar 0
AnchorPoint: "Anchor-0" 354 0 basechar 0
LayerCount: 2
Fore
SplineSet
194 761 m 1
 250 915 l 1
 413 915 l 1
 323 761 l 1
 194 761 l 1
386 761 m 1
 443 915 l 1
 606 915 l 1
 516 761 l 1
 386 761 l 1
354 -16 m 0
 170 -16 53 91 53 259 c 2
 53 711 l 1
 227 711 l 1
 227 259 l 2
 227 174 272 126 354 126 c 0
 436 126 481 174 481 259 c 2
 481 711 l 1
 655 711 l 1
 655 259 l 2
 655 91 539 -16 354 -16 c 0
EndSplineSet
EndChar

StartChar: Umacron
Encoding: 362 362 111
Width: 708
GlyphClass: 2
Flags: MW
HStem: -16 142<313 395 313 446.5> 691 20G<53 227 227 227 481 655 655 655> 773 122<199 509 199 509>
VStem: 53 174<259 711> 199 28 481 28 481 174<259 711>
AnchorPoint: "Anchor-3" 354 710 basechar 0
AnchorPoint: "Anchor-2" 470 1 basechar 0
AnchorPoint: "Anchor-0" 354 0 basechar 0
LayerCount: 2
Fore
SplineSet
199 773 m 1xec
 199 895 l 1
 509 895 l 1
 509 773 l 1
 199 773 l 1xec
354 -16 m 0
 170 -16 53 91 53 259 c 2
 53 711 l 1
 227 711 l 1
 227 259 l 2
 227 174 272 126 354 126 c 0
 436 126 481 174 481 259 c 2
 481 711 l 1
 655 711 l 1
 655 259 l 2xf2
 655 91 539 -16 354 -16 c 0
EndSplineSet
EndChar

StartChar: Uogonek
Encoding: 370 370 112
Width: 708
GlyphClass: 2
Flags: MW
HStem: -219 97<356 442.5> -15 21G<324 324> -15 141<324 324> 691 20G<53 227 227 227 481 655 655 655>
VStem: 53 174<259 711> 274 135<-157.5 -89.5> 481 174<259 711>
AnchorPoint: "Anchor-3" 354 710 basechar 0
AnchorPoint: "Anchor-2" 470 1 basechar 0
AnchorPoint: "Anchor-0" 354 0 basechar 0
LayerCount: 2
Fore
SplineSet
394 -219 m 0xbe
 318 -219 274 -187 274 -128 c 0
 274 -87 297 -50 321 -18 c 1
 324 -15 l 1xde
 157 -4 53 100 53 259 c 2
 53 711 l 1
 227 711 l 1
 227 259 l 2
 227 174 272 126 354 126 c 0
 436 126 481 174 481 259 c 2
 481 711 l 1
 655 711 l 1
 655 259 l 2
 655 129 586 36 470 0 c 1
 441 -36 l 2
 423 -60 409 -81 409 -98 c 0
 409 -115 421 -122 434 -122 c 0
 451 -122 469 -116 478 -110 c 1
 507 -193 l 1
 488 -207 439 -219 394 -219 c 0xbe
EndSplineSet
EndChar

StartChar: Uring
Encoding: 366 366 113
Width: 708
GlyphClass: 2
Flags: MW
HStem: -16 142<313 395 313 446.5> 691 20G<53 227 227 227 481 655 655 655> 746 70<343.5 364.5 343.5 384> 887 69<343.5 364.5>
VStem: 53 174<259 711> 247 71<840.5 861.5 840.5 881> 389 71<840.5 861.5> 481 174<259 711>
AnchorPoint: "Anchor-3" 354 710 basechar 0
AnchorPoint: "Anchor-2" 470 1 basechar 0
AnchorPoint: "Anchor-0" 354 0 basechar 0
LayerCount: 2
Fore
SplineSet
354 746 m 0
 294 746 247 791 247 851 c 0
 247 911 294 956 354 956 c 0
 414 956 460 911 460 851 c 0
 460 791 414 746 354 746 c 0
354 816 m 0
 375 816 389 830 389 851 c 0
 389 872 375 887 354 887 c 0
 333 887 318 872 318 851 c 0
 318 830 333 816 354 816 c 0
354 -16 m 0
 170 -16 53 91 53 259 c 2
 53 711 l 1
 227 711 l 1
 227 259 l 2
 227 174 272 126 354 126 c 0
 436 126 481 174 481 259 c 2
 481 711 l 1
 655 711 l 1
 655 259 l 2xf9
 655 91 539 -16 354 -16 c 0
EndSplineSet
EndChar

StartChar: Utilde
Encoding: 360 360 114
Width: 708
GlyphClass: 2
Flags: MW
HStem: -16 142<313 395 313 446.5> 691 20G<53 227 227 227 481 655 655 655> 764 150<256 260 177 309> 769 100<405.5 420.5 405.5 448> 769 152<447 448> 814 100<287.5 302>
VStem: 53 174<259 711> 177 50 447 82<921 921> 481 174<259 711>
AnchorPoint: "Anchor-3" 354 710 basechar 0
AnchorPoint: "Anchor-2" 470 1 basechar 0
AnchorPoint: "Anchor-0" 354 0 basechar 0
LayerCount: 2
Fore
SplineSet
409 769 m 0xca80
 376 769 358 776 331 799 c 0
 318 809 308 814 296 814 c 0xc640
 279 814 263 803 260 764 c 1
 177 764 l 1
 178 854 219 914 293 914 c 0xe140
 325 914 349 907 376 885 c 0
 391 874 400 869 411 869 c 0xd280
 430 869 444 880 447 921 c 1
 529 921 l 1
 528 828 487 769 409 769 c 0xca80
354 -16 m 0
 170 -16 53 91 53 259 c 2
 53 711 l 1
 227 711 l 1
 227 259 l 2
 227 174 272 126 354 126 c 0
 436 126 481 174 481 259 c 2
 481 711 l 1
 655 711 l 1
 655 259 l 2
 655 91 539 -16 354 -16 c 0
EndSplineSet
EndChar

StartChar: V
Encoding: 86 86 115
Width: 751
GlyphClass: 2
Flags: MW
HStem: 0 21G<275 275 275 475> 690 20G<18 197 197 197 554 733 733 733>
VStem: 18 715<710 710>
AnchorPoint: "Anchor-3" 376 710 basechar 0
AnchorPoint: "Anchor-0" 376 0 basechar 0
LayerCount: 2
Fore
SplineSet
275 0 m 1
 18 710 l 1
 197 710 l 1
 376 196 l 1
 554 710 l 1
 733 710 l 1
 475 0 l 1
 275 0 l 1
EndSplineSet
EndChar

StartChar: W
Encoding: 87 87 116
Width: 1038
GlyphClass: 2
Flags: MW
HStem: 0 21G<230 230 230 411 627 627 627 809> 690 20G<36 217 217 217 447 591 591 591 821 1001 1001 1001>
VStem: 36 965<710 710>
AnchorPoint: "Anchor-3" 519 710 basechar 0
AnchorPoint: "Anchor-0" 519 0 basechar 0
LayerCount: 2
Fore
SplineSet
230 0 m 1
 36 710 l 1
 217 710 l 1
 331 241 l 1
 447 710 l 1
 591 710 l 1
 708 241 l 1
 821 710 l 1
 1001 710 l 1
 809 0 l 1
 627 0 l 1
 519 422 l 1
 411 0 l 1
 230 0 l 1
EndSplineSet
EndChar

StartChar: Wacute
Encoding: 7810 7810 117
Width: 1038
GlyphClass: 2
Flags: MW
HStem: 0 21G<230 230 230 411 627 627 627 809> 690 20G<36 217 217 217 447 591 591 591 821 1001 1001 1001> 761 154<441 660 497 570>
VStem: 36 965<710 710>
AnchorPoint: "Anchor-3" 519 710 basechar 0
AnchorPoint: "Anchor-0" 519 0 basechar 0
LayerCount: 2
Fore
SplineSet
441 761 m 1
 497 915 l 1
 660 915 l 1
 570 761 l 1
 441 761 l 1
230 0 m 1
 36 710 l 1
 217 710 l 1
 331 241 l 1
 447 710 l 1
 591 710 l 1
 708 241 l 1
 821 710 l 1
 1001 710 l 1
 809 0 l 1
 627 0 l 1
 519 422 l 1
 411 0 l 1
 230 0 l 1
EndSplineSet
EndChar

StartChar: Wcircumflex
Encoding: 372 372 118
Width: 1038
GlyphClass: 2
Flags: MW
HStem: 0 21G<230 230 230 411 627 627 627 809> 690 20G<36 217 217 217 447 591 591 591 821 1001 1001 1001> 761 160<341 600 439 457 581 581 581 600 439 698>
VStem: 36 965<710 710>
AnchorPoint: "Anchor-3" 519 710 basechar 0
AnchorPoint: "Anchor-0" 519 0 basechar 0
LayerCount: 2
Fore
SplineSet
341 761 m 1
 439 921 l 1
 600 921 l 1
 698 761 l 1
 581 761 l 1
 519 850 l 1
 457 761 l 1
 341 761 l 1
230 0 m 1
 36 710 l 1
 217 710 l 1
 331 241 l 1
 447 710 l 1
 591 710 l 1
 708 241 l 1
 821 710 l 1
 1001 710 l 1
 809 0 l 1
 627 0 l 1
 519 422 l 1
 411 0 l 1
 230 0 l 1
EndSplineSet
EndChar

StartChar: Wdieresis
Encoding: 7812 7812 119
Width: 1038
GlyphClass: 2
Flags: MW
HStem: 0 21G<230 230 230 411 627 627 627 809> 690 20G<36 217 217 217 447 591 591 591 821 1001 1001 1001> 767 128<324 486 324 486 553 714 324 553>
VStem: 324 162<767 895 767 895> 553 161<767 895 767 895>
AnchorPoint: "Anchor-3" 519 710 basechar 0
AnchorPoint: "Anchor-0" 519 0 basechar 0
LayerCount: 2
Fore
SplineSet
324 767 m 1
 324 895 l 1
 486 895 l 1
 486 767 l 1
 324 767 l 1
553 767 m 1
 553 895 l 1
 714 895 l 1
 714 767 l 1
 553 767 l 1
230 0 m 1
 36 710 l 1
 217 710 l 1
 331 241 l 1
 447 710 l 1
 591 710 l 1
 708 241 l 1
 821 710 l 1
 1001 710 l 1
 809 0 l 1
 627 0 l 1
 519 422 l 1
 411 0 l 1
 230 0 l 1
EndSplineSet
Substitution2: "'ss08' Style Set 8 in Latin lookup 41 subtable" Wdieresis.ss08
Substitution2: "'aalt' Access All Alternates in Latin lookup 0 subtable" Wdieresis.ss08
EndChar

StartChar: Wgrave
Encoding: 7808 7808 120
Width: 1038
GlyphClass: 2
Flags: MW
HStem: 0 21G<230 230 230 411 627 627 627 809> 690 20G<36 217 217 217 447 591 591 591 821 1001 1001 1001> 768 153<466 466 466 539 376 595>
VStem: 36 965<710 710>
AnchorPoint: "Anchor-3" 519 710 basechar 0
AnchorPoint: "Anchor-0" 519 0 basechar 0
LayerCount: 2
Fore
SplineSet
466 768 m 1
 376 921 l 1
 539 921 l 1
 595 768 l 1
 466 768 l 1
230 0 m 1
 36 710 l 1
 217 710 l 1
 331 241 l 1
 447 710 l 1
 591 710 l 1
 708 241 l 1
 821 710 l 1
 1001 710 l 1
 809 0 l 1
 627 0 l 1
 519 422 l 1
 411 0 l 1
 230 0 l 1
EndSplineSet
EndChar

StartChar: X
Encoding: 88 88 121
Width: 715
GlyphClass: 2
Flags: MW
HStem: 0 21G<11 11 11 213 503 503 503 704> 690 20G<13 214 214 214 499 701 701 701>
VStem: 11 693<0 0>
AnchorPoint: "Anchor-3" 357 710 basechar 0
AnchorPoint: "Anchor-0" 357 0 basechar 0
LayerCount: 2
Fore
SplineSet
11 0 m 1
 255 356 l 1
 13 710 l 1
 214 710 l 1
 359 486 l 1
 499 710 l 1
 701 710 l 1
 460 358 l 1
 704 0 l 1
 503 0 l 1
 357 228 l 1
 213 0 l 1
 11 0 l 1
EndSplineSet
EndChar

StartChar: Y
Encoding: 89 89 122
Width: 650
GlyphClass: 2
Flags: MW
HStem: 0 21G<238 238 238 413> 690 20G<-8 182 182 182 467 657 657 657>
VStem: 238 175<0 271 0 271>
AnchorPoint: "Anchor-3" 326 710 basechar 0
AnchorPoint: "Anchor-0" 326 0 basechar 0
LayerCount: 2
Fore
SplineSet
238 0 m 1
 238 271 l 1
 -8 710 l 1
 182 710 l 1
 326 439 l 1
 467 710 l 1
 657 710 l 1
 413 271 l 1
 413 0 l 1
 238 0 l 1
EndSplineSet
EndChar

StartChar: Yacute
Encoding: 221 221 123
Width: 650
GlyphClass: 2
Flags: MW
HStem: 0 21G<238 238 238 413> 690 20G<-8 182 182 182 467 657 657 657> 761 154<247 466 303 376>
VStem: 238 175<0 271 0 271>
AnchorPoint: "Anchor-3" 326 710 basechar 0
AnchorPoint: "Anchor-0" 326 0 basechar 0
LayerCount: 2
Fore
SplineSet
247 761 m 1
 303 915 l 1
 466 915 l 1
 376 761 l 1
 247 761 l 1
238 0 m 1
 238 271 l 1
 -8 710 l 1
 182 710 l 1
 326 439 l 1
 467 710 l 1
 657 710 l 1
 413 271 l 1
 413 0 l 1
 238 0 l 1
EndSplineSet
EndChar

StartChar: Ycircumflex
Encoding: 374 374 124
Width: 650
GlyphClass: 2
Flags: MW
HStem: 0 21G<238 238 238 413> 690 20G<-8 182 182 182 467 657 657 657> 761 160<147 406 245 263 388 388 388 406 245 504>
VStem: 238 175<0 271 0 271>
AnchorPoint: "Anchor-3" 326 710 basechar 0
AnchorPoint: "Anchor-0" 326 0 basechar 0
LayerCount: 2
Fore
SplineSet
147 761 m 1
 245 921 l 1
 406 921 l 1
 504 761 l 1
 388 761 l 1
 326 850 l 1
 263 761 l 1
 147 761 l 1
238 0 m 1
 238 271 l 1
 -8 710 l 1
 182 710 l 1
 326 439 l 1
 467 710 l 1
 657 710 l 1
 413 271 l 1
 413 0 l 1
 238 0 l 1
EndSplineSet
EndChar

StartChar: Ydieresis
Encoding: 376 376 125
Width: 650
GlyphClass: 2
Flags: MW
HStem: 0 21G<238 238 238 413> 690 20G<-8 182 182 182 467 657 657 657> 767 128<131 292 131 292 359 521 131 359>
VStem: 131 161<767 895 767 895> 238 175<0 271 0 271> 359 162<767 895 767 895>
AnchorPoint: "Anchor-3" 326 710 basechar 0
AnchorPoint: "Anchor-0" 326 0 basechar 0
LayerCount: 2
Fore
SplineSet
131 767 m 1xf4
 131 895 l 1
 292 895 l 1
 292 767 l 1
 131 767 l 1xf4
359 767 m 1
 359 895 l 1
 521 895 l 1
 521 767 l 1
 359 767 l 1
238 0 m 1xe8
 238 271 l 1
 -8 710 l 1
 182 710 l 1
 326 439 l 1
 467 710 l 1
 657 710 l 1
 413 271 l 1
 413 0 l 1
 238 0 l 1xe8
EndSplineSet
Substitution2: "'ss08' Style Set 8 in Latin lookup 41 subtable" Ydieresis.ss08
Substitution2: "'aalt' Access All Alternates in Latin lookup 0 subtable" Ydieresis.ss08
EndChar

StartChar: Ygrave
Encoding: 7922 7922 126
Width: 650
GlyphClass: 2
Flags: MW
HStem: 0 21G<238 238 238 413> 690 20G<-8 182 182 182 467 657 657 657> 768 153<272 272 272 345 182 401>
VStem: 238 175<0 271 0 271>
AnchorPoint: "Anchor-3" 326 710 basechar 0
AnchorPoint: "Anchor-0" 326 0 basechar 0
LayerCount: 2
Fore
SplineSet
272 768 m 1
 182 921 l 1
 345 921 l 1
 401 768 l 1
 272 768 l 1
238 0 m 1
 238 271 l 1
 -8 710 l 1
 182 710 l 1
 326 439 l 1
 467 710 l 1
 657 710 l 1
 413 271 l 1
 413 0 l 1
 238 0 l 1
EndSplineSet
EndChar

StartChar: uni1EF8
Encoding: 7928 7928 127
Width: 650
GlyphClass: 2
Flags: MW
HStem: 0 21G<238 238 238 413> 690 20G<-8 182 182 182 467 657 657 657> 764 150<228 232 149 281> 769 100<377.5 392.5 377.5 419.5> 769 152<419 419.5> 814 100<259.5 274>
VStem: 149 83<764 764> 238 175<0 271 0 271> 419 82<921 921>
AnchorPoint: "Anchor-3" 326 710 basechar 0
AnchorPoint: "Anchor-0" 326 0 basechar 0
LayerCount: 2
Fore
SplineSet
381 769 m 0xc880
 348 769 329 776 303 799 c 0
 290 809 280 814 268 814 c 0xc6
 251 814 235 803 232 764 c 1
 149 764 l 1
 150 854 191 914 265 914 c 0xe2
 297 914 321 907 348 885 c 0
 363 874 372 869 383 869 c 0xd080
 402 869 416 880 419 921 c 1
 501 921 l 1
 500 828 458 769 381 769 c 0xc880
238 0 m 1xe1
 238 271 l 1
 -8 710 l 1
 182 710 l 1
 326 439 l 1
 467 710 l 1
 657 710 l 1
 413 271 l 1
 413 0 l 1
 238 0 l 1xe1
EndSplineSet
EndChar

StartChar: Z
Encoding: 90 90 128
Width: 610
GlyphClass: 2
Flags: MW
HStem: 0 142<237 584 237 584> 568 142<43 351 43 570>
VStem: 26 558<0 136 136 136>
AnchorPoint: "Anchor-3" 314 710 basechar 0
AnchorPoint: "Anchor-0" 314 0 basechar 0
LayerCount: 2
Fore
SplineSet
26 0 m 1
 26 136 l 1
 351 568 l 1
 43 568 l 1
 43 710 l 1
 570 710 l 1
 570 574 l 1
 237 142 l 1
 584 142 l 1
 584 0 l 1
 26 0 l 1
EndSplineSet
EndChar

StartChar: Zacute
Encoding: 377 377 129
Width: 610
GlyphClass: 2
Flags: MW
HStem: 0 142<237 584 237 584> 568 142<43 351 43 570> 761 154<236 455 292 365>
VStem: 26 558<0 136 136 136>
AnchorPoint: "Anchor-3" 314 710 basechar 0
AnchorPoint: "Anchor-0" 314 0 basechar 0
LayerCount: 2
Fore
SplineSet
236 761 m 1
 292 915 l 1
 455 915 l 1
 365 761 l 1
 236 761 l 1
26 0 m 1
 26 136 l 1
 351 568 l 1
 43 568 l 1
 43 710 l 1
 570 710 l 1
 570 574 l 1
 237 142 l 1
 584 142 l 1
 584 0 l 1
 26 0 l 1
EndSplineSet
EndChar

StartChar: Zcaron
Encoding: 381 381 130
Width: 610
GlyphClass: 2
Flags: MW
HStem: 0 142<237 584 237 584> 568 142<43 351 43 570> 761 160<234 252 377 395 234 234>
VStem: 26 558<0 136 136 136>
AnchorPoint: "Anchor-3" 314 710 basechar 0
AnchorPoint: "Anchor-0" 314 0 basechar 0
LayerCount: 2
Fore
SplineSet
136 921 m 1
 252 921 l 1
 314 832 l 1
 377 921 l 1
 493 921 l 1
 395 761 l 1
 234 761 l 1
 136 921 l 1
26 0 m 1
 26 136 l 1
 351 568 l 1
 43 568 l 1
 43 710 l 1
 570 710 l 1
 570 574 l 1
 237 142 l 1
 584 142 l 1
 584 0 l 1
 26 0 l 1
EndSplineSet
EndChar

StartChar: Zdotaccent
Encoding: 379 379 131
Width: 610
GlyphClass: 2
Flags: MW
HStem: 0 142<237 584 237 584> 568 142<43 351 43 570> 770 128<226 403 226 403>
VStem: 226 177<770 898 770 898>
AnchorPoint: "Anchor-3" 314 710 basechar 0
AnchorPoint: "Anchor-0" 314 0 basechar 0
LayerCount: 2
Fore
SplineSet
226 770 m 1
 226 898 l 1
 403 898 l 1
 403 770 l 1
 226 770 l 1
26 0 m 1
 26 136 l 1
 351 568 l 1
 43 568 l 1
 43 710 l 1
 570 710 l 1
 570 574 l 1
 237 142 l 1
 584 142 l 1
 584 0 l 1
 26 0 l 1
EndSplineSet
Substitution2: "'ss08' Style Set 8 in Latin lookup 41 subtable" Zdotaccent.ss08
Substitution2: "'aalt' Access All Alternates in Latin lookup 0 subtable" Zdotaccent.ss08
EndChar

StartChar: uniA78B
Encoding: 42891 42891 132
Width: 243
GlyphClass: 1
Flags: MW
HStem: 690 20G<41 202 202 202>
VStem: 41 161<563 710 563 710>
LayerCount: 2
Fore
SplineSet
55 323 m 1
 41 563 l 1
 41 710 l 1
 202 710 l 1
 202 563 l 1
 189 323 l 1
 55 323 l 1
EndSplineSet
EndChar

StartChar: uni013B.loclMAH
Encoding: 65538 -1 133
Width: 592
GlyphClass: 2
Flags: MW
HStem: -173 126<244 278 244 384> 0 142<242 560 242 560> 690 20G<68 242 242 242>
VStem: 68 174<142 710 142 710 142 710> 244 140<-160 -47 -160 -47 -160 -47>
AnchorPoint: "Anchor-4" 356 538 basechar 0
AnchorPoint: "Anchor-3" 155 710 basechar 0
AnchorPoint: "Anchor-1" 187 380 basechar 0
AnchorPoint: "Anchor-0" 314 -258 basechar 0
LayerCount: 2
Fore
SplineSet
68 0 m 1
 68 710 l 1
 242 710 l 1
 242 142 l 1
 560 142 l 1
 560 0 l 1
 68 0 l 1
227 -258 m 1
 278 -173 l 1
 244 -173 l 1
 244 -47 l 1
 384 -47 l 1
 384 -160 l 1xe8
 325 -258 l 1
 227 -258 l 1
EndSplineSet
EndChar

StartChar: uni0145.loclMAH
Encoding: 65539 -1 134
Width: 753
GlyphClass: 2
Flags: MW
HStem: -173 126<302 336 302 442> 0 21G<68 68 68 242 501 501 501 685> 690 20G<68 251 251 251 511 685 685 685>
VStem: 68 174<0 426 0 710> 302 140<-160 -47 -160 -47 -160 -47> 511 174<265 710 0 710>
AnchorPoint: "Anchor-3" 380 710 basechar 0
AnchorPoint: "Anchor-0" 372 -258 basechar 0
LayerCount: 2
Fore
SplineSet
68 0 m 1
 68 710 l 1
 251 710 l 1
 511 265 l 1
 511 710 l 1
 685 710 l 1
 685 0 l 1
 501 0 l 1
 242 426 l 1
 242 0 l 1
 68 0 l 1
285 -258 m 1
 336 -173 l 1
 302 -173 l 1
 302 -47 l 1
 442 -47 l 1
 442 -160 l 1
 383 -258 l 1
 285 -258 l 1
EndSplineSet
EndChar

StartChar: R.ss04
Encoding: 65540 -1 135
Width: 719
GlyphClass: 2
Flags: MW
HStem: 0 21G<68 68 68 242 485 485 485 672> 252 141<242 350 350 355 242 350> 568 142<242 350 242 242>
VStem: 68 174<0 252 393 568> 465 177<450 508.5>
AnchorPoint: "Anchor-3" 346 710 basechar 0
AnchorPoint: "Anchor-0" 346 0 basechar 0
LayerCount: 2
Fore
SplineSet
68 0 m 1
 68 710 l 1
 362 710 l 2
 541 710 642 627 642 481 c 0
 642 394 601 317 517 284 c 1
 672 0 l 1
 485 0 l 1
 355 252 l 1
 242 252 l 1
 242 0 l 1
 68 0 l 1
242 393 m 1
 350 393 l 2
 418 393 465 421 465 479 c 0
 465 538 418 568 350 568 c 2
 242 568 l 1
 242 393 l 1
EndSplineSet
EndChar

StartChar: Racute.ss04
Encoding: 65541 -1 136
Width: 719
GlyphClass: 2
Flags: MW
HStem: 0 21G<68 68 68 242 485 485 485 672> 252 141<242 350 350 355 242 350> 568 142<242 350 242 242> 761 154<267 486 323 396>
VStem: 68 174<0 252 393 568> 465 177<450 508.5>
AnchorPoint: "Anchor-3" 346 710 basechar 0
AnchorPoint: "Anchor-0" 346 0 basechar 0
LayerCount: 2
Fore
SplineSet
267 761 m 1
 323 915 l 1
 486 915 l 1
 396 761 l 1
 267 761 l 1
68 0 m 1
 68 710 l 1
 362 710 l 2
 541 710 642 627 642 481 c 0
 642 394 601 317 517 284 c 1
 672 0 l 1
 485 0 l 1
 355 252 l 1
 242 252 l 1
 242 0 l 1
 68 0 l 1
242 393 m 1
 350 393 l 2
 418 393 465 421 465 479 c 0
 465 538 418 568 350 568 c 2
 242 568 l 1
 242 393 l 1
EndSplineSet
EndChar

StartChar: Rcaron.ss04
Encoding: 65542 -1 137
Width: 719
GlyphClass: 2
Flags: MW
HStem: 0 21G<68 68 68 242 485 485 485 672> 252 141<242 350 350 355 242 350> 568 142<242 350 242 242> 761 160<265 283 408 426 265 265>
VStem: 68 174<0 252 393 568> 465 177<450 508.5>
AnchorPoint: "Anchor-3" 346 710 basechar 0
AnchorPoint: "Anchor-0" 346 0 basechar 0
LayerCount: 2
Fore
SplineSet
167 921 m 1
 283 921 l 1
 346 832 l 1
 408 921 l 1
 524 921 l 1
 426 761 l 1
 265 761 l 1
 167 921 l 1
68 0 m 1
 68 710 l 1
 362 710 l 2
 541 710 642 627 642 481 c 0
 642 394 601 317 517 284 c 1
 672 0 l 1
 485 0 l 1
 355 252 l 1
 242 252 l 1
 242 0 l 1
 68 0 l 1
242 393 m 1
 350 393 l 2
 418 393 465 421 465 479 c 0
 465 538 418 568 350 568 c 2
 242 568 l 1
 242 393 l 1
EndSplineSet
EndChar

StartChar: uni0156.ss04
Encoding: 65543 -1 138
Width: 719
GlyphClass: 2
Flags: MW
HStem: -173 126<276 310 276 416> 0 21G<68 68 68 242 485 485 485 672> 252 141<242 350 350 355 242 350> 568 142<242 350 242 242>
VStem: 68 174<0 252 393 568> 276 140<-160 -47 -160 -47 -160 -47> 465 177<450 508.5>
AnchorPoint: "Anchor-3" 346 710 basechar 0
AnchorPoint: "Anchor-0" 346 -258 basechar 0
LayerCount: 2
Fore
SplineSet
68 0 m 1
 68 710 l 1
 362 710 l 2
 541 710 642 627 642 481 c 0
 642 394 601 317 517 284 c 1
 672 0 l 1
 485 0 l 1
 355 252 l 1
 242 252 l 1
 242 0 l 1
 68 0 l 1
242 393 m 1
 350 393 l 2
 418 393 465 421 465 479 c 0
 465 538 418 568 350 568 c 2
 242 568 l 1
 242 393 l 1
259 -258 m 1
 310 -173 l 1
 276 -173 l 1
 276 -47 l 1
 416 -47 l 1
 416 -160 l 1
 357 -258 l 1
 259 -258 l 1
EndSplineSet
EndChar

StartChar: I.ss05
Encoding: 65544 -1 139
Width: 488
GlyphClass: 2
Flags: MW
HStem: 0 142<41 156 41 156 331 447> 568 142<47 156 47 441 331 331 331 441>
VStem: 156 175<142 568 142 568>
AnchorPoint: "Anchor-3" 243 710 basechar 0
AnchorPoint: "Anchor-2" 447 0 basechar 0
AnchorPoint: "Anchor-0" 243 0 basechar 0
LayerCount: 2
Fore
SplineSet
41 0 m 1
 41 142 l 1
 156 142 l 1
 156 568 l 1
 47 568 l 1
 47 710 l 1
 441 710 l 1
 441 568 l 1
 331 568 l 1
 331 142 l 1
 447 142 l 1
 447 0 l 1
 41 0 l 1
EndSplineSet
EndChar

StartChar: Iacute.ss05
Encoding: 65545 -1 140
Width: 488
GlyphClass: 2
Flags: MW
HStem: 0 142<41 156 41 156 331 447> 568 142<47 156 47 441 331 331 331 441> 761 154<165 384 221 294>
VStem: 156 175<142 568 142 568>
AnchorPoint: "Anchor-3" 243 710 basechar 0
AnchorPoint: "Anchor-2" 447 0 basechar 0
AnchorPoint: "Anchor-0" 243 0 basechar 0
LayerCount: 2
Fore
SplineSet
165 761 m 1
 221 915 l 1
 384 915 l 1
 294 761 l 1
 165 761 l 1
41 0 m 1
 41 142 l 1
 156 142 l 1
 156 568 l 1
 47 568 l 1
 47 710 l 1
 441 710 l 1
 441 568 l 1
 331 568 l 1
 331 142 l 1
 447 142 l 1
 447 0 l 1
 41 0 l 1
EndSplineSet
EndChar

StartChar: Icircumflex.ss05
Encoding: 65546 -1 141
Width: 488
GlyphClass: 2
Flags: MW
HStem: 0 142<41 156 41 156 331 447> 568 142<47 156 47 441 331 331 331 441> 761 160<65 324 163 181 306 306 306 324 163 422>
VStem: 156 175<142 568 142 568>
AnchorPoint: "Anchor-3" 243 710 basechar 0
AnchorPoint: "Anchor-2" 447 0 basechar 0
AnchorPoint: "Anchor-0" 243 0 basechar 0
LayerCount: 2
Fore
SplineSet
65 761 m 1
 163 921 l 1
 324 921 l 1
 422 761 l 1
 306 761 l 1
 243 850 l 1
 181 761 l 1
 65 761 l 1
41 0 m 1
 41 142 l 1
 156 142 l 1
 156 568 l 1
 47 568 l 1
 47 710 l 1
 441 710 l 1
 441 568 l 1
 331 568 l 1
 331 142 l 1
 447 142 l 1
 447 0 l 1
 41 0 l 1
EndSplineSet
EndChar

StartChar: Idieresis.ss05
Encoding: 65547 -1 142
Width: 488
GlyphClass: 2
Flags: MW
HStem: 0 142<41 156 41 156 331 447> 568 142<47 156 47 441 331 331 331 441> 767 128<48 210 48 210 277 438 48 277>
VStem: 47 163<568 895 710 895> 48 162<767 895 767 895> 156 175<142 568 142 568> 277 161<767 895 767 895> 277 164<568 895>
AnchorPoint: "Anchor-3" 243 710 basechar 0
AnchorPoint: "Anchor-2" 447 0 basechar 0
AnchorPoint: "Anchor-0" 243 0 basechar 0
LayerCount: 2
Fore
SplineSet
48 767 m 1xea
 48 895 l 1
 210 895 l 1
 210 767 l 1
 48 767 l 1xea
277 767 m 1
 277 895 l 1
 438 895 l 1
 438 767 l 1
 277 767 l 1
41 0 m 1
 41 142 l 1
 156 142 l 1
 156 568 l 1xe4
 47 568 l 1
 47 710 l 1
 441 710 l 1
 441 568 l 1xf1
 331 568 l 1
 331 142 l 1xe4
 447 142 l 1
 447 0 l 1
 41 0 l 1
EndSplineSet
Substitution2: "'ss08' Style Set 8 in Latin lookup 41 subtable" Idieresis.ss05.ss08
Substitution2: "'aalt' Access All Alternates in Latin lookup 0 subtable" Idieresis.ss05.ss08
EndChar

StartChar: Idotaccent.ss05
Encoding: 65548 -1 143
Width: 488
GlyphClass: 2
Flags: MW
HStem: 0 142<41 156 41 156 331 447> 568 142<47 156 47 441 331 331 331 441> 770 128<155 332 155 332>
VStem: 155 177<770 898 770 898> 156 175<142 568 142 568>
AnchorPoint: "Anchor-3" 243 710 basechar 0
AnchorPoint: "Anchor-2" 447 0 basechar 0
AnchorPoint: "Anchor-0" 243 0 basechar 0
LayerCount: 2
Fore
SplineSet
155 770 m 1xf0
 155 898 l 1
 332 898 l 1
 332 770 l 1
 155 770 l 1xf0
41 0 m 1
 41 142 l 1
 156 142 l 1
 156 568 l 1
 47 568 l 1
 47 710 l 1
 441 710 l 1
 441 568 l 1
 331 568 l 1
 331 142 l 1xe8
 447 142 l 1
 447 0 l 1
 41 0 l 1
EndSplineSet
Substitution2: "'ss08' Style Set 8 in Latin lookup 41 subtable" Idotaccent.ss05.ss08
Substitution2: "'aalt' Access All Alternates in Latin lookup 0 subtable" Idotaccent.ss05.ss08
EndChar

StartChar: Igrave.ss05
Encoding: 65549 -1 144
Width: 488
GlyphClass: 2
Flags: MW
HStem: 0 142<41 156 41 156 331 447> 568 142<47 156 47 441 331 331 331 441> 768 153<190 190 190 263 100 319>
VStem: 156 175<142 568 142 568>
AnchorPoint: "Anchor-3" 243 710 basechar 0
AnchorPoint: "Anchor-2" 447 0 basechar 0
AnchorPoint: "Anchor-0" 243 0 basechar 0
LayerCount: 2
Fore
SplineSet
190 768 m 1
 100 921 l 1
 263 921 l 1
 319 768 l 1
 190 768 l 1
41 0 m 1
 41 142 l 1
 156 142 l 1
 156 568 l 1
 47 568 l 1
 47 710 l 1
 441 710 l 1
 441 568 l 1
 331 568 l 1
 331 142 l 1
 447 142 l 1
 447 0 l 1
 41 0 l 1
EndSplineSet
EndChar

StartChar: Imacron.ss05
Encoding: 65550 -1 145
Width: 488
GlyphClass: 2
Flags: MW
HStem: 0 142<41 156 41 156 331 447> 568 142<47 156 47 441 331 331 331 441> 773 122<89 398 89 398>
VStem: 89 309<773 895 773 895> 156 175<142 568 142 568>
AnchorPoint: "Anchor-3" 243 710 basechar 0
AnchorPoint: "Anchor-2" 447 0 basechar 0
AnchorPoint: "Anchor-0" 243 0 basechar 0
LayerCount: 2
Fore
SplineSet
89 773 m 1xf0
 89 895 l 1
 398 895 l 1
 398 773 l 1
 89 773 l 1xf0
41 0 m 1
 41 142 l 1
 156 142 l 1
 156 568 l 1
 47 568 l 1
 47 710 l 1
 441 710 l 1
 441 568 l 1
 331 568 l 1
 331 142 l 1xe8
 447 142 l 1
 447 0 l 1
 41 0 l 1
EndSplineSet
EndChar

StartChar: Iogonek.ss05
Encoding: 65551 -1 146
Width: 488
GlyphClass: 2
Flags: MW
HStem: -220 97<333 419.5> 0 142<41 156 41 156 41 313> 568 142<47 156 47 441 331 331 331 441>
VStem: 156 175<142 568 142 568> 251 135<-158.5 -90> 251 196<-158.5 142>
AnchorPoint: "Anchor-3" 243 710 basechar 0
AnchorPoint: "Anchor-2" 447 0 basechar 0
AnchorPoint: "Anchor-0" 243 0 basechar 0
LayerCount: 2
Fore
SplineSet
41 0 m 1xe4
 41 142 l 1
 156 142 l 1
 156 568 l 1
 47 568 l 1
 47 710 l 1
 441 710 l 1
 441 568 l 1
 331 568 l 1
 331 142 l 1x70
 447 142 l 1
 447 0 l 1x64
 418 -37 l 2
 400 -61 386 -82 386 -98 c 0xe8
 386 -115 398 -123 411 -123 c 0
 428 -123 446 -117 455 -110 c 1
 484 -194 l 1
 465 -208 416 -220 371 -220 c 0
 295 -220 251 -188 251 -129 c 0
 251 -88 274 -50 298 -19 c 2
 313 0 l 1
 41 0 l 1xe4
EndSplineSet
EndChar

StartChar: Itilde.ss05
Encoding: 65552 -1 147
Width: 488
GlyphClass: 2
Flags: MW
HStem: 0 142<41 156 41 156 331 447> 568 142<47 156 47 441 331 331 331 441> 764 150<146 149 67 199> 769 100<295.5 310 295.5 337> 769 152<336 337> 814 100<177 192>
VStem: 67 82<764 809> 156 175<142 568 142 568> 336 83<921 921>
AnchorPoint: "Anchor-3" 243 710 basechar 0
AnchorPoint: "Anchor-2" 447 0 basechar 0
AnchorPoint: "Anchor-0" 243 0 basechar 0
LayerCount: 2
Fore
SplineSet
298 769 m 0xc880
 266 769 247 776 220 799 c 0
 208 809 198 814 186 814 c 0xc6
 168 814 153 803 149 764 c 1
 67 764 l 1
 67 854 109 914 183 914 c 0xe2
 215 914 239 907 266 885 c 0
 281 874 290 869 301 869 c 0xd080
 319 869 334 880 336 921 c 1
 419 921 l 1
 418 828 376 769 298 769 c 0xc880
41 0 m 1
 41 142 l 1
 156 142 l 1
 156 568 l 1
 47 568 l 1
 47 710 l 1
 441 710 l 1
 441 568 l 1
 331 568 l 1
 331 142 l 1xc1
 447 142 l 1
 447 0 l 1
 41 0 l 1
EndSplineSet
EndChar

StartChar: G.ss06
Encoding: 65553 -1 148
Width: 741
GlyphClass: 2
Flags: MW
HStem: -16 142<329 428.5 329 483> 252 121<385 532 385 705> 584 142<330 429.5>
VStem: 41 179<286.5 421 286.5 460.5> 385 320<252 331 331 373 214 373> 532 173<252 252>
AnchorPoint: "Anchor-3" 387 710 basechar 0
AnchorPoint: "Anchor-0" 389 0 basechar 0
LayerCount: 2
Fore
SplineSet
387 -16 m 0xf4
 156 -16 41 142 41 354 c 0
 41 567 166 726 391 726 c 0
 567 726 674 631 703 472 c 1
 523 464 l 1
 510 539 472 584 387 584 c 0
 273 584 220 488 220 354 c 0
 220 219 275 126 383 126 c 0
 474 126 525 174 532 252 c 1xf4
 385 252 l 1
 385 373 l 1xf8
 705 373 l 1
 705 331 l 2
 705 97 579 -16 387 -16 c 0xf4
EndSplineSet
EndChar

StartChar: Gbreve.ss06
Encoding: 65554 -1 149
Width: 741
GlyphClass: 2
Flags: MW
HStem: -16 142<329 428.5 329 483> 252 121<385 532 385 705> 584 142<330 429.5> 760 89<368 406 368 435> 760 153<224 435>
VStem: 41 179<286.5 421 286.5 460.5> 385 320<252 331 331 373 214 373> 532 173<252 252>
AnchorPoint: "Anchor-3" 387 710 basechar 0
AnchorPoint: "Anchor-0" 389 0 basechar 0
LayerCount: 2
Fore
SplineSet
387 760 m 0xee
 290 760 228 815 224 913 c 1xed
 321 913 l 1
 325 867 349 849 387 849 c 0xf4
 425 849 448 867 452 913 c 1
 549 913 l 1
 545 815 483 760 387 760 c 0xee
387 -16 m 0
 156 -16 41 142 41 354 c 0
 41 567 166 726 391 726 c 0
 567 726 674 631 703 472 c 1
 523 464 l 1
 510 539 472 584 387 584 c 0
 273 584 220 488 220 354 c 0
 220 219 275 126 383 126 c 0
 474 126 525 174 532 252 c 1xf5
 385 252 l 1
 385 373 l 1xf6
 705 373 l 1
 705 331 l 2
 705 97 579 -16 387 -16 c 0
EndSplineSet
EndChar

StartChar: Gcircumflex.ss06
Encoding: 65555 -1 150
Width: 741
GlyphClass: 2
Flags: MW
HStem: -16 142<329 428.5 329 483> 252 121<385 532 385 705> 584 142<330 429.5> 761 160<208 467 306 324 449 449 449 467 306 565>
VStem: 41 179<286.5 421 286.5 460.5> 385 320<252 331 331 373 214 373> 532 173<252 252>
AnchorPoint: "Anchor-3" 387 710 basechar 0
AnchorPoint: "Anchor-0" 389 0 basechar 0
LayerCount: 2
Fore
SplineSet
208 761 m 1xfa
 306 921 l 1
 467 921 l 1
 565 761 l 1
 449 761 l 1
 387 850 l 1
 324 761 l 1
 208 761 l 1xfa
387 -16 m 0
 156 -16 41 142 41 354 c 0
 41 567 166 726 391 726 c 0
 567 726 674 631 703 472 c 1
 523 464 l 1
 510 539 472 584 387 584 c 0
 273 584 220 488 220 354 c 0
 220 219 275 126 383 126 c 0
 474 126 525 174 532 252 c 1xfa
 385 252 l 1
 385 373 l 1xfc
 705 373 l 1
 705 331 l 2
 705 97 579 -16 387 -16 c 0
EndSplineSet
EndChar

StartChar: uni0122.ss06
Encoding: 65556 -1 151
Width: 741
GlyphClass: 2
Flags: MW
HStem: -173 126<319 354 319 459> -16 142<329 428.5 329 483> 252 121<385 532 385 705> 584 142<330 429.5>
VStem: 41 179<286.5 421 286.5 460.5> 319 140<-160 -47 -160 -47 -160 -47> 385 320<252 331 331 373 214 373> 532 173<252 252>
AnchorPoint: "Anchor-3" 387 710 basechar 0
AnchorPoint: "Anchor-0" 389 -258 basechar 0
LayerCount: 2
Fore
SplineSet
387 -16 m 0xfd
 156 -16 41 142 41 354 c 0
 41 567 166 726 391 726 c 0
 567 726 674 631 703 472 c 1
 523 464 l 1
 510 539 472 584 387 584 c 0
 273 584 220 488 220 354 c 0
 220 219 275 126 383 126 c 0
 474 126 525 174 532 252 c 1xfd
 385 252 l 1
 385 373 l 1xfa
 705 373 l 1
 705 331 l 2
 705 97 579 -16 387 -16 c 0xfd
303 -258 m 1
 354 -173 l 1
 319 -173 l 1
 319 -47 l 1
 459 -47 l 1
 459 -160 l 1
 401 -258 l 1
 303 -258 l 1
EndSplineSet
EndChar

StartChar: Gdotaccent.ss06
Encoding: 65557 -1 152
Width: 741
GlyphClass: 2
Flags: MW
HStem: -16 142<329 428.5 329 483> 252 121<385 532 385 705> 584 142<330 429.5> 770 128<298 475 298 475>
VStem: 41 179<286.5 421 286.5 460.5> 298 177<770 898 770 898> 385 320<252 331 331 373 214 373> 532 173<252 252>
AnchorPoint: "Anchor-3" 387 710 basechar 0
AnchorPoint: "Anchor-0" 389 0 basechar 0
LayerCount: 2
Fore
SplineSet
298 770 m 1xfd
 298 898 l 1
 475 898 l 1
 475 770 l 1
 298 770 l 1xfd
387 -16 m 0
 156 -16 41 142 41 354 c 0
 41 567 166 726 391 726 c 0
 567 726 674 631 703 472 c 1
 523 464 l 1
 510 539 472 584 387 584 c 0
 273 584 220 488 220 354 c 0
 220 219 275 126 383 126 c 0
 474 126 525 174 532 252 c 1xfd
 385 252 l 1
 385 373 l 1xfa
 705 373 l 1
 705 331 l 2
 705 97 579 -16 387 -16 c 0
EndSplineSet
Substitution2: "'ss08' Style Set 8 in Latin lookup 41 subtable" Gdotaccent.ss06.ss08
Substitution2: "'aalt' Access All Alternates in Latin lookup 0 subtable" Gdotaccent.ss06.ss08
EndChar

StartChar: uni1E20.ss06
Encoding: 65558 -1 153
Width: 741
GlyphClass: 2
Flags: MW
HStem: -16 142<329 428.5 329 483> 252 121<385 532 385 705> 584 142<330 429.5> 773 122<232 541 232 541>
VStem: 41 179<286.5 421 286.5 460.5> 232 309<773 895 773 895> 385 320<252 331 331 373 214 373> 532 173<252 252>
AnchorPoint: "Anchor-3" 387 710 basechar 0
AnchorPoint: "Anchor-0" 389 0 basechar 0
LayerCount: 2
Fore
SplineSet
232 773 m 1xf4
 232 895 l 1
 541 895 l 1
 541 773 l 1
 232 773 l 1xf4
387 -16 m 0
 156 -16 41 142 41 354 c 0
 41 567 166 726 391 726 c 0
 567 726 674 631 703 472 c 1
 523 464 l 1
 510 539 472 584 387 584 c 0
 273 584 220 488 220 354 c 0
 220 219 275 126 383 126 c 0
 474 126 525 174 532 252 c 1xf9
 385 252 l 1
 385 373 l 1xfa
 705 373 l 1
 705 331 l 2xf9
 705 97 579 -16 387 -16 c 0
EndSplineSet
EndChar

StartChar: Adieresis.ss08
Encoding: 65559 -1 154
Width: 750
GlyphClass: 2
Flags: MW
HStem: 0 21G<18 18 18 196 553 553 553 732> 134 138<290 460 290 507 243 460> 690 20G<274 476 476 476> 756 158<240.5 291 460.5 511>
VStem: 184 163<810.5 859.5> 404 163<810.5 859.5>
AnchorPoint: "Anchor-3" 376 710 basechar 0
AnchorPoint: "Anchor-2" 732 0 basechar 0
AnchorPoint: "Anchor-0" 376 0 basechar 0
LayerCount: 2
Fore
SplineSet
266 756 m 0
 215 756 184 786 184 835 c 0
 184 884 215 914 266 914 c 0
 316 914 347 884 347 835 c 0
 347 786 316 756 266 756 c 0
486 756 m 0
 435 756 404 786 404 835 c 0
 404 884 435 914 486 914 c 0
 536 914 567 884 567 835 c 0
 567 786 536 756 486 756 c 0
18 0 m 1
 274 710 l 1
 476 710 l 1
 732 0 l 1
 553 0 l 1
 507 134 l 1
 243 134 l 1
 196 0 l 1
 18 0 l 1
290 272 m 1
 460 272 l 1
 376 522 l 1
 290 272 l 1
EndSplineSet
EndChar

StartChar: Cdotaccent.ss08
Encoding: 65560 -1 155
Width: 745
GlyphClass: 2
Flags: MW
HStem: -16 142<331 424 331 473.5> 584 142<329.5 421> 756 158<357 407.5>
VStem: 41 179<284 422.5 284 466.5> 297 170<810.5 859.5>
AnchorPoint: "Anchor-3" 382 710 basechar 0
AnchorPoint: "Anchor-0" 383 0 basechar 0
LayerCount: 2
Fore
SplineSet
382 756 m 0
 332 756 297 786 297 835 c 0
 297 884 332 914 382 914 c 0
 433 914 467 884 467 835 c 0
 467 786 433 756 382 756 c 0
379 -16 m 0
 183 -16 41 121 41 354 c 0
 41 579 173 726 382 726 c 0
 573 726 676 630 707 455 c 1
 526 448 l 1
 511 533 460 584 382 584 c 0xd8
 277 584 220 491 220 354 c 0
 220 214 281 126 381 126 c 0
 467 126 514 179 527 271 c 1
 709 264 l 1
 679 85 568 -16 379 -16 c 0
EndSplineSet
EndChar

StartChar: Edieresis.ss08
Encoding: 65561 -1 156
Width: 628
GlyphClass: 2
Flags: MW
HStem: 0 142<242 586 242 586> 285 142<242 566 242 566> 568 142<242 578 242 242> 756 158<188 238.5 408 458.5>
VStem: 68 174<142 285 427 568> 132 163<810.5 859.5> 352 163<810.5 859.5>
AnchorPoint: "Anchor-3" 323 710 basechar 0
AnchorPoint: "Anchor-2" 586 0 basechar 0
AnchorPoint: "Anchor-0" 324 0 basechar 0
LayerCount: 2
Fore
SplineSet
213 756 m 0xf6
 163 756 132 786 132 835 c 0
 132 884 163 914 213 914 c 0
 264 914 295 884 295 835 c 0
 295 786 264 756 213 756 c 0xf6
433 756 m 0
 383 756 352 786 352 835 c 0
 352 884 383 914 433 914 c 0
 484 914 515 884 515 835 c 0
 515 786 484 756 433 756 c 0
68 0 m 1xe8
 68 710 l 1
 578 710 l 1
 578 568 l 1
 242 568 l 1
 242 427 l 1
 566 427 l 1
 566 285 l 1
 242 285 l 1
 242 142 l 1
 586 142 l 1
 586 0 l 1
 68 0 l 1xe8
EndSplineSet
EndChar

StartChar: Edotaccent.ss08
Encoding: 65562 -1 157
Width: 628
GlyphClass: 2
Flags: MW
HStem: 0 142<242 586 242 586> 285 142<242 566 242 566> 568 142<242 578 242 242> 756 158<298.5 349>
VStem: 68 174<142 285 427 568> 239 169<810.5 859.5>
AnchorPoint: "Anchor-3" 323 710 basechar 0
AnchorPoint: "Anchor-2" 586 0 basechar 0
AnchorPoint: "Anchor-0" 324 0 basechar 0
LayerCount: 2
Fore
SplineSet
324 756 m 0xf4
 273 756 239 786 239 835 c 0
 239 884 273 914 324 914 c 0
 374 914 408 884 408 835 c 0
 408 786 374 756 324 756 c 0xf4
68 0 m 1xe8
 68 710 l 1
 578 710 l 1
 578 568 l 1
 242 568 l 1
 242 427 l 1
 566 427 l 1
 566 285 l 1
 242 285 l 1
 242 142 l 1
 586 142 l 1
 586 0 l 1
 68 0 l 1xe8
EndSplineSet
EndChar

StartChar: Gdotaccent.ss08
Encoding: 65563 -1 158
Width: 751
GlyphClass: 2
Flags: MW
HStem: -16 142<330.5 423> 0 21G<601 705 601 601> 252 121<385 532 385 705> 584 142<331 427.5> 756 158<360.5 411>
VStem: 41 179<286.5 421 286.5 461> 301 170<810.5 859.5> 598 107
AnchorPoint: "Anchor-3" 386 710 basechar 0
AnchorPoint: "Anchor-0" 389 0 basechar 0
LayerCount: 2
Fore
SplineSet
386 756 m 0xaf
 335 756 301 786 301 835 c 0
 301 884 335 914 386 914 c 0
 436 914 471 884 471 835 c 0
 471 786 436 756 386 756 c 0xaf
372 -16 m 0
 166 -16 41 134 41 354 c 0
 41 568 168 726 384 726 c 0
 573 726 670 630 703 472 c 1
 523 464 l 1
 510 539 469 584 386 584 c 0
 276 584 220 488 220 354 c 0
 220 219 272 126 389 126 c 0xb5
 472 126 524 176 532 252 c 1
 385 252 l 1
 385 373 l 1
 705 373 l 1
 705 0 l 1
 601 0 l 1x75
 595 96 l 1
 558 27 474 -16 372 -16 c 0
EndSplineSet
EndChar

StartChar: Idieresis.ss08
Encoding: 65564 -1 159
Width: 310
GlyphClass: 2
Flags: MW
HStem: 0 21G<68 68 68 242> 690 20G<68 242 242 242> 756 158<20 70 240 290>
VStem: -37 164<810.5 859.5> 68 59 68 174<0 710 0 710> 183 59 183 164<810.5 859.5>
AnchorPoint: "Anchor-3" 155 710 basechar 0
AnchorPoint: "Anchor-2" 242 0 basechar 0
AnchorPoint: "Anchor-0" 155 0 basechar 0
LayerCount: 2
Fore
SplineSet
45 756 m 0xe8
 -5 756 -37 786 -37 835 c 0xf1
 -37 884 -5 914 45 914 c 0
 95 914 127 884 127 835 c 0
 127 786 95 756 45 756 c 0xe8
265 756 m 0
 215 756 183 786 183 835 c 0xe2
 183 884 215 914 265 914 c 0
 315 914 347 884 347 835 c 0
 347 786 315 756 265 756 c 0
68 0 m 1xe4
 68 710 l 1
 242 710 l 1
 242 0 l 1
 68 0 l 1xe4
EndSplineSet
EndChar

StartChar: Idotaccent.ss08
Encoding: 65565 -1 160
Width: 310
GlyphClass: 2
Flags: MW
HStem: 0 21G<68 68 68 242> 690 20G<68 242 242 242> 756 158<130 180.5>
VStem: 68 174<0 710 0 710> 70 170<810.5 859.5>
AnchorPoint: "Anchor-3" 155 710 basechar 0
AnchorPoint: "Anchor-2" 242 0 basechar 0
AnchorPoint: "Anchor-0" 155 0 basechar 0
LayerCount: 2
Fore
SplineSet
155 756 m 0xe8
 105 756 70 786 70 835 c 0
 70 884 105 914 155 914 c 0
 206 914 240 884 240 835 c 0
 240 786 206 756 155 756 c 0xe8
68 0 m 1xf0
 68 710 l 1
 242 710 l 1
 242 0 l 1
 68 0 l 1xf0
EndSplineSet
EndChar

StartChar: Odieresis.ss08
Encoding: 65566 -1 161
Width: 788
GlyphClass: 2
Flags: MW
HStem: -16 142<339.5 448.5 339.5 504> 584 142<339.5 448.5> 756 158<258.5 309 478.5 529>
VStem: 41 179<281.5 426.5 281.5 468> 202 163<810.5 859.5> 422 163<810.5 859.5> 568 179<281.5 426.5>
AnchorPoint: "Anchor-3" 394 710 basechar 0
AnchorPoint: "Anchor-1" 394 355 basechar 0
AnchorPoint: "Anchor-0" 394 0 basechar 0
LayerCount: 2
Fore
SplineSet
284 756 m 0xac
 233 756 202 786 202 835 c 0
 202 884 233 914 284 914 c 0
 334 914 365 884 365 835 c 0
 365 786 334 756 284 756 c 0xac
504 756 m 0
 453 756 422 786 422 835 c 0
 422 884 453 914 504 914 c 0
 554 914 585 884 585 835 c 0
 585 786 554 756 504 756 c 0
394 -16 m 0
 173 -16 41 126 41 354 c 0
 41 582 173 726 394 726 c 0
 614 726 747 582 747 354 c 0xd2
 747 126 614 -16 394 -16 c 0
394 126 m 0
 503 126 568 209 568 354 c 0
 568 499 503 584 394 584 c 0
 285 584 220 499 220 354 c 0
 220 209 285 126 394 126 c 0
EndSplineSet
EndChar

StartChar: Udieresis.ss08
Encoding: 65567 -1 162
Width: 708
GlyphClass: 2
Flags: MW
HStem: -16 142<313 395 313 446.5> 691 20G<53 227 227 227 481 655 655 655> 756 158<218.5 269 438.5 489>
VStem: 53 174<259 711> 162 65 162 163<810.5 859.5> 382 163<810.5 859.5> 481 174<259 711>
AnchorPoint: "Anchor-3" 354 710 basechar 0
AnchorPoint: "Anchor-2" 470 1 basechar 0
AnchorPoint: "Anchor-0" 354 0 basechar 0
LayerCount: 2
Fore
SplineSet
244 756 m 0xe5
 193 756 162 786 162 835 c 0xea
 162 884 193 914 244 914 c 0
 294 914 325 884 325 835 c 0
 325 786 294 756 244 756 c 0xe5
464 756 m 0
 413 756 382 786 382 835 c 0
 382 884 413 914 464 914 c 0
 514 914 545 884 545 835 c 0
 545 786 514 756 464 756 c 0
354 -16 m 0
 170 -16 53 91 53 259 c 2
 53 711 l 1
 227 711 l 1
 227 259 l 2
 227 174 272 126 354 126 c 0
 436 126 481 174 481 259 c 2
 481 711 l 1
 655 711 l 1
 655 259 l 2xf1
 655 91 539 -16 354 -16 c 0
EndSplineSet
EndChar

StartChar: Wdieresis.ss08
Encoding: 65568 -1 163
Width: 1038
GlyphClass: 2
Flags: MW
HStem: 0 21G<230 230 230 411 627 627 627 809> 690 20G<36 217 217 217 447 591 591 591 821 1001 1001 1001> 756 158<384 434.5 604 654.5>
VStem: 328 163<810.5 859.5> 548 163<810.5 859.5>
AnchorPoint: "Anchor-3" 519 710 basechar 0
AnchorPoint: "Anchor-0" 519 0 basechar 0
LayerCount: 2
Fore
SplineSet
409 756 m 0
 359 756 328 786 328 835 c 0
 328 884 359 914 409 914 c 0
 460 914 491 884 491 835 c 0
 491 786 460 756 409 756 c 0
629 756 m 0
 579 756 548 786 548 835 c 0
 548 884 579 914 629 914 c 0
 680 914 711 884 711 835 c 0
 711 786 680 756 629 756 c 0
230 0 m 1
 36 710 l 1
 217 710 l 1
 331 241 l 1
 447 710 l 1
 591 710 l 1
 708 241 l 1
 821 710 l 1
 1001 710 l 1
 809 0 l 1
 627 0 l 1
 519 422 l 1
 411 0 l 1
 230 0 l 1
EndSplineSet
EndChar

StartChar: Ydieresis.ss08
Encoding: 65569 -1 164
Width: 650
GlyphClass: 2
Flags: MW
HStem: 0 21G<238 238 238 413> 690 20G<-8 182 182 182 467 657 657 657> 756 158<190.5 241 410.5 461>
VStem: 134 163<810.5 859.5> 238 175<0 271 0 271> 354 163<810.5 859.5>
AnchorPoint: "Anchor-3" 326 710 basechar 0
AnchorPoint: "Anchor-0" 326 0 basechar 0
LayerCount: 2
Fore
SplineSet
216 756 m 0xf4
 165 756 134 786 134 835 c 0
 134 884 165 914 216 914 c 0
 266 914 297 884 297 835 c 0
 297 786 266 756 216 756 c 0xf4
436 756 m 0
 385 756 354 786 354 835 c 0
 354 884 385 914 436 914 c 0
 486 914 517 884 517 835 c 0
 517 786 486 756 436 756 c 0
238 0 m 1xe8
 238 271 l 1
 -8 710 l 1
 182 710 l 1
 326 439 l 1
 467 710 l 1
 657 710 l 1
 413 271 l 1
 413 0 l 1
 238 0 l 1xe8
EndSplineSet
EndChar

StartChar: Zdotaccent.ss08
Encoding: 65570 -1 165
Width: 610
GlyphClass: 2
Flags: MW
HStem: 0 142<237 584 237 584> 568 142<43 351 43 570> 756 158<289.5 340>
VStem: 230 169<810.5 859.5>
AnchorPoint: "Anchor-3" 314 710 basechar 0
AnchorPoint: "Anchor-0" 314 0 basechar 0
LayerCount: 2
Fore
SplineSet
315 756 m 0
 264 756 230 786 230 835 c 0
 230 884 264 914 315 914 c 0
 365 914 399 884 399 835 c 0
 399 786 365 756 315 756 c 0
26 0 m 1
 26 136 l 1
 351 568 l 1
 43 568 l 1
 43 710 l 1
 570 710 l 1
 570 574 l 1
 237 142 l 1
 584 142 l 1
 584 0 l 1
 26 0 l 1
EndSplineSet
EndChar

StartChar: Idieresis.ss05.ss08
Encoding: 65571 -1 166
Width: 488
GlyphClass: 2
Flags: MW
HStem: 0 142<41 156 41 156 331 447> 568 142<47 156 47 441 331 331 331 441> 756 158<108 158.5 328 378.5>
VStem: 52 163<810.5 859.5> 156 175<142 568 142 568> 272 163<810.5 859.5>
AnchorPoint: "Anchor-3" 243 710 basechar 0
AnchorPoint: "Anchor-2" 447 0 basechar 0
AnchorPoint: "Anchor-0" 243 0 basechar 0
LayerCount: 2
Fore
SplineSet
133 756 m 0xf4
 83 756 52 786 52 835 c 0
 52 884 83 914 133 914 c 0
 184 914 215 884 215 835 c 0
 215 786 184 756 133 756 c 0xf4
353 756 m 0
 303 756 272 786 272 835 c 0
 272 884 303 914 353 914 c 0
 404 914 435 884 435 835 c 0
 435 786 404 756 353 756 c 0
41 0 m 1
 41 142 l 1
 156 142 l 1
 156 568 l 1
 47 568 l 1
 47 710 l 1
 441 710 l 1
 441 568 l 1
 331 568 l 1
 331 142 l 1xc8
 447 142 l 1
 447 0 l 1
 41 0 l 1
EndSplineSet
EndChar

StartChar: Idotaccent.ss05.ss08
Encoding: 65572 -1 167
Width: 488
GlyphClass: 2
Flags: MW
HStem: 0 142<41 156 41 156 331 447> 568 142<47 156 47 441 331 331 331 441> 756 158<218.5 269>
VStem: 156 175<142 568 142 568> 159 169<810.5 859.5>
AnchorPoint: "Anchor-3" 243 710 basechar 0
AnchorPoint: "Anchor-2" 447 0 basechar 0
AnchorPoint: "Anchor-0" 243 0 basechar 0
LayerCount: 2
Fore
SplineSet
244 756 m 0xe8
 193 756 159 786 159 835 c 0
 159 884 193 914 244 914 c 0
 294 914 328 884 328 835 c 0
 328 786 294 756 244 756 c 0xe8
41 0 m 1
 41 142 l 1
 156 142 l 1
 156 568 l 1
 47 568 l 1
 47 710 l 1
 441 710 l 1
 441 568 l 1
 331 568 l 1
 331 142 l 1xd0
 447 142 l 1
 447 0 l 1
 41 0 l 1
EndSplineSet
EndChar

StartChar: Gdotaccent.ss06.ss08
Encoding: 65573 -1 168
Width: 741
GlyphClass: 2
Flags: MW
HStem: -16 142<329 428.5 329 483> 252 121<385 532 385 705> 584 142<330 429.5> 756 158<361.5 412>
VStem: 41 179<286.5 421 286.5 460.5> 302 170<810.5 859.5> 385 320<252 331 331 373 214 373> 532 173<252 252>
AnchorPoint: "Anchor-3" 387 710 basechar 0
AnchorPoint: "Anchor-0" 389 0 basechar 0
LayerCount: 2
Fore
SplineSet
387 756 m 0xdd
 336 756 302 786 302 835 c 0
 302 884 336 914 387 914 c 0
 437 914 472 884 472 835 c 0
 472 786 437 756 387 756 c 0xdd
387 -16 m 0
 156 -16 41 142 41 354 c 0
 41 567 166 726 391 726 c 0
 567 726 674 631 703 472 c 1
 523 464 l 1
 510 539 472 584 387 584 c 0
 273 584 220 488 220 354 c 0
 220 219 275 126 383 126 c 0
 474 126 525 174 532 252 c 1xe9
 385 252 l 1
 385 373 l 1xea
 705 373 l 1
 705 331 l 2
 705 97 579 -16 387 -16 c 0
EndSplineSet
EndChar

StartChar: A_I.dlig
Encoding: 65574 -1 169
Width: 1238
GlyphClass: 3
Flags: MW
HStem: 0 142<553 907 791 907 1082 1197 791 907> 134 138<290 460 290 507 243 460> 568 142<797 907 1082 1082 1082 1191>
VStem: 907 175<142 568 142 568>
AnchorPoint: "Anchor-8" 376 710 baselig 0
AnchorPoint: "Anchor-7" 732 0 baselig 0
AnchorPoint: "Anchor-5" 376 0 baselig 0
AnchorPoint: "Anchor-8" 994 710 baselig 1
AnchorPoint: "Anchor-5" 994 0 baselig 1
AnchorPoint: "Anchor-7" 1197 0 baselig 1
LayerCount: 2
Fore
SplineSet
18 0 m 1xb0
 274 710 l 1
 476 710 l 1
 732 0 l 1
 553 0 l 1xb0
 507 134 l 1
 243 134 l 1x70
 196 0 l 1
 18 0 l 1xb0
791 0 m 1
 791 142 l 1
 907 142 l 1
 907 568 l 1
 797 568 l 1
 797 710 l 1
 1191 710 l 1
 1191 568 l 1
 1082 568 l 1
 1082 142 l 1
 1197 142 l 1
 1197 0 l 1
 791 0 l 1
290 272 m 1x70
 460 272 l 1
 376 522 l 1
 290 272 l 1x70
EndSplineSet
Ligature2: "'dlig' Discretionary Ligatures in Latin lookup 32 subtable" A I
EndChar

StartChar: U_I.dlig
Encoding: 65575 -1 170
Width: 1196
GlyphClass: 3
Flags: MW
HStem: -16 142<313 395 313 446.5> 0 142<749 865 749 865 1039 1155> 568 142<755 865 755 1149 1039 1039 1039 1149>
VStem: 53 174<259 711> 481 174<259 711> 865 174<142 568 142 568>
AnchorPoint: "Anchor-8" 354 710 baselig 0
AnchorPoint: "Anchor-7" 470 1 baselig 0
AnchorPoint: "Anchor-5" 354 0 baselig 0
AnchorPoint: "Anchor-8" 952 710 baselig 1
AnchorPoint: "Anchor-5" 952 0 baselig 1
AnchorPoint: "Anchor-7" 1155 0 baselig 1
LayerCount: 2
Fore
SplineSet
354 -16 m 0xbc
 170 -16 53 91 53 259 c 2
 53 711 l 1
 227 711 l 1
 227 259 l 2
 227 174 272 126 354 126 c 0
 436 126 481 174 481 259 c 2
 481 711 l 1
 655 711 l 1
 655 259 l 2
 655 91 539 -16 354 -16 c 0xbc
749 0 m 1x7c
 749 142 l 1
 865 142 l 1
 865 568 l 1
 755 568 l 1
 755 710 l 1
 1149 710 l 1
 1149 568 l 1
 1039 568 l 1
 1039 142 l 1
 1155 142 l 1
 1155 0 l 1
 749 0 l 1x7c
EndSplineSet
Ligature2: "'dlig' Discretionary Ligatures in Latin lookup 32 subtable" U I
EndChar

StartChar: a
Encoding: 97 97 171
Width: 609
GlyphClass: 2
Flags: MW
HStem: -12 112<251 274.5> -7 21G<510.5 548> -7 119<510.5 598> 432 118<276.5 327.5>
VStem: 34 177<135 166.5 135 182.5> 381 172<213 235 235 235>
AnchorPoint: "Anchor-3" 303 538 basechar 0
AnchorPoint: "Anchor-2" 598 0 basechar 0
AnchorPoint: "Anchor-0" 301 0 basechar 0
LayerCount: 2
Fore
SplineSet
226 -12 m 0x94
 113 -12 34 42 34 135 c 0
 34 230 97 278 214 302 c 2
 381 336 l 1
 381 399 353 432 302 432 c 0
 251 432 223 407 215 361 c 1
 43 367 l 1
 64 491 156 550 302 550 c 0
 470 550 553 473 553 323 c 2
 553 153 l 2
 553 120 565 112 585 112 c 2
 598 112 l 1x3c
 598 0 l 1
 587 -3 559 -7 537 -7 c 0x54
 484 -7 428 11 414 82 c 1
 386 24 323 -12 226 -12 c 0x94
271 100 m 0
 335 100 381 140 381 213 c 2
 381 235 l 1
 277 211 l 2
 235 202 211 182 211 151 c 0x9c
 211 119 231 100 271 100 c 0
EndSplineSet
Substitution2: "'ss02' Style Set 2 in Latin lookup 35 subtable" a.ss02
Substitution2: "'ss01' Style Set 1 in Latin lookup 34 subtable" a.ss01
Substitution2: "Single Substitution lookup 27 subtable" ordfeminine
AlternateSubs2: "'aalt' Access All Alternates in Latin lookup 1 subtable" ordfeminine a.ss01 a.ss02
EndChar

StartChar: aacute
Encoding: 225 225 172
Width: 609
GlyphClass: 2
Flags: MW
HStem: -12 112<251 274.5> -7 21G<510.5 548> -7 119<510.5 598> 432 118<276.5 327.5> 589 154<224 443 281 353>
VStem: 34 177<135 166.5 135 182.5> 381 172<213 235 235 235>
AnchorPoint: "Anchor-3" 303 538 basechar 0
AnchorPoint: "Anchor-2" 598 0 basechar 0
AnchorPoint: "Anchor-0" 301 0 basechar 0
LayerCount: 2
Fore
SplineSet
224 589 m 1x9a
 281 743 l 1
 443 743 l 1
 353 589 l 1
 224 589 l 1x9a
226 -12 m 0
 113 -12 34 42 34 135 c 0
 34 230 97 278 214 302 c 2
 381 336 l 1
 381 399 353 432 302 432 c 0
 251 432 223 407 215 361 c 1
 43 367 l 1
 64 491 156 550 302 550 c 0
 470 550 553 473 553 323 c 2
 553 153 l 2
 553 120 565 112 585 112 c 2
 598 112 l 1x3e
 598 0 l 1
 587 -3 559 -7 537 -7 c 0x5a
 484 -7 428 11 414 82 c 1
 386 24 323 -12 226 -12 c 0
271 100 m 0
 335 100 381 140 381 213 c 2
 381 235 l 1
 277 211 l 2
 235 202 211 182 211 151 c 0x9e
 211 119 231 100 271 100 c 0
EndSplineSet
Substitution2: "'ss02' Style Set 2 in Latin lookup 35 subtable" aacute.ss02
Substitution2: "'ss01' Style Set 1 in Latin lookup 34 subtable" aacute.ss01
AlternateSubs2: "'aalt' Access All Alternates in Latin lookup 1 subtable" aacute.ss01 aacute.ss02
EndChar

StartChar: abreve
Encoding: 259 259 173
Width: 609
GlyphClass: 2
Flags: MW
HStem: -12 112<251 274.5> -7 21G<510.5 548> -7 119<510.5 598> 432 118<276.5 327.5> 588 89<284 322 284 351> 588 153<140 351>
VStem: 34 177<135 166.5 135 182.5> 381 172<213 235 235 235>
AnchorPoint: "Anchor-3" 303 538 basechar 0
AnchorPoint: "Anchor-2" 598 0 basechar 0
AnchorPoint: "Anchor-0" 301 0 basechar 0
LayerCount: 2
Fore
SplineSet
303 588 m 0x95
 206 588 144 643 140 741 c 1x95
 237 741 l 1
 241 695 265 677 303 677 c 0x9b
 341 677 364 695 369 741 c 1
 465 741 l 1
 461 643 399 588 303 588 c 0x95
226 -12 m 0
 113 -12 34 42 34 135 c 0
 34 230 97 278 214 302 c 2
 381 336 l 1
 381 399 353 432 302 432 c 0
 251 432 223 407 215 361 c 1
 43 367 l 1
 64 491 156 550 302 550 c 0
 470 550 553 473 553 323 c 2
 553 153 l 2
 553 120 565 112 585 112 c 2
 598 112 l 1x3b
 598 0 l 1
 587 -3 559 -7 537 -7 c 0x59
 484 -7 428 11 414 82 c 1
 386 24 323 -12 226 -12 c 0
271 100 m 0
 335 100 381 140 381 213 c 2
 381 235 l 1
 277 211 l 2
 235 202 211 182 211 151 c 0x9b
 211 119 231 100 271 100 c 0
EndSplineSet
Substitution2: "'ss02' Style Set 2 in Latin lookup 35 subtable" abreve.ss02
Substitution2: "'ss01' Style Set 1 in Latin lookup 34 subtable" abreve.ss01
AlternateSubs2: "'aalt' Access All Alternates in Latin lookup 1 subtable" abreve.ss01 abreve.ss02
EndChar

StartChar: uni01CE
Encoding: 462 462 174
Width: 609
GlyphClass: 2
Flags: MW
HStem: -12 112<251 274.5> -7 21G<510.5 548> -7 119<510.5 598> 432 118<276.5 327.5> 589 160<222 241 365 383 222 222>
VStem: 34 177<135 166.5 135 182.5> 381 172<213 235 235 235>
AnchorPoint: "Anchor-3" 303 538 basechar 0
AnchorPoint: "Anchor-2" 598 0 basechar 0
AnchorPoint: "Anchor-0" 301 0 basechar 0
LayerCount: 2
Fore
SplineSet
124 749 m 1x9a
 241 749 l 1
 303 660 l 1
 365 749 l 1
 481 749 l 1
 383 589 l 1
 222 589 l 1
 124 749 l 1x9a
226 -12 m 0
 113 -12 34 42 34 135 c 0
 34 230 97 278 214 302 c 2
 381 336 l 1
 381 399 353 432 302 432 c 0
 251 432 223 407 215 361 c 1
 43 367 l 1
 64 491 156 550 302 550 c 0
 470 550 553 473 553 323 c 2
 553 153 l 2
 553 120 565 112 585 112 c 2
 598 112 l 1x3e
 598 0 l 1
 587 -3 559 -7 537 -7 c 0x5a
 484 -7 428 11 414 82 c 1
 386 24 323 -12 226 -12 c 0
271 100 m 0
 335 100 381 140 381 213 c 2
 381 235 l 1
 277 211 l 2
 235 202 211 182 211 151 c 0x9e
 211 119 231 100 271 100 c 0
EndSplineSet
Substitution2: "'ss02' Style Set 2 in Latin lookup 35 subtable" uni01CE.ss02
Substitution2: "'ss01' Style Set 1 in Latin lookup 34 subtable" uni01CE.ss01
AlternateSubs2: "'aalt' Access All Alternates in Latin lookup 1 subtable" uni01CE.ss01 uni01CE.ss02
EndChar

StartChar: acircumflex
Encoding: 226 226 175
Width: 609
GlyphClass: 2
Flags: MW
HStem: -12 112<251 274.5> -7 21G<510.5 548> -7 119<510.5 598> 432 118<276.5 327.5> 589 160<124 383 222 241 365 365 365 383 222 481>
VStem: 34 177<135 166.5 135 182.5> 381 172<213 235 235 235>
AnchorPoint: "Anchor-3" 303 538 basechar 0
AnchorPoint: "Anchor-2" 598 0 basechar 0
AnchorPoint: "Anchor-0" 301 0 basechar 0
LayerCount: 2
Fore
SplineSet
124 589 m 1x9a
 222 749 l 1
 383 749 l 1
 481 589 l 1
 365 589 l 1
 303 678 l 1
 241 589 l 1
 124 589 l 1x9a
226 -12 m 0
 113 -12 34 42 34 135 c 0
 34 230 97 278 214 302 c 2
 381 336 l 1
 381 399 353 432 302 432 c 0
 251 432 223 407 215 361 c 1
 43 367 l 1
 64 491 156 550 302 550 c 0
 470 550 553 473 553 323 c 2
 553 153 l 2
 553 120 565 112 585 112 c 2
 598 112 l 1x3e
 598 0 l 1
 587 -3 559 -7 537 -7 c 0x5a
 484 -7 428 11 414 82 c 1
 386 24 323 -12 226 -12 c 0
271 100 m 0
 335 100 381 140 381 213 c 2
 381 235 l 1
 277 211 l 2
 235 202 211 182 211 151 c 0x9e
 211 119 231 100 271 100 c 0
EndSplineSet
Substitution2: "'ss02' Style Set 2 in Latin lookup 35 subtable" acircumflex.ss02
Substitution2: "'ss01' Style Set 1 in Latin lookup 34 subtable" acircumflex.ss01
AlternateSubs2: "'aalt' Access All Alternates in Latin lookup 1 subtable" acircumflex.ss01 acircumflex.ss02
EndChar

StartChar: adieresis
Encoding: 228 228 176
Width: 609
GlyphClass: 2
Flags: MW
HStem: -12 112<251 274.5> -7 21G<510.5 548> -7 119<510.5 598> 432 118<276.5 327.5> 595 128<108 269 108 269 336 498 108 336>
VStem: 34 177<135 166.5 135 182.5> 108 161<595 723 595 723> 336 162<595 723 595 723> 381 172<213 235 235 235>
AnchorPoint: "Anchor-3" 303 538 basechar 0
AnchorPoint: "Anchor-2" 598 0 basechar 0
AnchorPoint: "Anchor-0" 301 0 basechar 0
LayerCount: 2
Fore
SplineSet
108 595 m 1x9b
 108 723 l 1
 269 723 l 1
 269 595 l 1
 108 595 l 1x9b
336 595 m 1
 336 723 l 1
 498 723 l 1
 498 595 l 1
 336 595 l 1
226 -12 m 0
 113 -12 34 42 34 135 c 0
 34 230 97 278 214 302 c 2
 381 336 l 1
 381 399 353 432 302 432 c 0
 251 432 223 407 215 361 c 1
 43 367 l 1
 64 491 156 550 302 550 c 0
 470 550 553 473 553 323 c 2
 553 153 l 2
 553 120 565 112 585 112 c 2
 598 112 l 1x3c80
 598 0 l 1
 587 -3 559 -7 537 -7 c 0x5a80
 484 -7 428 11 414 82 c 1
 386 24 323 -12 226 -12 c 0
271 100 m 0
 335 100 381 140 381 213 c 2
 381 235 l 1
 277 211 l 2
 235 202 211 182 211 151 c 0x9c80
 211 119 231 100 271 100 c 0
EndSplineSet
Substitution2: "'ss08' Style Set 8 in Latin lookup 41 subtable" adieresis.ss08
Substitution2: "'ss02' Style Set 2 in Latin lookup 35 subtable" adieresis.ss02
Substitution2: "'ss01' Style Set 1 in Latin lookup 34 subtable" adieresis.ss01
AlternateSubs2: "'aalt' Access All Alternates in Latin lookup 1 subtable" adieresis.ss01 adieresis.ss02 adieresis.ss08
EndChar

StartChar: agrave
Encoding: 224 224 177
Width: 609
GlyphClass: 2
Flags: MW
HStem: -12 112<251 274.5> -7 21G<510.5 548> -7 119<510.5 598> 432 118<276.5 327.5> 596 153<249 249 249 322 159 379>
VStem: 34 177<135 166.5 135 182.5> 381 172<213 235 235 235>
AnchorPoint: "Anchor-3" 303 538 basechar 0
AnchorPoint: "Anchor-2" 598 0 basechar 0
AnchorPoint: "Anchor-0" 301 0 basechar 0
LayerCount: 2
Fore
SplineSet
249 596 m 1x9a
 159 749 l 1
 322 749 l 1
 379 596 l 1
 249 596 l 1x9a
226 -12 m 0
 113 -12 34 42 34 135 c 0
 34 230 97 278 214 302 c 2
 381 336 l 1
 381 399 353 432 302 432 c 0
 251 432 223 407 215 361 c 1
 43 367 l 1
 64 491 156 550 302 550 c 0
 470 550 553 473 553 323 c 2
 553 153 l 2
 553 120 565 112 585 112 c 2
 598 112 l 1x3e
 598 0 l 1
 587 -3 559 -7 537 -7 c 0x5a
 484 -7 428 11 414 82 c 1
 386 24 323 -12 226 -12 c 0
271 100 m 0
 335 100 381 140 381 213 c 2
 381 235 l 1
 277 211 l 2
 235 202 211 182 211 151 c 0x9e
 211 119 231 100 271 100 c 0
EndSplineSet
Substitution2: "'ss02' Style Set 2 in Latin lookup 35 subtable" agrave.ss02
Substitution2: "'ss01' Style Set 1 in Latin lookup 34 subtable" agrave.ss01
AlternateSubs2: "'aalt' Access All Alternates in Latin lookup 1 subtable" agrave.ss01 agrave.ss02
EndChar

StartChar: amacron
Encoding: 257 257 178
Width: 609
GlyphClass: 2
Flags: MW
HStem: -12 112<251 274.5> -7 21G<510.5 548> -7 119<510.5 598> 432 118<276.5 327.5> 601 122<148 458 148 458>
VStem: 34 177<135 166.5 135 182.5> 148 310<601 723 601 723> 381 172<213 235 235 235>
AnchorPoint: "Anchor-3" 303 538 basechar 0
AnchorPoint: "Anchor-2" 598 0 basechar 0
AnchorPoint: "Anchor-0" 301 0 basechar 0
LayerCount: 2
Fore
SplineSet
148 601 m 1x9a
 148 723 l 1
 458 723 l 1
 458 601 l 1
 148 601 l 1x9a
226 -12 m 0
 113 -12 34 42 34 135 c 0
 34 230 97 278 214 302 c 2
 381 336 l 1
 381 399 353 432 302 432 c 0
 251 432 223 407 215 361 c 1
 43 367 l 1
 64 491 156 550 302 550 c 0
 470 550 553 473 553 323 c 2
 553 153 l 2
 553 120 565 112 585 112 c 2
 598 112 l 1x3d
 598 0 l 1
 587 -3 559 -7 537 -7 c 0x59
 484 -7 428 11 414 82 c 1
 386 24 323 -12 226 -12 c 0
271 100 m 0
 335 100 381 140 381 213 c 2
 381 235 l 1
 277 211 l 2
 235 202 211 182 211 151 c 0x9d
 211 119 231 100 271 100 c 0
EndSplineSet
Substitution2: "'ss02' Style Set 2 in Latin lookup 35 subtable" amacron.ss02
Substitution2: "'ss01' Style Set 1 in Latin lookup 34 subtable" amacron.ss01
AlternateSubs2: "'aalt' Access All Alternates in Latin lookup 1 subtable" amacron.ss01 amacron.ss02
EndChar

StartChar: aogonek
Encoding: 261 261 179
Width: 609
GlyphClass: 2
Flags: MW
HStem: -220 97<484 570.5> -12 21G<169.5 274.5> -12 112<251 274.5> 432 118<276.5 327.5>
VStem: 34 177<135 166.5 135 182.5> 381 172<213 235 235 235> 402 135<-158.5 -90> 402 196<-158.5 112>
AnchorPoint: "Anchor-3" 303 538 basechar 0
AnchorPoint: "Anchor-2" 598 0 basechar 0
AnchorPoint: "Anchor-0" 301 0 basechar 0
LayerCount: 2
Fore
SplineSet
226 -12 m 0xb4
 113 -12 34 42 34 135 c 0
 34 230 97 278 214 302 c 2
 381 336 l 1
 381 399 353 432 302 432 c 0
 251 432 223 407 215 361 c 1
 43 367 l 1
 64 491 156 550 302 550 c 0
 470 550 553 473 553 323 c 2
 553 153 l 2xbc
 553 120 565 112 585 112 c 2
 598 112 l 1
 598 0 l 1xd1
 569 -37 l 2
 551 -61 537 -82 537 -98 c 0
 537 -115 549 -123 562 -123 c 0
 579 -123 597 -117 606 -110 c 1
 635 -194 l 1
 616 -208 567 -220 522 -220 c 0
 446 -220 402 -188 402 -129 c 0
 402 -88 425 -50 449 -19 c 2
 469 7 l 1xd2
 443 19 422 43 414 82 c 1
 386 24 323 -12 226 -12 c 0xb4
271 100 m 0
 335 100 381 140 381 213 c 2
 381 235 l 1
 277 211 l 2
 235 202 211 182 211 151 c 0
 211 119 231 100 271 100 c 0
EndSplineSet
Substitution2: "'ss02' Style Set 2 in Latin lookup 35 subtable" aogonek.ss02
Substitution2: "'ss01' Style Set 1 in Latin lookup 34 subtable" aogonek.ss01
AlternateSubs2: "'aalt' Access All Alternates in Latin lookup 1 subtable" aogonek.ss01 aogonek.ss02
EndChar

StartChar: aring
Encoding: 229 229 180
Width: 609
GlyphClass: 2
Flags: MW
HStem: -12 112<251 274.5> -7 21G<510.5 548> -7 119<510.5 598> 432 118<276.5 327.5> 574 70<292.5 313.5 292.5 333> 715 69<292.5 313.5>
VStem: 34 177<135 166.5 135 182.5> 196 71<668.5 689.5 668.5 709> 338 71<668.5 689.5> 381 172<213 235 235 235>
AnchorPoint: "Anchor-3" 303 538 basechar 0
AnchorPoint: "Anchor-2" 598 0 basechar 0
AnchorPoint: "Anchor-0" 301 0 basechar 0
LayerCount: 2
Fore
SplineSet
303 574 m 0x8d80
 243 574 196 619 196 679 c 0
 196 739 243 784 303 784 c 0
 363 784 409 739 409 679 c 0
 409 619 363 574 303 574 c 0x8d80
303 644 m 0
 324 644 338 658 338 679 c 0
 338 700 324 715 303 715 c 0
 282 715 267 700 267 679 c 0
 267 658 282 644 303 644 c 0
226 -12 m 0
 113 -12 34 42 34 135 c 0
 34 230 97 278 214 302 c 2
 381 336 l 1
 381 399 353 432 302 432 c 0
 251 432 223 407 215 361 c 1
 43 367 l 1
 64 491 156 550 302 550 c 0
 470 550 553 473 553 323 c 2
 553 153 l 2
 553 120 565 112 585 112 c 2
 598 112 l 1x3640
 598 0 l 1
 587 -3 559 -7 537 -7 c 0x5540
 484 -7 428 11 414 82 c 1
 386 24 323 -12 226 -12 c 0
271 100 m 0
 335 100 381 140 381 213 c 2
 381 235 l 1
 277 211 l 2
 235 202 211 182 211 151 c 0x9640
 211 119 231 100 271 100 c 0
EndSplineSet
Substitution2: "'ss02' Style Set 2 in Latin lookup 35 subtable" aring.ss02
Substitution2: "'ss01' Style Set 1 in Latin lookup 34 subtable" aring.ss01
AlternateSubs2: "'aalt' Access All Alternates in Latin lookup 1 subtable" aring.ss01 aring.ss02
EndChar

StartChar: atilde
Encoding: 227 227 181
Width: 609
GlyphClass: 2
Flags: MW
HStem: -12 112<251 274.5> -7 21G<510.5 548> -7 119<510.5 598> 432 118<276.5 327.5> 592 150<205 209 126 258> 597 100<354.5 369.5 354.5 397> 597 152<396 397> 642 100<236.5 251>
VStem: 34 177<135 166.5 135 182.5> 126 83<592 592> 381 172<213 235 235 235> 396 82<749 749>
AnchorPoint: "Anchor-3" 303 538 basechar 0
AnchorPoint: "Anchor-2" 598 0 basechar 0
AnchorPoint: "Anchor-0" 301 0 basechar 0
LayerCount: 2
Fore
SplineSet
358 597 m 0x9210
 325 597 307 604 280 627 c 0
 267 637 257 642 245 642 c 0x9160
 228 642 212 631 209 592 c 1
 126 592 l 1
 127 682 168 742 242 742 c 0x9860
 274 742 298 735 325 713 c 0
 340 702 349 697 360 697 c 0x9410
 379 697 393 708 396 749 c 1
 478 749 l 1
 477 656 436 597 358 597 c 0x9210
226 -12 m 0
 113 -12 34 42 34 135 c 0
 34 230 97 278 214 302 c 2
 381 336 l 1
 381 399 353 432 302 432 c 0
 251 432 223 407 215 361 c 1
 43 367 l 1
 64 491 156 550 302 550 c 0
 470 550 553 473 553 323 c 2
 553 153 l 2
 553 120 565 112 585 112 c 2
 598 112 l 1x38a0
 598 0 l 1
 587 -3 559 -7 537 -7 c 0x5820
 484 -7 428 11 414 82 c 1
 386 24 323 -12 226 -12 c 0
271 100 m 0
 335 100 381 140 381 213 c 2
 381 235 l 1
 277 211 l 2
 235 202 211 182 211 151 c 0x98a0
 211 119 231 100 271 100 c 0
EndSplineSet
Substitution2: "'ss02' Style Set 2 in Latin lookup 35 subtable" atilde.ss02
Substitution2: "'ss01' Style Set 1 in Latin lookup 34 subtable" atilde.ss01
AlternateSubs2: "'aalt' Access All Alternates in Latin lookup 1 subtable" atilde.ss01 atilde.ss02
EndChar

StartChar: ae
Encoding: 230 230 182
Width: 972
GlyphClass: 2
Flags: MW
HStem: -12 111 -12 125<638 691 638 733> 224 98<564 764 564 937 564 764> 428 122<637 693.5> 432 118<275.5 326>
VStem: 34 177<133 166.5 133 185.5> 381 183<224 224 224 233 224 233 224 367.5> 764 173<224 322>
AnchorPoint: "Anchor-3" 487 538 basechar 0
AnchorPoint: "Anchor-2" 844 37 basechar 0
AnchorPoint: "Anchor-0" 487 0 basechar 0
LayerCount: 2
Fore
SplineSet
227 -12 m 0x77
 114 -12 34 40 34 135 c 0
 34 236 102 280 214 302 c 2
 381 334 l 1
 381 401 351 432 301 432 c 0x6f
 250 432 221 405 215 361 c 1
 43 367 l 1
 64 489 154 550 300 550 c 0
 381 550 444 532 488 495 c 1
 534 530 594 550 665 550 c 0
 832 550 937 437 937 256 c 2
 937 224 l 1
 564 224 l 1
 566 149 607 113 669 113 c 0
 713 113 745 130 759 171 c 1
 930 161 l 1
 901 49 800 -12 666 -12 c 0
 569 -12 491 25 442 88 c 1
 401 21 327 -12 227 -12 c 0x77
564 322 m 1
 764 322 l 1
 761 393 722 428 665 428 c 0xb7
 609 428 570 389 564 322 c 1
281 99 m 0
 342 100 381 136 381 210 c 2
 381 233 l 1
 277 211 l 2
 235 203 211 183 211 150 c 0
 211 116 230 97 281 99 c 0
EndSplineSet
EndChar

StartChar: b
Encoding: 98 98 183
Width: 647
GlyphClass: 2
Flags: MW
HStem: -12 127<353 366.5 304 458.5> 0 115<61 366.5> 423 127<354.5 367.5> 690 20G<61 233 233 233>
VStem: 61 167.5 61 172<220.5 318 461 710> 436 177<220 318>
AnchorPoint: "Anchor-3" 325 538 basechar 0
AnchorPoint: "Anchor-1" 162 269 basechar 0
AnchorPoint: "Anchor-0" 325 0 basechar 0
LayerCount: 2
Fore
SplineSet
391 -12 m 0xb6
 315 -12 260 21 230 78 c 1
 227 0 l 1x7a
 61 0 l 1x76
 61 710 l 1
 233 710 l 1
 233 461 l 1
 262 513 318 550 391 550 c 0
 526 550 613 439 613 269 c 0
 613 99 526 -12 391 -12 c 0xb6
337 115 m 0
 396 115 436 171 436 269 c 0
 436 367 397 423 338 423 c 0
 271 423 233 367 233 269 c 0xb6
 233 172 271 115 337 115 c 0
EndSplineSet
EndChar

StartChar: c
Encoding: 99 99 184
Width: 615
GlyphClass: 2
Flags: MW
HStem: -12 127<283 343 283 393.5> 422 128<283 343>
VStem: 34 177<220 317.5 220 353.5>
AnchorPoint: "Anchor-3" 317 538 basechar 0
AnchorPoint: "Anchor-0" 317 0 basechar 0
LayerCount: 2
Fore
SplineSet
317 -12 m 0
 146 -12 34 99 34 269 c 0
 34 438 146 550 317 550 c 0
 466 550 576 468 590 332 c 1
 414 324 l 1
 405 389 369 422 317 422 c 0
 249 422 211 366 211 269 c 0
 211 171 249 115 317 115 c 0
 369 115 406 147 414 218 c 1
 590 212 l 1
 577 74 470 -12 317 -12 c 0
EndSplineSet
EndChar

StartChar: cacute
Encoding: 263 263 185
Width: 615
GlyphClass: 2
Flags: MW
HStem: -12 127<283 343 283 393.5> 422 128<283 343> 589 154<238 457 294 367>
VStem: 34 177<220 317.5 220 353.5>
AnchorPoint: "Anchor-3" 317 538 basechar 0
AnchorPoint: "Anchor-0" 317 0 basechar 0
LayerCount: 2
Fore
SplineSet
238 589 m 1
 294 743 l 1
 457 743 l 1
 367 589 l 1
 238 589 l 1
317 -12 m 0
 146 -12 34 99 34 269 c 0
 34 438 146 550 317 550 c 0
 466 550 576 468 590 332 c 1
 414 324 l 1
 405 389 369 422 317 422 c 0
 249 422 211 366 211 269 c 0
 211 171 249 115 317 115 c 0
 369 115 406 147 414 218 c 1
 590 212 l 1
 577 74 470 -12 317 -12 c 0
EndSplineSet
EndChar

StartChar: ccaron
Encoding: 269 269 186
Width: 615
GlyphClass: 2
Flags: MW
HStem: -12 127<283 343 283 393.5> 422 128<283 343> 589 160<236 254 379 397 236 236>
VStem: 34 177<220 317.5 220 353.5>
AnchorPoint: "Anchor-3" 317 538 basechar 0
AnchorPoint: "Anchor-0" 317 0 basechar 0
LayerCount: 2
Fore
SplineSet
138 749 m 1
 254 749 l 1
 317 660 l 1
 379 749 l 1
 495 749 l 1
 397 589 l 1
 236 589 l 1
 138 749 l 1
317 -12 m 0
 146 -12 34 99 34 269 c 0
 34 438 146 550 317 550 c 0
 466 550 576 468 590 332 c 1
 414 324 l 1
 405 389 369 422 317 422 c 0
 249 422 211 366 211 269 c 0
 211 171 249 115 317 115 c 0
 369 115 406 147 414 218 c 1
 590 212 l 1
 577 74 470 -12 317 -12 c 0
EndSplineSet
EndChar

StartChar: ccedilla
Encoding: 231 231 187
Width: 615
GlyphClass: 2
Flags: MW
HStem: -236 78<293.5 322.5 293.5 348> -152 21G<180 180> -85 55<293 347> -9 21G<268 268> 422 128<283 343>
VStem: 34 177<220 317.5 220 353.5> 355 88<-133.5 -111>
AnchorPoint: "Anchor-3" 317 538 basechar 0
AnchorPoint: "Anchor-0" 317 0 basechar 0
LayerCount: 2
Fore
SplineSet
312 -236 m 0
 244 -236 199 -202 180 -152 c 1x5e
 251 -120 l 1
 261 -145 278 -158 309 -158 c 0
 336 -158 355 -145 355 -122 c 0
 355 -100 343 -85 293 -85 c 1xae
 248 -44 l 1
 268 -9 l 1x5e
 125 10 34 116 34 269 c 0
 34 438 146 550 317 550 c 0
 466 550 576 468 590 332 c 1
 414 324 l 1
 405 389 369 422 317 422 c 0
 249 422 211 366 211 269 c 0
 211 171 249 115 317 115 c 0
 369 115 406 147 414 218 c 1
 590 212 l 1
 578 88 490 5 360 -10 c 1
 347 -30 l 1
 415 -37 443 -77 443 -126 c 0
 443 -203 384 -236 312 -236 c 0
EndSplineSet
EndChar

StartChar: ccircumflex
Encoding: 265 265 188
Width: 615
GlyphClass: 2
Flags: MW
HStem: -12 127<283 343 283 393.5> 422 128<283 343> 589 160<138 397 236 254 379 379 379 397 236 495>
VStem: 34 177<220 317.5 220 353.5>
AnchorPoint: "Anchor-3" 317 538 basechar 0
AnchorPoint: "Anchor-0" 317 0 basechar 0
LayerCount: 2
Fore
SplineSet
138 589 m 1
 236 749 l 1
 397 749 l 1
 495 589 l 1
 379 589 l 1
 317 678 l 1
 254 589 l 1
 138 589 l 1
317 -12 m 0
 146 -12 34 99 34 269 c 0
 34 438 146 550 317 550 c 0
 466 550 576 468 590 332 c 1
 414 324 l 1
 405 389 369 422 317 422 c 0
 249 422 211 366 211 269 c 0
 211 171 249 115 317 115 c 0
 369 115 406 147 414 218 c 1
 590 212 l 1
 577 74 470 -12 317 -12 c 0
EndSplineSet
EndChar

StartChar: cdotaccent
Encoding: 267 267 189
Width: 615
GlyphClass: 2
Flags: MW
HStem: -12 127<283 343 283 393.5> 422 128<283 343> 598 128<228 405 228 405>
VStem: 34 177<220 317.5 220 353.5> 228 177<598 726 598 726>
AnchorPoint: "Anchor-3" 317 538 basechar 0
AnchorPoint: "Anchor-0" 317 0 basechar 0
LayerCount: 2
Fore
SplineSet
228 598 m 1
 228 726 l 1
 405 726 l 1
 405 598 l 1
 228 598 l 1
317 -12 m 0
 146 -12 34 99 34 269 c 0
 34 438 146 550 317 550 c 0
 466 550 576 468 590 332 c 1
 414 324 l 1
 405 389 369 422 317 422 c 0
 249 422 211 366 211 269 c 0xf0
 211 171 249 115 317 115 c 0
 369 115 406 147 414 218 c 1
 590 212 l 1
 577 74 470 -12 317 -12 c 0
EndSplineSet
Substitution2: "'ss08' Style Set 8 in Latin lookup 41 subtable" cdotaccent.ss08
Substitution2: "'aalt' Access All Alternates in Latin lookup 0 subtable" cdotaccent.ss08
EndChar

StartChar: d
Encoding: 100 100 190
Width: 647
GlyphClass: 2
Flags: MW
HStem: -12 127<282.5 290> 0 115<282.5 586 282.5 420> 423 127<281.5 292 187 345.5> 690 20G<414 586 586 586>
VStem: 34 177<222.5 316.5 222.5 355> 414 172<217 321.5 461 710 0 710> 418.5 167.5
AnchorPoint: "Anchor-4" 608 538 basechar 0
AnchorPoint: "Anchor-3" 323 538 basechar 0
AnchorPoint: "Anchor-1" 471 621 basechar 0
AnchorPoint: "Anchor-0" 323 0 basechar 0
LayerCount: 2
Fore
SplineSet
253 -12 m 0xba
 118 -12 34 97 34 269 c 0
 34 441 121 550 253 550 c 0
 331 550 386 516 414 461 c 1
 414 710 l 1
 586 710 l 1
 586 0 l 1x7c
 420 0 l 1x7a
 417 78 l 1
 387 21 327 -12 253 -12 c 0xba
313 115 m 0
 377 115 414 165 414 269 c 0
 414 374 378 423 313 423 c 0
 250 423 211 364 211 269 c 0xbc
 211 176 252 115 313 115 c 0
EndSplineSet
EndChar

StartChar: dcaron
Encoding: 271 271 191
Width: 767
GlyphClass: 2
Flags: MW
HStem: -12 127<282.5 290> 0 115<282.5 586 282.5 420> 413 297<414 630 658 748> 423 127<281.5 292 187 345.5> 690 20G<414 586 586 586 658 803 803 803>
VStem: 34 177<222.5 316.5 222.5 355> 414 172<217 321.5 461 710 0 710> 418.5 167.5
AnchorPoint: "Anchor-4" 608 538 basechar 0
AnchorPoint: "Anchor-3" 323 538 basechar 0
AnchorPoint: "Anchor-1" 471 621 basechar 0
AnchorPoint: "Anchor-0" 323 0 basechar 0
LayerCount: 2
Fore
SplineSet
253 -12 m 0x9d
 118 -12 34 97 34 269 c 0
 34 441 121 550 253 550 c 0
 331 550 386 516 414 461 c 1
 414 710 l 1
 586 710 l 1
 586 0 l 1x5e
 420 0 l 1x5d
 417 78 l 1
 387 21 327 -12 253 -12 c 0x9d
630 413 m 1xa6
 658 710 l 1
 803 710 l 1
 748 413 l 1
 630 413 l 1xa6
313 115 m 0
 377 115 414 165 414 269 c 0
 414 374 378 423 313 423 c 0x9e
 250 423 211 364 211 269 c 0
 211 176 252 115 313 115 c 0
EndSplineSet
EndChar

StartChar: dcroat
Encoding: 273 273 192
Width: 647
GlyphClass: 2
Flags: MW
HStem: -12 127<282.5 290> 0 115<282.5 586 282.5 420> 423 127<281.5 292 187 345.5> 574 94<289 414 289 414 586 653> 574 136<289 586 289 586 414 586 414 653>
VStem: 34 177<222.5 316.5 222.5 355> 414 172<217 321.5 461 574 0 574 668 710 0 710> 418.5 167.5
AnchorPoint: "Anchor-4" 608 538 basechar 0
AnchorPoint: "Anchor-3" 323 538 basechar 0
AnchorPoint: "Anchor-1" 471 621 basechar 0
AnchorPoint: "Anchor-0" 323 0 basechar 0
LayerCount: 2
Fore
SplineSet
253 -12 m 0x8d
 118 -12 34 97 34 269 c 0
 34 441 121 550 253 550 c 0xa6
 331 550 386 516 414 461 c 1
 414 574 l 1
 289 574 l 1x8e
 289 668 l 1
 414 668 l 1x96
 414 710 l 1
 586 710 l 1x8e
 586 668 l 1
 653 668 l 1x96
 653 574 l 1
 586 574 l 1
 586 0 l 1x4e
 420 0 l 1x4d
 417 78 l 1
 387 21 327 -12 253 -12 c 0x8d
313 115 m 0
 377 115 414 165 414 269 c 0
 414 374 378 423 313 423 c 0
 250 423 211 364 211 269 c 0
 211 176 252 115 313 115 c 0
EndSplineSet
EndChar

StartChar: eth
Encoding: 240 240 193
Width: 633
GlyphClass: 1
Flags: MW
HStem: -12 124<283 350.5 283 410> 351 124<283 336 223.5 350.5> 697 20G<548 548> 702 20G<225 225>
VStem: 34 177<195 267 195 306.5> 422 177<196 268>
LayerCount: 2
Fore
SplineSet
317 -12 m 0xec
 130 -12 34 80 34 231 c 0
 34 382 130 475 317 475 c 0
 355 475 392 466 426 452 c 1
 412 492 391 525 359 551 c 1
 228 493 l 1
 199 564 l 1
 272 596 l 1
 244 604 213 609 178 611 c 1
 225 722 l 1xdc
 302 715 366 693 418 660 c 1
 548 717 l 1
 577 647 l 1
 483 605 l 1
 563 520 599 397 599 265 c 0
 599 80 503 -12 317 -12 c 0xec
317 112 m 0
 384 112 422 159 422 233 c 0
 422 303 384 351 317 351 c 0
 249 351 211 303 211 231 c 0
 211 159 249 112 317 112 c 0
EndSplineSet
EndChar

StartChar: e
Encoding: 101 101 194
Width: 620
GlyphClass: 2
Flags: MW
HStem: -12 125<286.5 339.5 286.5 381.5> 224 98<212 412 212 586 212 412> 428 122<285 342>
VStem: 34 178<224 224 224 322 224 353.5> 412 174<224 322>
AnchorPoint: "Anchor-3" 317 536 basechar 0
AnchorPoint: "Anchor-2" 492 37 basechar 0
AnchorPoint: "Anchor-0" 317 0 basechar 0
LayerCount: 2
Fore
SplineSet
314 -12 m 0
 145 -12 34 99 34 269 c 0
 34 438 145 550 313 550 c 0
 480 550 586 437 586 256 c 2
 586 224 l 1
 212 224 l 1
 215 149 256 113 317 113 c 0
 362 113 394 130 407 171 c 1
 579 161 l 1
 549 49 449 -12 314 -12 c 0
212 322 m 1
 412 322 l 1
 409 393 371 428 313 428 c 0
 257 428 218 389 212 322 c 1
EndSplineSet
EndChar

StartChar: eacute
Encoding: 233 233 195
Width: 620
GlyphClass: 2
Flags: MW
HStem: -12 125<286.5 339.5 286.5 381.5> 224 98<212 412 212 586 212 412> 428 122<285 342> 587 154<238 457 294 367>
VStem: 34 178<224 224 224 322 224 353.5> 412 174<224 322>
AnchorPoint: "Anchor-3" 317 536 basechar 0
AnchorPoint: "Anchor-2" 492 37 basechar 0
AnchorPoint: "Anchor-0" 317 0 basechar 0
LayerCount: 2
Fore
SplineSet
238 587 m 1
 294 741 l 1
 457 741 l 1
 367 587 l 1
 238 587 l 1
314 -12 m 0
 145 -12 34 99 34 269 c 0
 34 438 145 550 313 550 c 0
 480 550 586 437 586 256 c 2
 586 224 l 1
 212 224 l 1
 215 149 256 113 317 113 c 0
 362 113 394 130 407 171 c 1
 579 161 l 1
 549 49 449 -12 314 -12 c 0
212 322 m 1
 412 322 l 1
 409 393 371 428 313 428 c 0
 257 428 218 389 212 322 c 1
EndSplineSet
EndChar

StartChar: ecaron
Encoding: 283 283 196
Width: 620
GlyphClass: 2
Flags: MW
HStem: -12 125<286.5 339.5 286.5 381.5> 224 98<212 412 212 586 212 412> 428 122<285 342> 587 160<236 254 379 397 236 236>
VStem: 34 178<224 224 224 322 224 353.5> 412 174<224 322>
AnchorPoint: "Anchor-3" 317 536 basechar 0
AnchorPoint: "Anchor-2" 492 37 basechar 0
AnchorPoint: "Anchor-0" 317 0 basechar 0
LayerCount: 2
Fore
SplineSet
138 747 m 1
 254 747 l 1
 317 658 l 1
 379 747 l 1
 495 747 l 1
 397 587 l 1
 236 587 l 1
 138 747 l 1
314 -12 m 0
 145 -12 34 99 34 269 c 0
 34 438 145 550 313 550 c 0
 480 550 586 437 586 256 c 2
 586 224 l 1
 212 224 l 1
 215 149 256 113 317 113 c 0
 362 113 394 130 407 171 c 1
 579 161 l 1
 549 49 449 -12 314 -12 c 0
212 322 m 1
 412 322 l 1
 409 393 371 428 313 428 c 0
 257 428 218 389 212 322 c 1
EndSplineSet
EndChar

StartChar: ecircumflex
Encoding: 234 234 197
Width: 620
GlyphClass: 2
Flags: MW
HStem: -12 125<286.5 339.5 286.5 381.5> 224 98<212 412 212 586 212 412> 428 122<285 342> 587 160<138 397 236 254 379 379 379 397 236 495>
VStem: 34 178<224 224 224 322 224 353.5> 412 174<224 322>
AnchorPoint: "Anchor-3" 317 536 basechar 0
AnchorPoint: "Anchor-2" 492 37 basechar 0
AnchorPoint: "Anchor-0" 317 0 basechar 0
LayerCount: 2
Fore
SplineSet
138 587 m 1
 236 747 l 1
 397 747 l 1
 495 587 l 1
 379 587 l 1
 317 676 l 1
 254 587 l 1
 138 587 l 1
314 -12 m 0
 145 -12 34 99 34 269 c 0
 34 438 145 550 313 550 c 0
 480 550 586 437 586 256 c 2
 586 224 l 1
 212 224 l 1
 215 149 256 113 317 113 c 0
 362 113 394 130 407 171 c 1
 579 161 l 1
 549 49 449 -12 314 -12 c 0
212 322 m 1
 412 322 l 1
 409 393 371 428 313 428 c 0
 257 428 218 389 212 322 c 1
EndSplineSet
EndChar

StartChar: edieresis
Encoding: 235 235 198
Width: 620
GlyphClass: 2
Flags: MW
HStem: -12 125<286.5 339.5 286.5 381.5> 224 98<212 412 212 586 212 412> 428 122<285 342> 593 128<122 283 122 283 350 512 122 350>
VStem: 34 178<224 224 224 322 224 353.5> 122 161<593 721 593 721> 350 162<593 721 593 721> 412 174<224 322>
AnchorPoint: "Anchor-3" 317 536 basechar 0
AnchorPoint: "Anchor-2" 492 37 basechar 0
AnchorPoint: "Anchor-0" 317 0 basechar 0
LayerCount: 2
Fore
SplineSet
122 593 m 1xf6
 122 721 l 1
 283 721 l 1
 283 593 l 1
 122 593 l 1xf6
350 593 m 1
 350 721 l 1
 512 721 l 1
 512 593 l 1
 350 593 l 1
314 -12 m 0
 145 -12 34 99 34 269 c 0
 34 438 145 550 313 550 c 0
 480 550 586 437 586 256 c 2
 586 224 l 1
 212 224 l 1xf9
 215 149 256 113 317 113 c 0
 362 113 394 130 407 171 c 1
 579 161 l 1
 549 49 449 -12 314 -12 c 0
212 322 m 1
 412 322 l 1
 409 393 371 428 313 428 c 0
 257 428 218 389 212 322 c 1
EndSplineSet
Substitution2: "'ss08' Style Set 8 in Latin lookup 41 subtable" edieresis.ss08
Substitution2: "'aalt' Access All Alternates in Latin lookup 0 subtable" edieresis.ss08
EndChar

StartChar: edotaccent
Encoding: 279 279 199
Width: 620
GlyphClass: 2
Flags: MW
HStem: -12 125<286.5 339.5 286.5 381.5> 224 98<212 412 212 586 212 412> 428 122<285 342> 596 128<228 405 228 405>
VStem: 34 178<224 224 224 322 224 353.5> 228 177<596 724 596 724> 412 174<224 322>
AnchorPoint: "Anchor-3" 317 536 basechar 0
AnchorPoint: "Anchor-2" 492 37 basechar 0
AnchorPoint: "Anchor-0" 317 0 basechar 0
LayerCount: 2
Fore
SplineSet
228 596 m 1
 228 724 l 1
 405 724 l 1
 405 596 l 1
 228 596 l 1
314 -12 m 0
 145 -12 34 99 34 269 c 0
 34 438 145 550 313 550 c 0
 480 550 586 437 586 256 c 2
 586 224 l 1
 212 224 l 1xfa
 215 149 256 113 317 113 c 0
 362 113 394 130 407 171 c 1
 579 161 l 1
 549 49 449 -12 314 -12 c 0
212 322 m 1
 412 322 l 1
 409 393 371 428 313 428 c 0
 257 428 218 389 212 322 c 1
EndSplineSet
Substitution2: "'ss08' Style Set 8 in Latin lookup 41 subtable" edotaccent.ss08
Substitution2: "'aalt' Access All Alternates in Latin lookup 0 subtable" edotaccent.ss08
EndChar

StartChar: egrave
Encoding: 232 232 200
Width: 620
GlyphClass: 2
Flags: MW
HStem: -12 125<286.5 339.5 286.5 381.5> 224 98<212 412 212 586 212 412> 428 122<285 342> 594 153<263 263 263 336 173 392>
VStem: 34 178<224 224 224 322 224 353.5> 412 174<224 322>
AnchorPoint: "Anchor-3" 317 536 basechar 0
AnchorPoint: "Anchor-2" 492 37 basechar 0
AnchorPoint: "Anchor-0" 317 0 basechar 0
LayerCount: 2
Fore
SplineSet
263 594 m 1
 173 747 l 1
 336 747 l 1
 392 594 l 1
 263 594 l 1
314 -12 m 0
 145 -12 34 99 34 269 c 0
 34 438 145 550 313 550 c 0
 480 550 586 437 586 256 c 2
 586 224 l 1
 212 224 l 1
 215 149 256 113 317 113 c 0
 362 113 394 130 407 171 c 1
 579 161 l 1
 549 49 449 -12 314 -12 c 0
212 322 m 1
 412 322 l 1
 409 393 371 428 313 428 c 0
 257 428 218 389 212 322 c 1
EndSplineSet
EndChar

StartChar: emacron
Encoding: 275 275 201
Width: 620
GlyphClass: 2
Flags: MW
HStem: -12 125<286.5 339.5 286.5 381.5> 224 98<212 412 212 586 212 412> 428 122<285 342> 599 122<162 471 162 471>
VStem: 34 178<224 224 224 322 224 353.5> 162 309<599 721 599 721> 412 174<224 322>
AnchorPoint: "Anchor-3" 317 536 basechar 0
AnchorPoint: "Anchor-2" 492 37 basechar 0
AnchorPoint: "Anchor-0" 317 0 basechar 0
LayerCount: 2
Fore
SplineSet
162 599 m 1xf4
 162 721 l 1
 471 721 l 1
 471 599 l 1
 162 599 l 1xf4
314 -12 m 0
 145 -12 34 99 34 269 c 0
 34 438 145 550 313 550 c 0
 480 550 586 437 586 256 c 2
 586 224 l 1
 212 224 l 1xfa
 215 149 256 113 317 113 c 0
 362 113 394 130 407 171 c 1
 579 161 l 1
 549 49 449 -12 314 -12 c 0
212 322 m 1
 412 322 l 1
 409 393 371 428 313 428 c 0
 257 428 218 389 212 322 c 1
EndSplineSet
EndChar

StartChar: eogonek
Encoding: 281 281 202
Width: 620
GlyphClass: 2
Flags: MW
HStem: -220 97<361 447.5> -12 125<286.5 317 314 332> 224 98<212 412 212 586 212 412> 428 122<285 342>
VStem: 34 178<224 224 224 322 224 353.5> 279 136<-106 -105> 412 174<224 322>
AnchorPoint: "Anchor-3" 317 536 basechar 0
AnchorPoint: "Anchor-2" 492 37 basechar 0
AnchorPoint: "Anchor-0" 317 0 basechar 0
LayerCount: 2
Fore
SplineSet
314 -12 m 0xfc
 145 -12 34 99 34 269 c 0
 34 438 145 550 313 550 c 0
 480 550 586 437 586 256 c 2
 586 224 l 1xfa
 212 224 l 1
 215 149 256 113 317 113 c 0
 362 113 394 130 407 171 c 1
 579 161 l 1
 570 127 554 98 533 73 c 1
 534 73 l 1
 444 -34 l 2
 424 -58 415 -80 415 -97 c 0
 415 -115 427 -123 440 -123 c 0
 455 -123 471 -117 480 -110 c 1
 509 -194 l 1
 490 -208 445 -220 399 -220 c 0
 323 -220 279 -186 279 -126 c 0
 279 -84 296 -52 322 -22 c 2
 332 -12 l 1
 326 -12 320 -12 314 -12 c 0xfc
212 322 m 1
 412 322 l 1
 409 393 371 428 313 428 c 0
 257 428 218 389 212 322 c 1
EndSplineSet
EndChar

StartChar: uni1EBD
Encoding: 7869 7869 203
Width: 620
GlyphClass: 2
Flags: MW
HStem: -12 125<286.5 339.5 286.5 381.5> 224 98<212 412 212 586 212 412> 428 122<285 342> 590 150<219 223 140 272> 595 100<368.5 383.5 368.5 410.5> 595 152<410 410.5> 640 100<250.5 265>
VStem: 34 178<224 224 224 322 224 353.5> 140 83<590 590> 410 82<747 747> 412 174<224 322>
AnchorPoint: "Anchor-3" 317 536 basechar 0
AnchorPoint: "Anchor-2" 492 37 basechar 0
AnchorPoint: "Anchor-0" 317 0 basechar 0
LayerCount: 2
Fore
SplineSet
372 595 m 0xe540
 339 595 320 602 294 625 c 0
 281 635 271 640 259 640 c 0xe2c0
 242 640 226 629 223 590 c 1
 140 590 l 1
 141 680 182 740 256 740 c 0xf0c0
 288 740 312 733 339 711 c 0
 354 700 363 695 374 695 c 0xe940
 393 695 407 706 410 747 c 1
 492 747 l 1
 491 654 449 595 372 595 c 0xe540
314 -12 m 0
 145 -12 34 99 34 269 c 0
 34 438 145 550 313 550 c 0
 480 550 586 437 586 256 c 2
 586 224 l 1
 212 224 l 1xe120
 215 149 256 113 317 113 c 0
 362 113 394 130 407 171 c 1
 579 161 l 1
 549 49 449 -12 314 -12 c 0
212 322 m 1
 412 322 l 1
 409 393 371 428 313 428 c 0
 257 428 218 389 212 322 c 1
EndSplineSet
EndChar

StartChar: uni0259
Encoding: 601 601 204
Width: 620
GlyphClass: 2
Flags: MW
HStem: -12 122<278.5 335 278.5 391> 216 98<208 408 208 208> 425 125<281 333.5>
VStem: 34 174<216 314 216 314> 408 178<216 216 314 314>
AnchorPoint: "Anchor-3" 304 538 basechar 0
AnchorPoint: "Anchor-2" 128 501 basechar 0
AnchorPoint: "Anchor-0" 304 2 basechar 0
LayerCount: 2
Fore
SplineSet
306 550 m 0
 475 550 586 439 586 269 c 0
 586 100 475 -12 307 -12 c 0
 140 -12 34 101 34 282 c 2
 34 314 l 1
 408 314 l 1
 405 389 364 425 303 425 c 0
 259 425 226 408 213 367 c 1
 42 377 l 1
 71 489 172 550 306 550 c 0
408 216 m 1
 208 216 l 1
 211 145 250 110 307 110 c 0
 363 110 402 149 408 216 c 1
EndSplineSet
EndChar

StartChar: f
Encoding: 102 102 205
Width: 464
GlyphClass: 2
Flags: MW
HStem: 0 21G<121 121 121 294> 386 125<41 121 41 121 294 427> 586 124<331 352 352 434>
VStem: 121 173<0 386 0 386 511 524 0 532 0 589>
AnchorPoint: "Anchor-3" 233 710 basechar 0
AnchorPoint: "Anchor-0" 233 0 basechar 0
LayerCount: 2
Fore
SplineSet
121 0 m 1
 121 386 l 1
 41 386 l 1
 41 511 l 1
 121 511 l 1
 121 532 l 2
 121 646 181 710 310 710 c 2
 434 710 l 1
 434 586 l 1
 352 586 l 2
 310 586 294 566 294 524 c 2
 294 511 l 1
 427 511 l 1
 427 386 l 1
 294 386 l 1
 294 0 l 1
 121 0 l 1
EndSplineSet
EndChar

StartChar: g
Encoding: 103 103 206
Width: 647
GlyphClass: 2
Flags: MW
HStem: -162 114<286.5 346 286.5 394> -13 21G<51 51> 24 121<282 291.5> 430 108<281 586> 430 120<281 296.5 191.5 344.5>
VStem: 34 177<244 330 244 363.5> 412 174<55 58 58 103 103 103> 414 172<242 331.5> 416 170<456 538>
AnchorPoint: "Anchor-3" 318 538 basechar 0
AnchorPoint: "Anchor-0" 315 -150 basechar 0
LayerCount: 2
Fore
SplineSet
315 -162 m 0xf480
 148 -162 76 -100 51 -13 c 1
 227 0 l 1
 237 -31 258 -48 315 -48 c 0
 377 -48 412 -18 412 55 c 2
 412 103 l 1
 387 55 326 24 257 24 c 0
 126 24 34 125 34 286 c 0
 34 441 126 550 257 550 c 0xee
 336 550 388 512 416 456 c 1
 416 538 l 1
 586 538 l 1
 586 58 l 2
 586 -92 473 -162 315 -162 c 0xf480
313 145 m 0
 375 145 414 197 414 287 c 0xed
 414 376 376 430 313 430 c 0
 249 430 211 373 211 287 c 0
 211 201 251 145 313 145 c 0
EndSplineSet
EndChar

StartChar: gbreve
Encoding: 287 287 207
Width: 647
GlyphClass: 2
Flags: MW
HStem: -162 114<286.5 346 286.5 394> -13 21G<51 51> 24 121<282 291.5> 430 108<281 586> 430 120<281 296.5 191.5 344.5> 588 89<299 337 299 366.5> 588 153<156 366.5>
VStem: 34 177<244 330 244 363.5> 412 174<55 58 58 103 103 103> 414 172<242 331.5> 416 170<456 538>
AnchorPoint: "Anchor-3" 318 538 basechar 0
AnchorPoint: "Anchor-0" 315 -150 basechar 0
LayerCount: 2
Fore
SplineSet
318 588 m 0xeb80
 222 588 160 643 156 741 c 1xf320
 252 741 l 1
 257 695 280 677 318 677 c 0xed20
 356 677 380 695 384 741 c 1
 480 741 l 1
 476 643 415 588 318 588 c 0xeb80
315 -162 m 0
 148 -162 76 -100 51 -13 c 1
 227 0 l 1
 237 -31 258 -48 315 -48 c 0
 377 -48 412 -18 412 55 c 2
 412 103 l 1
 387 55 326 24 257 24 c 0
 126 24 34 125 34 286 c 0
 34 441 126 550 257 550 c 0xed80
 336 550 388 512 416 456 c 1
 416 538 l 1
 586 538 l 1
 586 58 l 2
 586 -92 473 -162 315 -162 c 0
313 145 m 0
 375 145 414 197 414 287 c 0xed40
 414 376 376 430 313 430 c 0
 249 430 211 373 211 287 c 0
 211 201 251 145 313 145 c 0
EndSplineSet
EndChar

StartChar: gcaron
Encoding: 487 487 208
Width: 647
GlyphClass: 2
Flags: MW
HStem: -162 114<286.5 346 286.5 394> -13 21G<51 51> 24 121<282 291.5> 430 108<281 586> 430 120<281 296.5 191.5 344.5> 589 160<238 256 380 399 238 238>
VStem: 34 177<244 330 244 363.5> 412 174<55 58 58 103 103 103> 414 172<242 331.5> 416 170<456 538>
AnchorPoint: "Anchor-3" 318 538 basechar 0
AnchorPoint: "Anchor-0" 315 -150 basechar 0
LayerCount: 2
Fore
SplineSet
140 749 m 1xf640
 256 749 l 1
 318 660 l 1
 380 749 l 1
 497 749 l 1
 399 589 l 1
 238 589 l 1
 140 749 l 1xf640
315 -162 m 0
 148 -162 76 -100 51 -13 c 1
 227 0 l 1
 237 -31 258 -48 315 -48 c 0
 377 -48 412 -18 412 55 c 2
 412 103 l 1
 387 55 326 24 257 24 c 0
 126 24 34 125 34 286 c 0
 34 441 126 550 257 550 c 0xef
 336 550 388 512 416 456 c 1
 416 538 l 1
 586 538 l 1
 586 58 l 2
 586 -92 473 -162 315 -162 c 0
313 145 m 0
 375 145 414 197 414 287 c 0xee80
 414 376 376 430 313 430 c 0
 249 430 211 373 211 287 c 0
 211 201 251 145 313 145 c 0
EndSplineSet
EndChar

StartChar: gcircumflex
Encoding: 285 285 209
Width: 647
GlyphClass: 2
Flags: MW
HStem: -162 114<286.5 346 286.5 394> -13 21G<51 51> 24 121<282 291.5> 430 108<281 586> 430 120<281 296.5 191.5 344.5> 589 160<140 399 238 256 380 380 380 399 238 497>
VStem: 34 177<244 330 244 363.5> 412 174<55 58 58 103 103 103> 414 172<242 331.5> 416 170<456 538>
AnchorPoint: "Anchor-3" 318 538 basechar 0
AnchorPoint: "Anchor-0" 315 -150 basechar 0
LayerCount: 2
Fore
SplineSet
140 589 m 1xf640
 238 749 l 1
 399 749 l 1
 497 589 l 1
 380 589 l 1
 318 678 l 1
 256 589 l 1
 140 589 l 1xf640
315 -162 m 0
 148 -162 76 -100 51 -13 c 1
 227 0 l 1
 237 -31 258 -48 315 -48 c 0
 377 -48 412 -18 412 55 c 2
 412 103 l 1
 387 55 326 24 257 24 c 0
 126 24 34 125 34 286 c 0
 34 441 126 550 257 550 c 0xef
 336 550 388 512 416 456 c 1
 416 538 l 1
 586 538 l 1
 586 58 l 2
 586 -92 473 -162 315 -162 c 0
313 145 m 0
 375 145 414 197 414 287 c 0xee80
 414 376 376 430 313 430 c 0
 249 430 211 373 211 287 c 0
 211 201 251 145 313 145 c 0
EndSplineSet
EndChar

StartChar: uni0123
Encoding: 291 291 210
Width: 647
GlyphClass: 2
Flags: MW
HStem: -162 114<286.5 346 286.5 394> -13 21G<51 51> 24 121<282 291.5> 430 108<281 586> 430 120<281 296.5 191.5 344.5> 588 125<249 389 355 389 355 389>
VStem: 34 177<244 330 244 363.5> 249 140<588 700 700 700> 412 174<55 58 58 103 103 103> 414 172<242 331.5> 416 170<456 538>
AnchorPoint: "Anchor-3" 318 538 basechar 0
AnchorPoint: "Anchor-0" 315 -150 basechar 0
LayerCount: 2
Fore
SplineSet
249 588 m 1xef
 249 700 l 1
 308 798 l 1
 406 798 l 1
 355 713 l 1
 389 713 l 1
 389 588 l 1
 249 588 l 1xef
315 -162 m 0
 148 -162 76 -100 51 -13 c 1
 227 0 l 1
 237 -31 258 -48 315 -48 c 0
 377 -48 412 -18 412 55 c 2
 412 103 l 1
 387 55 326 24 257 24 c 0
 126 24 34 125 34 286 c 0
 34 441 126 550 257 550 c 0xee80
 336 550 388 512 416 456 c 1
 416 538 l 1
 586 538 l 1
 586 58 l 2xf620
 586 -92 473 -162 315 -162 c 0
313 145 m 0
 375 145 414 197 414 287 c 0xee40
 414 376 376 430 313 430 c 0
 249 430 211 373 211 287 c 0
 211 201 251 145 313 145 c 0
EndSplineSet
EndChar

StartChar: gdotaccent
Encoding: 289 289 211
Width: 647
GlyphClass: 2
Flags: MW
HStem: -162 114<286.5 346 286.5 394> -13 21G<51 51> 24 121<282 291.5> 430 108<281 586> 430 120<281 296.5 191.5 344.5> 598 128<229 407 229 407>
VStem: 34 177<244 330 244 363.5> 229 178<598 726 598 726> 412 174<55 58 58 103 103 103> 414 172<242 331.5> 416 170<456 538>
AnchorPoint: "Anchor-3" 318 538 basechar 0
AnchorPoint: "Anchor-0" 315 -150 basechar 0
LayerCount: 2
Fore
SplineSet
229 598 m 1xed
 229 726 l 1
 407 726 l 1
 407 598 l 1
 229 598 l 1xed
315 -162 m 0
 148 -162 76 -100 51 -13 c 1
 227 0 l 1
 237 -31 258 -48 315 -48 c 0
 377 -48 412 -18 412 55 c 2
 412 103 l 1
 387 55 326 24 257 24 c 0
 126 24 34 125 34 286 c 0
 34 441 126 550 257 550 c 0xee80
 336 550 388 512 416 456 c 1
 416 538 l 1
 586 538 l 1
 586 58 l 2xf620
 586 -92 473 -162 315 -162 c 0
313 145 m 0
 375 145 414 197 414 287 c 0xee40
 414 376 376 430 313 430 c 0
 249 430 211 373 211 287 c 0
 211 201 251 145 313 145 c 0
EndSplineSet
Substitution2: "'ss08' Style Set 8 in Latin lookup 41 subtable" gdotaccent.ss08
Substitution2: "'aalt' Access All Alternates in Latin lookup 0 subtable" gdotaccent.ss08
EndChar

StartChar: uni1E21
Encoding: 7713 7713 212
Width: 647
GlyphClass: 2
Flags: MW
HStem: -162 114<286.5 346 286.5 394> -13 21G<51 51> 24 121<282 291.5> 430 108<281 586> 430 120<281 296.5 191.5 344.5> 601 122<163 473 163 473>
VStem: 34 177<244 330 244 363.5> 412 174<55 58 58 103 103 103> 414 172<242 331.5> 416 57 416 170<456 538>
AnchorPoint: "Anchor-3" 318 538 basechar 0
AnchorPoint: "Anchor-0" 315 -150 basechar 0
LayerCount: 2
Fore
SplineSet
163 601 m 1xee40
 163 723 l 1
 473 723 l 1
 473 601 l 1
 163 601 l 1xee40
315 -162 m 0
 148 -162 76 -100 51 -13 c 1
 227 0 l 1
 237 -31 258 -48 315 -48 c 0
 377 -48 412 -18 412 55 c 2
 412 103 l 1
 387 55 326 24 257 24 c 0
 126 24 34 125 34 286 c 0
 34 441 126 550 257 550 c 0xef
 336 550 388 512 416 456 c 1
 416 538 l 1
 586 538 l 1
 586 58 l 2xf620
 586 -92 473 -162 315 -162 c 0
313 145 m 0
 375 145 414 197 414 287 c 0xee80
 414 376 376 430 313 430 c 0
 249 430 211 373 211 287 c 0
 211 201 251 145 313 145 c 0
EndSplineSet
EndChar

StartChar: uni01E5
Encoding: 485 485 213
Width: 670
GlyphClass: 2
Flags: MW
HStem: -162 114<286.5 346 286.5 394> -13 21G<51 51> 24 121<282 291.5> 235 94<294 409 294 411 586 649> 430 108<281 586> 430 120<281 296.5 191.5 339>
VStem: 34 177<244 330 244 363.5> 412 174<55 58 58 103 103 103> 416 170<456 538>
AnchorPoint: "Anchor-3" 318 538 basechar 0
AnchorPoint: "Anchor-0" 315 -150 basechar 0
LayerCount: 2
Fore
SplineSet
315 -162 m 0xdb
 148 -162 76 -100 51 -13 c 1
 227 0 l 1
 237 -31 258 -48 315 -48 c 0
 377 -48 412 -18 412 55 c 2
 412 103 l 1
 387 55 326 24 257 24 c 0
 126 24 34 125 34 286 c 0
 34 441 126 550 257 550 c 0xf7
 336 550 388 512 416 456 c 1
 416 538 l 1xda80
 586 538 l 1
 586 329 l 1
 649 329 l 1
 649 235 l 1
 586 235 l 1
 586 58 l 2
 586 -92 473 -162 315 -162 c 0xdb
313 145 m 0
 362 145 396 177 409 235 c 1
 294 235 l 1
 294 329 l 1
 411 329 l 1
 401 393 365 430 313 430 c 0
 249 430 211 373 211 287 c 0
 211 201 251 145 313 145 c 0
EndSplineSet
EndChar

StartChar: h
Encoding: 104 104 214
Width: 621
GlyphClass: 2
Flags: MW
HStem: 0 21G<61 61 61 233 388 388 388 560> 416 134<290 438> 690 20G<61 233 233 233>
VStem: 61 172<0 302 477 710> 388 172<0 307 307 342.5>
AnchorPoint: "Anchor-3" 149 690 basechar 0
AnchorPoint: "Anchor-1" 176 621 basechar 0
AnchorPoint: "Anchor-0" 311 0 basechar 0
LayerCount: 2
Fore
SplineSet
61 0 m 1
 61 710 l 1
 233 710 l 1
 233 477 l 1
 263 526 316 550 377 550 c 0
 499 550 560 465 560 346 c 2
 560 0 l 1
 388 0 l 1
 388 307 l 2
 388 378 369 416 317 416 c 0
 263 416 233 377 233 302 c 2
 233 0 l 1
 61 0 l 1
EndSplineSet
EndChar

StartChar: hbar
Encoding: 295 295 215
Width: 621
GlyphClass: 2
Flags: MW
HStem: 0 21G<61 61 61 233 388 388 388 560> 416 134<290 438> 574 94<-6 61 -6 61 233 358> 574 136<-6 233 -6 233 61 233 61 358>
VStem: 61 172<0 302 477 574 668 710> 388 172<0 307 307 342.5>
AnchorPoint: "Anchor-3" 149 690 basechar 0
AnchorPoint: "Anchor-1" 176 621 basechar 0
AnchorPoint: "Anchor-0" 311 0 basechar 0
LayerCount: 2
Fore
SplineSet
61 0 m 1xcc
 61 574 l 1
 -6 574 l 1x9c
 -6 668 l 1
 61 668 l 1xac
 61 710 l 1
 233 710 l 1x9c
 233 668 l 1
 358 668 l 1xac
 358 574 l 1
 233 574 l 1x9c
 233 477 l 1
 263 526 316 550 377 550 c 0
 499 550 560 465 560 346 c 2
 560 0 l 1
 388 0 l 1
 388 307 l 2
 388 378 369 416 317 416 c 0
 263 416 233 377 233 302 c 2
 233 0 l 1
 61 0 l 1xcc
EndSplineSet
EndChar

StartChar: hcircumflex
Encoding: 293 293 216
Width: 621
GlyphClass: 2
Flags: MW
HStem: 0 21G<61 61 61 233 388 388 388 560> 416 134<290 438> 690 20G<61 233 233 233> 741 160<-29 230 69 87 211 211 211 230 69 328>
VStem: 61 172<0 302 477 710> 388 172<0 307 307 342.5>
AnchorPoint: "Anchor-3" 149 690 basechar 0
AnchorPoint: "Anchor-1" 176 621 basechar 0
AnchorPoint: "Anchor-0" 311 0 basechar 0
LayerCount: 2
Fore
SplineSet
-29 741 m 1
 69 901 l 1
 230 901 l 1
 328 741 l 1
 211 741 l 1
 149 830 l 1
 87 741 l 1
 -29 741 l 1
61 0 m 1
 61 710 l 1
 233 710 l 1
 233 477 l 1
 263 526 316 550 377 550 c 0
 499 550 560 465 560 346 c 2
 560 0 l 1
 388 0 l 1
 388 307 l 2
 388 378 369 416 317 416 c 0
 263 416 233 377 233 302 c 2
 233 0 l 1
 61 0 l 1
EndSplineSet
EndChar

StartChar: i
Encoding: 105 105 217
Width: 294
GlyphClass: 2
Flags: MW
HStem: 0 21G<61 61 61 233> 518 20G<61 233 233 233> 598 128<58 236 58 236>
VStem: 58 175<0 726> 61 172<0 538 0 538> 61 175<0 726 538 726>
AnchorPoint: "Anchor-3" 147 538 basechar 0
AnchorPoint: "Anchor-2" 233 0 basechar 0
AnchorPoint: "Anchor-0" 147 0 basechar 0
LayerCount: 2
Fore
SplineSet
58 598 m 1xf0
 58 726 l 1xf0
 236 726 l 1
 236 598 l 1xe4
 58 598 l 1xf0
61 0 m 1xe8
 61 538 l 1
 233 538 l 1
 233 0 l 1
 61 0 l 1xe8
EndSplineSet
Substitution2: "'ss08' Style Set 8 in Latin lookup 41 subtable" i.ss08
Substitution2: "'locl' Localized Forms in Latin lookup 9 subtable" i.loclTRK
Substitution2: "Single Substitution lookup 3 subtable" dotlessi
AlternateSubs2: "'aalt' Access All Alternates in Latin lookup 1 subtable" i.loclTRK i.ss08
EndChar

StartChar: dotlessi
Encoding: 305 305 218
Width: 294
GlyphClass: 2
Flags: MW
HStem: 0 21G<61 61 61 233> 518 20G<61 233 233 233>
VStem: 61 172<0 538 0 538>
AnchorPoint: "Anchor-3" 147 538 basechar 0
AnchorPoint: "Anchor-2" 233 0 basechar 0
AnchorPoint: "Anchor-0" 147 0 basechar 0
LayerCount: 2
Fore
SplineSet
61 0 m 1
 61 538 l 1
 233 538 l 1
 233 0 l 1
 61 0 l 1
EndSplineSet
EndChar

StartChar: iacute
Encoding: 237 237 219
Width: 294
GlyphClass: 2
Flags: MW
HStem: 0 21G<61 61 61 233> 518 20G<61 233 233 233> 589 154<68 287 125 197>
VStem: 61 172<0 538 0 538>
AnchorPoint: "Anchor-3" 147 538 basechar 0
AnchorPoint: "Anchor-2" 233 0 basechar 0
AnchorPoint: "Anchor-0" 147 0 basechar 0
LayerCount: 2
Fore
SplineSet
68 589 m 1
 125 743 l 1
 287 743 l 1
 197 589 l 1
 68 589 l 1
61 0 m 1
 61 538 l 1
 233 538 l 1
 233 0 l 1
 61 0 l 1
EndSplineSet
EndChar

StartChar: icircumflex
Encoding: 238 238 220
Width: 294
GlyphClass: 2
Flags: MW
HStem: 0 21G<61 61 61 233> 518 20G<61 233 233 233> 589 160<-32 227 66 85 209 209 209 227 66 325>
VStem: 61 172<0 538 0 538>
AnchorPoint: "Anchor-3" 147 538 basechar 0
AnchorPoint: "Anchor-2" 233 0 basechar 0
AnchorPoint: "Anchor-0" 147 0 basechar 0
LayerCount: 2
Fore
SplineSet
-32 589 m 1
 66 749 l 1
 227 749 l 1
 325 589 l 1
 209 589 l 1
 147 678 l 1
 85 589 l 1
 -32 589 l 1
61 0 m 1
 61 538 l 1
 233 538 l 1
 233 0 l 1
 61 0 l 1
EndSplineSet
EndChar

StartChar: idieresis
Encoding: 239 239 221
Width: 294
GlyphClass: 2
Flags: MW
HStem: 0 21G<61 61 61 233> 518 20G<61 233 233 233> 595 128<-48 113 -48 113 180 342 -48 180>
VStem: -48 161<595 723 595 723> 61 52 61 172<0 538 0 538> 180 53 180 162<595 723 595 723>
AnchorPoint: "Anchor-3" 147 538 basechar 0
AnchorPoint: "Anchor-2" 233 0 basechar 0
AnchorPoint: "Anchor-0" 147 0 basechar 0
LayerCount: 2
Fore
SplineSet
-48 595 m 1xf0
 -48 723 l 1xf2
 113 723 l 1
 113 595 l 1xe8
 -48 595 l 1xf0
180 595 m 1
 180 723 l 1xe2
 342 723 l 1
 342 595 l 1xe1
 180 595 l 1
61 0 m 1xe4
 61 538 l 1
 233 538 l 1
 233 0 l 1
 61 0 l 1xe4
EndSplineSet
Substitution2: "'ss08' Style Set 8 in Latin lookup 41 subtable" idieresis.ss08
Substitution2: "'aalt' Access All Alternates in Latin lookup 0 subtable" idieresis.ss08
EndChar

StartChar: i.loclTRK
Encoding: 65576 -1 222
Width: 294
GlyphClass: 2
Flags: MW
HStem: 0 21G<61 61 61 233> 518 20G<61 233 233 233> 598 128<58 236 58 236>
VStem: 58 175<0 726> 61 172<0 538 0 538> 61 175<0 726 538 726>
AnchorPoint: "Anchor-3" 147 538 basechar 0
AnchorPoint: "Anchor-2" 233 0 basechar 0
AnchorPoint: "Anchor-0" 147 0 basechar 0
LayerCount: 2
Fore
SplineSet
58 598 m 1xf0
 58 726 l 1xf0
 236 726 l 1
 236 598 l 1xe4
 58 598 l 1xf0
61 0 m 1xe8
 61 538 l 1
 233 538 l 1
 233 0 l 1
 61 0 l 1xe8
EndSplineSet
Substitution2: "'ss08' Style Set 8 in Latin lookup 41 subtable" i.loclTRK.ss08
Substitution2: "'aalt' Access All Alternates in Latin lookup 0 subtable" i.loclTRK.ss08
EndChar

StartChar: igrave
Encoding: 236 236 223
Width: 294
GlyphClass: 2
Flags: MW
HStem: 0 21G<61 61 61 233> 518 20G<61 233 233 233> 596 153<93 93 93 166 3 223>
VStem: 61 172<0 538 0 538>
AnchorPoint: "Anchor-3" 147 538 basechar 0
AnchorPoint: "Anchor-2" 233 0 basechar 0
AnchorPoint: "Anchor-0" 147 0 basechar 0
LayerCount: 2
Fore
SplineSet
93 596 m 1
 3 749 l 1
 166 749 l 1
 223 596 l 1
 93 596 l 1
61 0 m 1
 61 538 l 1
 233 538 l 1
 233 0 l 1
 61 0 l 1
EndSplineSet
EndChar

StartChar: imacron
Encoding: 299 299 224
Width: 294
GlyphClass: 2
Flags: MW
HStem: 0 21G<61 61 61 233> 518 20G<61 233 233 233> 601 122<-8 302 -8 302>
VStem: -8 310<601 723 601 723> 61 172<0 538 0 538>
AnchorPoint: "Anchor-3" 147 538 basechar 0
AnchorPoint: "Anchor-2" 233 0 basechar 0
AnchorPoint: "Anchor-0" 147 0 basechar 0
LayerCount: 2
Fore
SplineSet
-8 601 m 1xf0
 -8 723 l 1
 302 723 l 1
 302 601 l 1
 -8 601 l 1xf0
61 0 m 1xe8
 61 538 l 1
 233 538 l 1
 233 0 l 1
 61 0 l 1xe8
EndSplineSet
EndChar

StartChar: iogonek
Encoding: 303 303 225
Width: 294
GlyphClass: 2
Flags: MW
HStem: -220 97<119 205.5> 0 21G<61 61 61 99 233 233> 518 20G<61 233 233 233> 598 128<58 236 58 236>
VStem: 37 135<-158.5 -90> 58 175<0 726> 61 111<-106.5 538> 61 172<0 538 0 538> 61 175<0 726 538 726>
AnchorPoint: "Anchor-3" 147 538 basechar 0
AnchorPoint: "Anchor-2" 233 0 basechar 0
AnchorPoint: "Anchor-0" 147 0 basechar 0
LayerCount: 2
Fore
SplineSet
58 598 m 1xf4
 58 726 l 1xf4
 236 726 l 1
 236 598 l 1xf080
 58 598 l 1xf4
61 0 m 1xf1
 61 538 l 1
 233 538 l 1
 233 0 l 1xf1
 204 -37 l 2
 186 -61 172 -82 172 -98 c 0xf2
 172 -115 184 -123 197 -123 c 0
 214 -123 232 -117 241 -110 c 1
 270 -194 l 1
 251 -208 202 -220 157 -220 c 0
 81 -220 37 -188 37 -129 c 0xf8
 37 -88 60 -50 84 -19 c 2
 99 0 l 1
 61 0 l 1xf1
EndSplineSet
Substitution2: "'ss08' Style Set 8 in Latin lookup 41 subtable" iogonek.ss08
Substitution2: "'aalt' Access All Alternates in Latin lookup 0 subtable" iogonek.ss08
EndChar

StartChar: itilde
Encoding: 297 297 226
Width: 294
GlyphClass: 2
Flags: MW
HStem: 0 21G<61 61 61 233> 518 20G<61 233 233 233> 592 150<49 53 -30 102> 597 100<198.5 213.5 198.5 241> 597 152<240 241> 642 100<80.5 95>
VStem: -30 83<592 592> 61 172<0 538 0 538> 240 82<749 749>
AnchorPoint: "Anchor-3" 147 538 basechar 0
AnchorPoint: "Anchor-2" 233 0 basechar 0
AnchorPoint: "Anchor-0" 147 0 basechar 0
LayerCount: 2
Fore
SplineSet
202 597 m 0xc880
 169 597 151 604 124 627 c 0
 111 637 101 642 89 642 c 0xc6
 72 642 56 631 53 592 c 1
 -30 592 l 1
 -29 682 12 742 86 742 c 0xe2
 118 742 142 735 169 713 c 0
 184 702 193 697 204 697 c 0xd080
 223 697 237 708 240 749 c 1
 322 749 l 1
 321 656 280 597 202 597 c 0xc880
61 0 m 1xe1
 61 538 l 1
 233 538 l 1
 233 0 l 1
 61 0 l 1xe1
EndSplineSet
EndChar

StartChar: ij
Encoding: 307 307 227
Width: 615
GlyphClass: 2
Flags: MW
HStem: -150 124<258 322 258 322 322 342 258 360> 0 21G<61 61 61 233> 518 20G<61 233 233 233 381 554 554 554> 598 128<58 236 58 236 379 557>
VStem: 58 175<0 726> 61 172<0 538 0 538> 61 175<0 726 538 726> 379 175 381 173<35 538> 381 176<35 726 538 726>
AnchorPoint: "Anchor-3" 468 538 basechar 0
AnchorPoint: "Anchor-2" 233 0 basechar 0
AnchorPoint: "Anchor-0" 438 -150 basechar 0
LayerCount: 2
Fore
SplineSet
58 598 m 1xb880
 58 726 l 1xb9
 236 726 l 1
 236 598 l 1xb280
 58 598 l 1xb880
379 598 m 1
 379 726 l 1x75
 557 726 l 1
 557 598 l 1xb440
 379 598 l 1
61 0 m 1
 61 538 l 1
 233 538 l 1
 233 0 l 1
 61 0 l 1
258 -150 m 1xb480
 258 -26 l 1
 322 -26 l 2
 362 -26 381 -13 381 35 c 2
 381 538 l 1
 554 538 l 1
 554 31 l 2
 554 -97 502 -150 360 -150 c 2
 258 -150 l 1xb480
EndSplineSet
Substitution2: "'ss08' Style Set 8 in Latin lookup 41 subtable" ij.ss08
Substitution2: "'aalt' Access All Alternates in Latin lookup 0 subtable" ij.ss08
EndChar

StartChar: j
Encoding: 106 106 228
Width: 355
GlyphClass: 2
Flags: MW
HStem: -150 124<-2 62 -2 62 62 82.5 -2 100> 518 20G<122 294 294 294> 598 128<120 297 120 297>
VStem: 120 174 122 172<35 538> 122 175<35 726 538 726>
AnchorPoint: "Anchor-3" 208 538 basechar 0
AnchorPoint: "Anchor-0" 178 -150 basechar 0
LayerCount: 2
Fore
SplineSet
120 598 m 1xf0
 120 726 l 1xf0
 297 726 l 1
 297 598 l 1xe4
 120 598 l 1xf0
-2 -150 m 1
 -2 -26 l 1
 62 -26 l 2
 103 -26 122 -13 122 35 c 2
 122 538 l 1
 294 538 l 1
 294 31 l 2xe8
 294 -97 243 -150 100 -150 c 2
 -2 -150 l 1
EndSplineSet
Substitution2: "'ss08' Style Set 8 in Latin lookup 41 subtable" j.ss08
Substitution2: "Single Substitution lookup 16 subtable" uni006A0301
Substitution2: "Single Substitution lookup 3 subtable" uni0237
AlternateSubs2: "'aalt' Access All Alternates in Latin lookup 1 subtable" uni006A0301 j.ss08
EndChar

StartChar: uni0237
Encoding: 567 567 229
Width: 355
GlyphClass: 2
Flags: MW
HStem: -150 124<-2 62 -2 62 62 82.5 -2 100> 518 20G<122 294 294 294>
VStem: 122 172<35 538>
AnchorPoint: "Anchor-3" 208 538 basechar 0
AnchorPoint: "Anchor-0" 178 -150 basechar 0
LayerCount: 2
Fore
SplineSet
-2 -150 m 1
 -2 -26 l 1
 62 -26 l 2
 103 -26 122 -13 122 35 c 2
 122 538 l 1
 294 538 l 1
 294 31 l 2
 294 -97 243 -150 100 -150 c 2
 -2 -150 l 1
EndSplineSet
EndChar

StartChar: uni006A0301
Encoding: 65577 -1 230
Width: 355
GlyphClass: 2
Flags: MW
HStem: -150 124<-2 62 -2 62 62 82.5 -2 100> 518 20G<122 294 294 294> 589 154<130 349 186 259>
VStem: 122 172<35 538>
AnchorPoint: "Anchor-3" 208 538 basechar 0
AnchorPoint: "Anchor-0" 178 -150 basechar 0
LayerCount: 2
Fore
SplineSet
130 589 m 1
 186 743 l 1
 349 743 l 1
 259 589 l 1
 130 589 l 1
-2 -150 m 1
 -2 -26 l 1
 62 -26 l 2
 103 -26 122 -13 122 35 c 2
 122 538 l 1
 294 538 l 1
 294 31 l 2
 294 -97 243 -150 100 -150 c 2
 -2 -150 l 1
EndSplineSet
EndChar

StartChar: jcircumflex
Encoding: 309 309 231
Width: 355
GlyphClass: 2
Flags: MW
HStem: -150 124<-2 62 -2 62 62 82.5 -2 100> 518 20G<122 294 294 294> 589 160<30 289 128 146 271 271 271 289 128 387>
VStem: 122 172<35 538>
AnchorPoint: "Anchor-3" 208 538 basechar 0
AnchorPoint: "Anchor-0" 178 -150 basechar 0
LayerCount: 2
Fore
SplineSet
30 589 m 1
 128 749 l 1
 289 749 l 1
 387 589 l 1
 271 589 l 1
 208 678 l 1
 146 589 l 1
 30 589 l 1
-2 -150 m 1
 -2 -26 l 1
 62 -26 l 2
 103 -26 122 -13 122 35 c 2
 122 538 l 1
 294 538 l 1
 294 31 l 2
 294 -97 243 -150 100 -150 c 2
 -2 -150 l 1
EndSplineSet
EndChar

StartChar: k
Encoding: 107 107 232
Width: 666
GlyphClass: 2
Flags: MW
HStem: 0 21G<61 61 61 233 435 435 435 621> 518 20G<412 616 616 616> 690 20G<61 233 233 233>
VStem: 61 172<0 156 340 710>
AnchorPoint: "Anchor-3" 147 694 basechar 0
AnchorPoint: "Anchor-0" 324 0 basechar 0
LayerCount: 2
Fore
SplineSet
61 0 m 1
 61 710 l 1
 233 710 l 1
 233 340 l 1
 412 538 l 1
 616 538 l 1
 407 319 l 1
 621 0 l 1
 435 0 l 1
 297 224 l 1
 233 156 l 1
 233 0 l 1
 61 0 l 1
EndSplineSet
EndChar

StartChar: uni01E9
Encoding: 489 489 233
Width: 666
GlyphClass: 2
Flags: MW
HStem: 0 21G<61 61 61 233 435 435 435 621> 518 20G<412 616 616 616> 690 20G<61 233 233 233> 745 160<66 85 209 227 66 66>
VStem: 61 172<0 156 340 710>
AnchorPoint: "Anchor-3" 147 694 basechar 0
AnchorPoint: "Anchor-0" 324 0 basechar 0
LayerCount: 2
Fore
SplineSet
-32 905 m 1
 85 905 l 1
 147 816 l 1
 209 905 l 1
 325 905 l 1
 227 745 l 1
 66 745 l 1
 -32 905 l 1
61 0 m 1
 61 710 l 1
 233 710 l 1
 233 340 l 1
 412 538 l 1
 616 538 l 1
 407 319 l 1
 621 0 l 1
 435 0 l 1
 297 224 l 1
 233 156 l 1
 233 0 l 1
 61 0 l 1
EndSplineSet
EndChar

StartChar: uni0137
Encoding: 311 311 234
Width: 666
GlyphClass: 2
Flags: MW
HStem: -173 126<254 288 254 394> 0 21G<61 61 61 233 435 435 435 621> 518 20G<412 616 616 616> 690 20G<61 233 233 233>
VStem: 61 172<0 156 340 710> 254 140<-160 -47 -160 -47 -160 -47>
AnchorPoint: "Anchor-3" 147 694 basechar 0
AnchorPoint: "Anchor-0" 324 -258 basechar 0
LayerCount: 2
Fore
SplineSet
61 0 m 1
 61 710 l 1
 233 710 l 1
 233 340 l 1
 412 538 l 1
 616 538 l 1
 407 319 l 1
 621 0 l 1
 435 0 l 1
 297 224 l 1
 233 156 l 1
 233 0 l 1
 61 0 l 1
237 -258 m 1
 288 -173 l 1
 254 -173 l 1
 254 -47 l 1
 394 -47 l 1
 394 -160 l 1xf4
 335 -258 l 1
 237 -258 l 1
EndSplineSet
EndChar

StartChar: l
Encoding: 108 108 235
Width: 328
GlyphClass: 2
Flags: MW
HStem: 0 124<165 312 279 312 279 312> 690 20G<61 233 233 233>
VStem: 61 172<154.5 172 172 710>
AnchorPoint: "Anchor-4" 247 538 basechar 0
AnchorPoint: "Anchor-3" 147 694 basechar 0
AnchorPoint: "Anchor-1" 166 385 basechar 0
AnchorPoint: "Anchor-0" 190 0 basechar 0
LayerCount: 2
Fore
SplineSet
213 0 m 2
 117 0 61 44 61 153 c 2
 61 710 l 1
 233 710 l 1
 233 172 l 2
 233 137 249 124 279 124 c 2
 312 124 l 1
 312 0 l 1
 213 0 l 2
EndSplineSet
Substitution2: "'ss03' Style Set 3 in Latin lookup 36 subtable" l.ss03
Substitution2: "'aalt' Access All Alternates in Latin lookup 0 subtable" l.ss03
EndChar

StartChar: lacute
Encoding: 314 314 236
Width: 328
GlyphClass: 2
Flags: MW
HStem: 0 124<165 312 279 312 279 312> 690 20G<61 233 233 233> 745 154<68 287 125 197>
VStem: 61 172<154.5 172 172 710>
AnchorPoint: "Anchor-4" 247 538 basechar 0
AnchorPoint: "Anchor-3" 147 694 basechar 0
AnchorPoint: "Anchor-1" 166 385 basechar 0
AnchorPoint: "Anchor-0" 190 0 basechar 0
LayerCount: 2
Fore
SplineSet
68 745 m 1
 125 899 l 1
 287 899 l 1
 197 745 l 1
 68 745 l 1
213 0 m 2
 117 0 61 44 61 153 c 2
 61 710 l 1
 233 710 l 1
 233 172 l 2
 233 137 249 124 279 124 c 2
 312 124 l 1
 312 0 l 1
 213 0 l 2
EndSplineSet
Substitution2: "'ss03' Style Set 3 in Latin lookup 36 subtable" lacute.ss03
Substitution2: "'aalt' Access All Alternates in Latin lookup 0 subtable" lacute.ss03
EndChar

StartChar: lcaron
Encoding: 318 318 237
Width: 414
GlyphClass: 2
Flags: MW
HStem: 0 124<165 312 279 312 279 312> 413 297<61 277 305 395> 690 20G<61 233 233 233 305 450 450 450>
VStem: 61 172<154.5 172 172 710>
AnchorPoint: "Anchor-4" 247 538 basechar 0
AnchorPoint: "Anchor-3" 147 694 basechar 0
AnchorPoint: "Anchor-1" 166 385 basechar 0
AnchorPoint: "Anchor-0" 190 0 basechar 0
LayerCount: 2
Fore
SplineSet
213 0 m 2xb0
 117 0 61 44 61 153 c 2
 61 710 l 1
 233 710 l 1
 233 172 l 2
 233 137 249 124 279 124 c 2
 312 124 l 1
 312 0 l 1
 213 0 l 2xb0
277 413 m 1xd0
 305 710 l 1
 450 710 l 1
 395 413 l 1
 277 413 l 1xd0
EndSplineSet
Substitution2: "'ss03' Style Set 3 in Latin lookup 36 subtable" lcaron.ss03
Substitution2: "'aalt' Access All Alternates in Latin lookup 0 subtable" lcaron.ss03
EndChar

StartChar: uni013C
Encoding: 316 316 238
Width: 328
GlyphClass: 2
Flags: MW
HStem: -173 126<120 154 120 260> 0 124<165 312 279 312 279 312> 690 20G<61 233 233 233>
VStem: 61 172<154.5 172 172 710> 120 140<-160 -47 -160 -47 -160 -47> 120 192<-173 124 -47 124>
AnchorPoint: "Anchor-4" 247 538 basechar 0
AnchorPoint: "Anchor-3" 147 694 basechar 0
AnchorPoint: "Anchor-1" 166 385 basechar 0
AnchorPoint: "Anchor-0" 190 -258 basechar 0
LayerCount: 2
Fore
SplineSet
213 0 m 2xe4
 117 0 61 44 61 153 c 2
 61 710 l 1
 233 710 l 1
 233 172 l 2xf0
 233 137 249 124 279 124 c 2
 312 124 l 1
 312 0 l 1
 213 0 l 2xe4
103 -258 m 1
 154 -173 l 1
 120 -173 l 1
 120 -47 l 1
 260 -47 l 1
 260 -160 l 1xe8
 201 -258 l 1
 103 -258 l 1
EndSplineSet
Substitution2: "'ss03' Style Set 3 in Latin lookup 36 subtable" uni013C.ss03
Substitution2: "'locl' Localized Forms in Latin lookup 11 subtable" uni013C.loclMAH
AlternateSubs2: "'aalt' Access All Alternates in Latin lookup 1 subtable" uni013C.loclMAH uni013C.ss03
EndChar

StartChar: lslash
Encoding: 322 322 239
Width: 328
GlyphClass: 2
Flags: MW
HStem: 0 124<165 312 279 312 279 312> 690 20G<61 233 233 233>
VStem: 61 172<154.5 172 172 292 292 292 464 710>
AnchorPoint: "Anchor-4" 247 538 basechar 0
AnchorPoint: "Anchor-3" 147 694 basechar 0
AnchorPoint: "Anchor-1" 166 385 basechar 0
AnchorPoint: "Anchor-0" 190 0 basechar 0
LayerCount: 2
Fore
SplineSet
213 0 m 2
 117 0 61 44 61 153 c 2
 61 292 l 1
 1 270 l 1
 1 380 l 1
 61 401 l 1
 61 710 l 1
 233 710 l 1
 233 464 l 1
 330 500 l 1
 330 390 l 1
 233 355 l 1
 233 172 l 2
 233 137 249 124 279 124 c 2
 312 124 l 1
 312 0 l 1
 213 0 l 2
EndSplineSet
Substitution2: "'ss03' Style Set 3 in Latin lookup 36 subtable" lslash.ss03
Substitution2: "'aalt' Access All Alternates in Latin lookup 0 subtable" lslash.ss03
EndChar

StartChar: m
Encoding: 109 109 240
Width: 907
GlyphClass: 2
Flags: MW
HStem: 0 21G<61 61 61 233 377 377 377 530 675 675 675 847> 416 122<61 333> 416 134<332 333>
VStem: 61 156 61 172<0 295 0 538> 377 153<0 295 0 335> 675 172<0 297 297 337>
AnchorPoint: "Anchor-3" 453 538 basechar 0
AnchorPoint: "Anchor-0" 453 0 basechar 0
LayerCount: 2
Fore
SplineSet
61 0 m 1xae
 61 538 l 1xce
 215 538 l 1xd6
 219 452 l 1xb6
 246 515 300 550 364 550 c 0
 440 550 492 508 515 441 c 1
 541 512 596 550 665 550 c 0
 773 550 847 480 847 346 c 2
 847 0 l 1
 675 0 l 1
 675 297 l 2
 675 377 654 416 604 416 c 0
 555 416 530 372 530 295 c 2
 530 0 l 1
 377 0 l 1
 377 295 l 2
 377 375 359 416 307 416 c 0
 259 416 233 372 233 295 c 2
 233 0 l 1
 61 0 l 1xae
EndSplineSet
EndChar

StartChar: n
Encoding: 110 110 241
Width: 621
GlyphClass: 2
Flags: MW
HStem: 0 21G<61 61 61 233 388 388 388 560> 416 122<61 345> 416 134<341.5 345>
VStem: 61 156 61 172<0 287 0 538> 388 172<0 287 287 328>
AnchorPoint: "Anchor-3" 310 538 basechar 0
AnchorPoint: "Anchor-0" 310 0 basechar 0
LayerCount: 2
Fore
SplineSet
61 0 m 1xac
 61 538 l 1xcc
 215 538 l 1xd4
 219 452 l 1xb4
 248 523 307 550 376 550 c 0
 490 550 560 474 560 346 c 2
 560 0 l 1
 388 0 l 1
 388 287 l 2
 388 369 374 416 316 416 c 0
 260 416 233 369 233 287 c 2
 233 0 l 1
 61 0 l 1xac
EndSplineSet
EndChar

StartChar: nacute
Encoding: 324 324 242
Width: 621
GlyphClass: 2
Flags: MW
HStem: 0 21G<61 61 61 233 388 388 388 560> 416 122<61 345> 416 134<341.5 345> 589 154<232 451 288 361>
VStem: 61 156 61 172<0 287 0 538> 388 172<0 287 287 328>
AnchorPoint: "Anchor-3" 310 538 basechar 0
AnchorPoint: "Anchor-0" 310 0 basechar 0
LayerCount: 2
Fore
SplineSet
232 589 m 1xb6
 288 743 l 1
 451 743 l 1
 361 589 l 1
 232 589 l 1xb6
61 0 m 1
 61 538 l 1xd6
 215 538 l 1xda
 219 452 l 1xba
 248 523 307 550 376 550 c 0
 490 550 560 474 560 346 c 2
 560 0 l 1
 388 0 l 1
 388 287 l 2
 388 369 374 416 316 416 c 0
 260 416 233 369 233 287 c 2
 233 0 l 1
 61 0 l 1
EndSplineSet
EndChar

StartChar: ncaron
Encoding: 328 328 243
Width: 621
GlyphClass: 2
Flags: MW
HStem: 0 21G<61 61 61 233 388 388 388 560> 416 122<61 345> 416 134<341.5 345> 589 160<230 248 372 391 230 230>
VStem: 61 156 61 172<0 287 0 538> 388 172<0 287 287 328>
AnchorPoint: "Anchor-3" 310 538 basechar 0
AnchorPoint: "Anchor-0" 310 0 basechar 0
LayerCount: 2
Fore
SplineSet
132 749 m 1xb6
 248 749 l 1
 310 660 l 1
 372 749 l 1
 489 749 l 1
 391 589 l 1
 230 589 l 1
 132 749 l 1xb6
61 0 m 1
 61 538 l 1xd6
 215 538 l 1xda
 219 452 l 1xba
 248 523 307 550 376 550 c 0
 490 550 560 474 560 346 c 2
 560 0 l 1
 388 0 l 1
 388 287 l 2
 388 369 374 416 316 416 c 0
 260 416 233 369 233 287 c 2
 233 0 l 1
 61 0 l 1
EndSplineSet
EndChar

StartChar: uni0146
Encoding: 326 326 244
Width: 621
GlyphClass: 2
Flags: MW
HStem: -173 126<240 275 240 380> 0 21G<61 61 61 233 388 388 388 560> 416 122<61 345> 416 134<341.5 345>
VStem: 61 156 61 172<0 287 0 538> 240 140<-160 -47 -160 -47 -160 -47> 388 172<0 287 287 328>
AnchorPoint: "Anchor-3" 310 538 basechar 0
AnchorPoint: "Anchor-0" 310 -258 basechar 0
LayerCount: 2
Fore
SplineSet
61 0 m 1xd5
 61 538 l 1xe5
 215 538 l 1xe9
 219 452 l 1xd9
 248 523 307 550 376 550 c 0
 490 550 560 474 560 346 c 2
 560 0 l 1
 388 0 l 1
 388 287 l 2
 388 369 374 416 316 416 c 0
 260 416 233 369 233 287 c 2
 233 0 l 1
 61 0 l 1xd5
224 -258 m 1
 275 -173 l 1
 240 -173 l 1
 240 -47 l 1
 380 -47 l 1
 380 -160 l 1xd2
 322 -258 l 1
 224 -258 l 1
EndSplineSet
Substitution2: "'locl' Localized Forms in Latin lookup 11 subtable" uni0146.loclMAH
Substitution2: "'aalt' Access All Alternates in Latin lookup 0 subtable" uni0146.loclMAH
EndChar

StartChar: ntilde
Encoding: 241 241 245
Width: 621
GlyphClass: 2
Flags: MW
HStem: 0 21G<61 61 61 233 388 388 388 560> 416 122<61 345> 416 134<341.5 345> 592 150<213 216 134 266> 597 100<362 377 362 404> 597 152<403 404> 642 100<244 259>
VStem: 61 156 61 172<0 287 0 538> 134 82<592 637> 388 172<0 287 287 328> 403 83<749 749>
AnchorPoint: "Anchor-3" 310 538 basechar 0
AnchorPoint: "Anchor-0" 310 0 basechar 0
LayerCount: 2
Fore
SplineSet
365 597 m 0xa490
 333 597 314 604 287 627 c 0
 275 637 265 642 253 642 c 0xa260
 235 642 220 631 216 592 c 1
 134 592 l 1
 134 682 176 742 250 742 c 0xb060
 282 742 306 735 333 713 c 0
 347 702 356 697 368 697 c 0xa890
 386 697 401 708 403 749 c 1
 486 749 l 1
 485 656 443 597 365 597 c 0xa490
61 0 m 1xa4a0
 61 538 l 1xc4a0
 215 538 l 1xc520
 219 452 l 1xa520
 248 523 307 550 376 550 c 0
 490 550 560 474 560 346 c 2
 560 0 l 1
 388 0 l 1
 388 287 l 2
 388 369 374 416 316 416 c 0
 260 416 233 369 233 287 c 2
 233 0 l 1
 61 0 l 1xa4a0
EndSplineSet
EndChar

StartChar: eng
Encoding: 331 331 246
Width: 621
GlyphClass: 2
Flags: MW
HStem: -150 111<278 330 330 348 278 385 278 330> 0 21G<61 61 61 233> 416 122<61 345> 416 134<341.5 345>
VStem: 61 156 61 172<0 287 0 538> 388 172<15 287 287 328>
AnchorPoint: "Anchor-3" 310 538 basechar 0
AnchorPoint: "Anchor-0" 310 0 basechar 0
LayerCount: 2
Fore
SplineSet
61 0 m 1xd6
 61 538 l 1xe6
 215 538 l 1xea
 219 452 l 1xda
 248 523 307 550 376 550 c 0
 490 550 560 474 560 346 c 2
 560 -1 l 2
 560 -85 493 -150 385 -150 c 2
 278 -150 l 1
 278 -39 l 1
 330 -39 l 2
 366 -39 388 -19 388 15 c 2
 388 287 l 2
 388 369 374 416 316 416 c 0
 260 416 233 369 233 287 c 2
 233 0 l 1
 61 0 l 1xd6
EndSplineSet
EndChar

StartChar: o
Encoding: 111 111 247
Width: 633
GlyphClass: 2
Flags: MW
HStem: -12 127<283 350.5 283 402> 423 127<283 350.5>
VStem: 34 177<220 317.5 220 353.5> 422 177<220 317.5>
AnchorPoint: "Anchor-3" 317 538 basechar 0
AnchorPoint: "Anchor-1" 317 269 basechar 0
AnchorPoint: "Anchor-0" 317 0 basechar 0
LayerCount: 2
Fore
SplineSet
317 -12 m 0
 146 -12 34 99 34 269 c 0
 34 438 146 550 317 550 c 0
 487 550 599 438 599 269 c 0
 599 99 487 -12 317 -12 c 0
317 115 m 0
 384 115 422 171 422 269 c 0
 422 366 384 423 317 423 c 0
 249 423 211 366 211 269 c 0
 211 171 249 115 317 115 c 0
EndSplineSet
Substitution2: "Single Substitution lookup 27 subtable" ordmasculine
Substitution2: "'aalt' Access All Alternates in Latin lookup 0 subtable" ordmasculine
EndChar

StartChar: oacute
Encoding: 243 243 248
Width: 633
GlyphClass: 2
Flags: MW
HStem: -12 127<283 350.5 283 402> 423 127<283 350.5> 589 154<238 457 294 367>
VStem: 34 177<220 317.5 220 353.5> 422 177<220 317.5>
AnchorPoint: "Anchor-3" 317 538 basechar 0
AnchorPoint: "Anchor-1" 317 269 basechar 0
AnchorPoint: "Anchor-0" 317 0 basechar 0
LayerCount: 2
Fore
SplineSet
238 589 m 1
 294 743 l 1
 457 743 l 1
 367 589 l 1
 238 589 l 1
317 -12 m 0
 146 -12 34 99 34 269 c 0
 34 438 146 550 317 550 c 0
 487 550 599 438 599 269 c 0
 599 99 487 -12 317 -12 c 0
317 115 m 0
 384 115 422 171 422 269 c 0
 422 366 384 423 317 423 c 0
 249 423 211 366 211 269 c 0
 211 171 249 115 317 115 c 0
EndSplineSet
EndChar

StartChar: ocircumflex
Encoding: 244 244 249
Width: 633
GlyphClass: 2
Flags: MW
HStem: -12 127<283 350.5 283 402> 423 127<283 350.5> 589 160<138 397 236 254 379 379 379 397 236 495>
VStem: 34 177<220 317.5 220 353.5> 422 177<220 317.5>
AnchorPoint: "Anchor-3" 317 538 basechar 0
AnchorPoint: "Anchor-1" 317 269 basechar 0
AnchorPoint: "Anchor-0" 317 0 basechar 0
LayerCount: 2
Fore
SplineSet
138 589 m 1
 236 749 l 1
 397 749 l 1
 495 589 l 1
 379 589 l 1
 317 678 l 1
 254 589 l 1
 138 589 l 1
317 -12 m 0
 146 -12 34 99 34 269 c 0
 34 438 146 550 317 550 c 0
 487 550 599 438 599 269 c 0
 599 99 487 -12 317 -12 c 0
317 115 m 0
 384 115 422 171 422 269 c 0
 422 366 384 423 317 423 c 0
 249 423 211 366 211 269 c 0
 211 171 249 115 317 115 c 0
EndSplineSet
EndChar

StartChar: odieresis
Encoding: 246 246 250
Width: 633
GlyphClass: 2
Flags: MW
HStem: -12 127<283 350.5 283 402> 423 127<283 350.5> 595 128<122 283 122 283 350 512 122 350>
VStem: 34 177<220 317.5 220 353.5> 122 161<595 723 595 723> 350 162<595 723 595 723> 422 177<220 317.5>
AnchorPoint: "Anchor-3" 317 538 basechar 0
AnchorPoint: "Anchor-1" 317 269 basechar 0
AnchorPoint: "Anchor-0" 317 0 basechar 0
LayerCount: 2
Fore
SplineSet
122 595 m 1xec
 122 723 l 1
 283 723 l 1
 283 595 l 1
 122 595 l 1xec
350 595 m 1
 350 723 l 1
 512 723 l 1
 512 595 l 1
 350 595 l 1
317 -12 m 0
 146 -12 34 99 34 269 c 0
 34 438 146 550 317 550 c 0
 487 550 599 438 599 269 c 0xf2
 599 99 487 -12 317 -12 c 0
317 115 m 0
 384 115 422 171 422 269 c 0
 422 366 384 423 317 423 c 0
 249 423 211 366 211 269 c 0
 211 171 249 115 317 115 c 0
EndSplineSet
Substitution2: "'ss08' Style Set 8 in Latin lookup 41 subtable" odieresis.ss08
Substitution2: "'aalt' Access All Alternates in Latin lookup 0 subtable" odieresis.ss08
EndChar

StartChar: ograve
Encoding: 242 242 251
Width: 633
GlyphClass: 2
Flags: MW
HStem: -12 127<283 350.5 283 402> 423 127<283 350.5> 596 153<263 263 263 336 173 392>
VStem: 34 177<220 317.5 220 353.5> 422 177<220 317.5>
AnchorPoint: "Anchor-3" 317 538 basechar 0
AnchorPoint: "Anchor-1" 317 269 basechar 0
AnchorPoint: "Anchor-0" 317 0 basechar 0
LayerCount: 2
Fore
SplineSet
263 596 m 1
 173 749 l 1
 336 749 l 1
 392 596 l 1
 263 596 l 1
317 -12 m 0
 146 -12 34 99 34 269 c 0
 34 438 146 550 317 550 c 0
 487 550 599 438 599 269 c 0
 599 99 487 -12 317 -12 c 0
317 115 m 0
 384 115 422 171 422 269 c 0
 422 366 384 423 317 423 c 0
 249 423 211 366 211 269 c 0
 211 171 249 115 317 115 c 0
EndSplineSet
EndChar

StartChar: ohungarumlaut
Encoding: 337 337 252
Width: 633
GlyphClass: 2
Flags: MW
HStem: -12 127<283 350.5 283 402> 423 127<283 350.5> 589 154<157 376 213 286 349 376 406 478 349 349>
VStem: 34 177<220 317.5 220 353.5> 422 177<220 317.5>
AnchorPoint: "Anchor-3" 317 538 basechar 0
AnchorPoint: "Anchor-1" 317 269 basechar 0
AnchorPoint: "Anchor-0" 317 0 basechar 0
LayerCount: 2
Fore
SplineSet
157 589 m 1
 213 743 l 1
 376 743 l 1
 286 589 l 1
 157 589 l 1
349 589 m 1
 406 743 l 1
 568 743 l 1
 478 589 l 1
 349 589 l 1
317 -12 m 0
 146 -12 34 99 34 269 c 0
 34 438 146 550 317 550 c 0
 487 550 599 438 599 269 c 0
 599 99 487 -12 317 -12 c 0
317 115 m 0
 384 115 422 171 422 269 c 0
 422 366 384 423 317 423 c 0
 249 423 211 366 211 269 c 0
 211 171 249 115 317 115 c 0
EndSplineSet
EndChar

StartChar: omacron
Encoding: 333 333 253
Width: 633
GlyphClass: 2
Flags: MW
HStem: -12 127<283 350.5 283 402> 423 127<283 350.5> 601 122<162 471 162 471>
VStem: 34 177<220 317.5 220 353.5> 162 309<601 723 601 723> 422 177<220 317.5>
AnchorPoint: "Anchor-3" 317 538 basechar 0
AnchorPoint: "Anchor-1" 317 269 basechar 0
AnchorPoint: "Anchor-0" 317 0 basechar 0
LayerCount: 2
Fore
SplineSet
162 601 m 1xe8
 162 723 l 1
 471 723 l 1
 471 601 l 1
 162 601 l 1xe8
317 -12 m 0
 146 -12 34 99 34 269 c 0
 34 438 146 550 317 550 c 0
 487 550 599 438 599 269 c 0xf4
 599 99 487 -12 317 -12 c 0
317 115 m 0
 384 115 422 171 422 269 c 0
 422 366 384 423 317 423 c 0
 249 423 211 366 211 269 c 0
 211 171 249 115 317 115 c 0
EndSplineSet
EndChar

StartChar: oslash
Encoding: 248 248 254
Width: 633
GlyphClass: 2
Flags: MW
HStem: -14 75<62 116 116 116 116 164> -12 127<307 350.5 307 402> 423 127<283 326.5> 477 75<517 517>
VStem: 34 177<256.5 317.5 256.5 353.5> 422 177<220 281.5>
AnchorPoint: "Anchor-3" 317 538 basechar 0
AnchorPoint: "Anchor-1" 317 269 basechar 0
AnchorPoint: "Anchor-0" 317 0 basechar 0
LayerCount: 2
Fore
SplineSet
62 -14 m 1x5c
 116 61 l 1
 64 110 34 182 34 269 c 0
 34 438 146 550 317 550 c 0xac
 366 550 410 541 448 523 c 1
 469 552 l 1
 571 552 l 1
 517 477 l 1
 569 428 599 356 599 269 c 0
 599 99 487 -12 317 -12 c 0
 267 -12 223 -3 185 15 c 1
 164 -14 l 1
 62 -14 l 1x5c
211 269 m 0
 211 244 214 222 218 203 c 1
 366 410 l 1
 352 418 336 423 317 423 c 0
 249 423 211 366 211 269 c 0
317 115 m 0
 384 115 422 171 422 269 c 0
 422 294 419 315 415 334 c 1
 267 128 l 1x6c
 281 120 297 115 317 115 c 0
EndSplineSet
EndChar

